<?xml version="1.0" encoding="UTF-8" standalone="no"?>
<!DOCTYPE svg PUBLIC "-//W3C//DTD SVG 1.1//EN" "http://www.w3.org/Graphics/SVG/1.1/DTD/svg11.dtd">
<svg version="1.1" xmlns="http://www.w3.org/2000/svg" xmlns:xlink="http://www.w3.org/1999/xlink" preserveAspectRatio="xMidYMid meet" viewBox="0 0 1000 600" width="1000" height="600"><defs><path d="M-197.91 -66.25L1082.09 -66.25L1082.09 693.75L-197.91 693.75L-197.91 -66.25Z" id="cN5xmSA8M"></path><path d="M912.87 25.24L912.85 26.13L763.75 175.26L762.83 175.28L756.65 175.15L755.41 175.08L912.67 17.79L912.74 19.06L912.87 25.24ZM911.75 43.59L911.47 45.59L783.21 173.87L781.18 174.16L775.13 174.78L773.37 174.89L912.48 35.75L912.37 37.54L911.75 43.59ZM911.99 9.22L746.83 174.4L744.49 174.16L738.8 173.35L910.94 1.19L911.75 6.9L911.99 9.22ZM906.97 67.01L906.73 67.77L805.38 169.13L804.6 169.38L798.87 170.91L794.41 171.92L909.52 56.8L908.5 61.28L906.97 67.01ZM909.46 -6.58L731.04 171.87L726.8 170.91L723.99 170.16L907.75 -13.62L908.5 -10.79L909.46 -6.58ZM905.65 -20.77L716.84 168.06L715.43 167.62L710.45 165.85L903.44 -27.16L905.21 -22.16L905.65 -20.77ZM898.69 88.95L896.11 94.17L893.74 98.54L836.15 156.13L831.76 158.52L826.54 161.1L821.21 163.48L819.66 164.1L901.7 82.05L901.07 83.62L898.69 88.95ZM900.79 -33.76L703.85 163.21L699.13 161.1L697.51 160.3L897.88 -40.1L898.69 -38.46L900.79 -33.76ZM894.74 -46.21L691.41 157.16L688.81 155.75L685.78 153.95L891.53 -51.83L893.34 -48.78L894.74 -46.21ZM887.95 -57.5L680.11 150.37L678.97 149.64L675.07 146.89L884.47 -62.54L887.23 -58.62L887.95 -57.5ZM880.49 -67.81L669.8 142.91L669.66 142.81L666.18 139.94L877.51 -71.43L880.4 -67.93L880.49 -67.81ZM872.9 -76.67L873.19 -76.35L661.26 135.61L660.92 135.31L656.77 131.31L656.75 131.29L868.87 -80.86L868.9 -80.82L872.9 -76.67ZM864.13 -85.37L652.23 126.56L648.94 122.86L648.24 122.02L859.59 -89.36L860.45 -88.66L864.13 -85.37ZM854.48 -93.49L644.11 116.9L641.77 113.83L640.11 111.48L849.05 -97.49L851.42 -95.83L854.48 -93.49ZM843.52 -101.21L636.4 105.95L635.29 104.25L633.04 100.47L838.04 -104.56L841.84 -102.3L843.52 -101.21ZM831.76 -108.03L832.09 -107.85L629.75 94.52L629.56 94.17L626.98 88.95L626.92 88.82L826.39 -110.68L826.54 -110.61L831.76 -108.03ZM819.96 -113.49L624.11 82.39L622.42 78.18L621.82 76.49L814.06 -115.78L815.77 -115.17L819.96 -113.49ZM807.13 -118.1L619.5 69.56L618.7 67.01L617.54 62.69L800.26 -120.05L804.6 -118.89L807.13 -118.1ZM792.75 -121.79L615.8 55.18L614.77 49.57L614.53 47.92L785.49 -123.06L787.16 -122.82L792.75 -121.79ZM775.13 -124.29L777.26 -124.07L613.52 39.69L613.3 37.54L612.93 31.42L612.92 31.2L768.77 -124.67L769.02 -124.66L775.13 -124.29ZM612.93 19.06L613.3 12.95L613.31 12.81L750.38 -124.27L750.54 -124.29L756.65 -124.66L759.58 -124.72L612.87 22.01L612.93 19.06ZM614.77 0.92L615.85 -4.98L616.61 -8.34L729.23 -120.97L732.61 -121.74L738.51 -122.82L739.87 -123.02L614.57 2.3L614.77 0.92ZM620.46 -22.16L622.42 -27.7L624.6 -33.13L625.97 -36.19L701.38 -111.62L704.46 -112.99L709.9 -115.17L715.43 -117.14L716.46 -117.45L620.13 -21.11L620.46 -22.16ZM638.44 -58.62L641.77 -63.34L645.27 -67.93L648.94 -72.37L652.77 -76.67L656.77 -80.82L660.92 -84.82L665.22 -88.66L669.66 -92.33L674.25 -95.83L678.97 -99.15L680.95 -100.43L637.15 -56.62L638.44 -58.62Z" id="a2oInYe654"></path><path d="M496.53 79.85C458.17 115.19 398.33 112.74 362.99 74.38C327.66 36.02 330.11 -23.81 368.47 -59.15C406.83 -94.49 466.66 -92.04 502 -53.68C537.34 -15.32 534.88 44.51 496.53 79.85Z" id="fAOqbXMZ"></path><path d="M824.25 332C824.25 340.28 817.53 347 809.25 347C800.97 347 794.25 340.28 794.25 332C794.25 323.72 800.97 317 809.25 317C817.53 317 824.25 323.72 824.25 332Z" id="aXWn8P0hh"></path><path d="M466.02 627.88L465.69 631.1L465.65 631.38L396.35 700.69L396.07 700.73L392.84 701.06L389.58 701.25L389.51 701.26L466.22 624.53L466.22 624.62L466.02 627.88ZM466.02 614.76L466.19 617.48L382.46 701.22L379.73 701.06L376.5 700.73L376.22 700.69L465.65 611.25L465.69 611.54L466.02 614.76ZM464.65 605.16L370.14 699.69L367.07 698.99L364.88 698.41L463.37 599.9L463.96 602.11L464.65 605.16ZM463.14 643.59L462.2 646.6L461.18 649.47L414.45 696.21L411.56 697.24L408.55 698.17L405.5 698.99L405.03 699.1L464.07 640.05L463.96 640.54L463.14 643.59ZM461.15 593.09L461.66 594.52L359.5 696.7L358.06 696.19L355.16 695.03L354.5 694.74L459.7 589.53L459.99 590.19L461.15 593.09ZM457.35 584.57L457.42 584.71L349.69 692.46L349.53 692.39L346.81 690.91L345.38 690.06L455.02 580.41L455.87 581.85L457.35 584.57ZM450.84 668.55L448.97 671L447.02 673.37L444.97 675.66L442.84 677.88L440.63 680.01L438.34 682.05L435.97 684.01L433.52 685.88L431 687.65L428.43 689.32L454.29 663.46L452.61 666.04L450.84 668.55ZM452.25 576.09L341.06 687.29L339.05 685.88L337.25 684.51L449.46 572.28L450.84 574.09L452.25 576.09ZM444.97 566.98L446.25 568.41L333.38 681.29L331.94 680.01L329.73 677.88L329.72 677.87L442.82 564.74L442.84 564.76L444.97 566.98ZM438.34 560.59L439.16 561.32L326.29 674.2L325.55 673.37L323.6 671L323.22 670.51L435.46 558.25L435.97 558.63L438.34 560.59ZM431 554.99L431.37 555.25L320.22 666.42L319.96 666.04L318.28 663.45L317.67 662.43L427.39 552.7L428.41 553.31L431 554.99ZM422.84 550.16L315.13 657.89L313.85 655.29L313.48 654.48L419.43 548.51L420.25 548.88L422.84 550.16ZM414.43 546.42L311.39 649.48L310.37 646.6L309.69 644.41L409.37 544.72L411.56 545.4L414.43 546.42ZM402.4 542.95L403.75 543.25L308.22 638.79L307.91 637.43L307.33 634.29L307.19 633.29L398.24 542.22L399.25 542.37L402.4 542.95ZM391.85 541.53L306.49 626.9L306.35 624.62L306.29 621.32L306.32 619.85L384.8 541.35L386.29 541.32L389.58 541.39L391.85 541.53ZM306.88 611.54L307.33 608.35L307.91 605.21L308.15 604.16L369.11 543.19L370.17 542.95L373.32 542.37L376.5 541.91L377.23 541.84L306.8 612.27L306.88 611.54ZM311.42 593.09L312.58 590.19L313.85 587.35L315.22 584.57L316.54 582.14L347.1 551.58L349.53 550.26L352.32 548.88L355.16 547.61L358.06 546.45L359.15 546.06L311.03 594.19L311.42 593.09Z" id="jtoN4G42k"></path><path d="M290.1 66.27C290.1 82.82 276.66 96.27 260.1 96.27C243.54 96.27 230.1 82.82 230.1 66.27C230.1 49.71 243.54 36.27 260.1 36.27C276.66 36.27 290.1 49.71 290.1 66.27Z" id="b1xJquBT0P"></path><path d="M337.52 -156.12L336.56 -157.08L64.83 114.65L65.8 115.61L337.52 -156.12Z" id="c5qOX8I5Q"></path><path d="M1117.61 161.86L1116.64 160.9L844.91 432.62L845.88 433.59L1117.61 161.86Z" id="cdZBc1Qic"></path><path d="M1082.24 1.85L1080.77 0.38L934.54 146.61L936.01 148.07L1082.24 1.85Z" id="b3xv29tXUL"></path><path d="M271.28 259.84L19.74 521.73L-232.28 260.41L271.28 259.84Z" id="b1Kfk6RMBq"></path><path d="M987.38 582L987.36 582.68L873.07 696.99L872.38 697L867.64 696.9L866.68 696.85L987.22 576.29L987.28 577.26L987.38 582ZM986.52 596.06L986.3 597.6L887.99 695.93L886.44 696.15L881.8 696.62L880.45 696.7L987.08 590.06L986.99 591.43L986.52 596.06ZM986.7 569.72L860.11 696.33L858.31 696.15L853.95 695.53L985.9 563.56L986.52 567.94L986.7 569.72ZM982.85 614.01L982.67 614.59L904.99 692.29L904.39 692.48L900 693.66L896.58 694.43L984.81 606.19L984.03 609.62L982.85 614.01ZM984.76 557.61L848 694.39L844.75 693.66L842.6 693.08L983.45 552.21L984.03 554.38L984.76 557.61ZM981.84 546.73L837.12 691.47L836.04 691.13L832.22 689.78L980.15 541.83L981.51 545.67L981.84 546.73ZM976.51 630.83L974.53 634.83L972.71 638.18L928.57 682.33L925.21 684.16L921.21 686.13L917.12 687.96L915.93 688.43L978.81 625.54L978.33 626.75L976.51 630.83ZM978.12 536.77L827.16 687.75L823.54 686.13L822.31 685.52L975.89 531.92L976.51 533.17L978.12 536.77ZM973.48 527.23L817.62 683.11L815.63 682.03L813.32 680.65L971.02 522.93L972.41 525.26L973.48 527.23ZM968.28 518.58L808.97 677.91L808.1 677.35L805.1 675.24L965.61 514.72L967.72 517.72L968.28 518.58ZM962.56 510.67L801.06 672.2L800.96 672.12L798.29 669.91L960.28 507.9L962.49 510.58L962.56 510.67ZM956.74 503.88L956.96 504.13L794.52 666.6L794.25 666.36L791.07 663.3L791.06 663.28L953.65 500.67L953.68 500.7L956.74 503.88ZM950.02 497.21L787.6 659.66L785.07 656.82L784.54 656.18L946.54 494.15L947.2 494.7L950.02 497.21ZM942.62 490.99L781.37 652.26L779.58 649.9L778.31 648.1L938.46 487.92L940.27 489.2L942.62 490.99ZM934.22 485.08L775.46 643.86L774.61 642.56L772.89 639.66L930.02 482.51L932.93 484.24L934.22 485.08ZM925.21 479.84L925.46 479.98L770.37 635.1L770.22 634.83L768.24 630.83L768.2 630.73L921.09 477.82L921.21 477.87L925.21 479.84ZM916.16 475.66L766.04 625.8L764.75 622.58L764.29 621.28L911.64 473.91L912.95 474.38L916.16 475.66ZM906.33 472.13L762.51 615.97L761.9 614.01L761.01 610.7L901.06 470.63L904.39 471.52L906.33 472.13ZM895.3 469.3L759.67 604.95L758.88 600.64L758.7 599.38L889.74 468.32L891.02 468.51L895.3 469.3ZM881.8 467.38L883.43 467.55L757.92 593.07L757.76 591.43L757.47 586.74L757.47 586.57L876.93 467.09L877.11 467.1L881.8 467.38ZM757.47 577.26L757.76 572.57L757.77 572.47L862.83 467.39L862.95 467.38L867.64 467.1L869.88 467.05L757.43 579.52L757.47 577.26ZM758.88 563.36L759.71 558.84L760.3 556.26L846.62 469.92L849.21 469.34L853.73 468.51L854.77 468.36L758.73 564.42L758.88 563.36ZM763.24 545.67L764.75 541.42L766.42 537.25L767.47 534.91L825.27 477.1L827.63 476.04L831.8 474.38L836.04 472.87L836.83 472.62L762.99 546.47L763.24 545.67ZM777.03 517.72L779.58 514.1L782.26 510.58L785.07 507.18L788.01 503.88L791.07 500.7L794.25 497.64L797.55 494.7L800.96 491.88L804.48 489.2L808.1 486.65L809.61 485.67L776.04 519.25L777.03 517.72Z" id="aSzThSIbK"></path><path d="M751.12 414.33L651.88 721.46L487.53 502.67L751.12 414.33Z" id="b2Zi2TisYI"></path><path d="M63.4 225.59C62.02 225.59 60.9 224.47 60.9 223.09C60.9 221.71 62.02 220.59 63.4 220.59C64.78 220.59 65.9 221.71 65.9 223.09C65.9 224.47 64.78 225.59 63.4 225.59Z" id="bhZ7G1JFm"></path><path d="M41.94 225.59C40.56 225.59 39.44 224.47 39.44 223.09C39.44 221.71 40.56 220.59 41.94 220.59C43.32 220.59 44.44 221.71 44.44 223.09C44.44 224.47 43.32 225.59 41.94 225.59Z" id="c7Sv3Itfg"></path><path d="M493.95 61.33C493.95 62.71 492.83 63.83 491.45 63.83C490.07 63.83 488.95 62.71 488.95 61.33C488.95 59.95 490.07 58.83 491.45 58.83C492.83 58.83 493.95 59.95 493.95 61.33Z" id="a1jZBV267F"></path><path d="M20.47 225.59C19.09 225.59 17.97 224.47 17.97 223.09C17.97 221.71 19.09 220.59 20.47 220.59C21.85 220.59 22.97 221.71 22.97 223.09C22.97 224.47 21.85 225.59 20.47 225.59Z" id="c4mKbTbdJk"></path><path d="M209.51 278.68C210.49 277.7 212.07 277.7 213.05 278.68C214.02 279.66 214.02 281.24 213.05 282.22C212.07 283.19 210.49 283.19 209.51 282.22C208.54 281.24 208.54 279.66 209.51 278.68Z" id="b8vQJHVb0"></path><path d="M194.75 293.86C195.73 292.89 197.31 292.89 198.29 293.86C199.26 294.84 199.26 296.42 198.29 297.4C197.31 298.37 195.73 298.37 194.75 297.4C193.78 296.42 193.78 294.84 194.75 293.86Z" id="b1SKOFw0tK"></path><path d="M63.53 244.97C62.15 244.97 61.03 243.85 61.03 242.47C61.03 241.09 62.15 239.97 63.53 239.97C64.91 239.97 66.03 241.09 66.03 242.47C66.03 243.85 64.91 244.97 63.53 244.97Z" id="a6xJ9v5ES7"></path><path d="M42.06 244.97C40.68 244.97 39.56 243.85 39.56 242.47C39.56 241.09 40.68 239.97 42.06 239.97C43.44 239.97 44.56 241.09 44.56 242.47C44.56 243.85 43.44 244.97 42.06 244.97Z" id="e1Hx3nR6vN"></path><path d="M20.59 244.97C19.21 244.97 18.09 243.85 18.09 242.47C18.09 241.09 19.21 239.97 20.59 239.97C21.97 239.97 23.09 241.09 23.09 242.47C23.09 243.85 21.97 244.97 20.59 244.97Z" id="a82EF2IXFL"></path><path d="M951.94 29.19C951.94 30.57 950.82 31.69 949.44 31.69C948.06 31.69 946.94 30.57 946.94 29.19C946.94 27.81 948.06 26.69 949.44 26.69C950.82 26.69 951.94 27.81 951.94 29.19Z" id="d3nxXqmGKD"></path><path d="M951.94 50.66C951.94 52.04 950.82 53.16 949.44 53.16C948.06 53.16 946.94 52.04 946.94 50.66C946.94 49.28 948.06 48.16 949.44 48.16C950.82 48.16 951.94 49.28 951.94 50.66Z" id="c3Y4ZHBZ5"></path><path d="M951.94 72.13C951.94 73.5 950.82 74.63 949.44 74.63C948.06 74.63 946.94 73.5 946.94 72.13C946.94 70.75 948.06 69.63 949.44 69.63C950.82 69.63 951.94 70.75 951.94 72.13Z" id="f1nIdVdfam"></path><path d="M206.46 434.14L204.99 432.68L-66.73 704.4L-65.27 705.87L206.46 434.14Z" id="b9oo7dkbGZ"></path><path d="M255.03 568.17C255.03 590.25 237.11 608.17 215.03 608.17C192.95 608.17 175.03 590.25 175.03 568.17C175.03 546.1 192.95 528.17 215.03 528.17C237.11 528.17 255.03 546.1 255.03 568.17Z" id="n8dl29sunB"></path><path d="M-161.07 -42.95L1118.93 -42.95L1118.93 717.05L-161.07 717.05L-161.07 -42.95Z" id="dnxk1Rhp"></path></defs><g><g><g><use xlink:href="#cN5xmSA8M" opacity="1" fill="#4d7ae6" fill-opacity="1"></use></g><g><use xlink:href="#a2oInYe654" opacity="0.4" fill="#ffffff" fill-opacity="1"></use></g><g><g><use xlink:href="#fAOqbXMZ" opacity="1" fill-opacity="0" stroke="#ffffff" stroke-width="1" stroke-opacity="1"></use></g></g><g><g><use xlink:href="#aXWn8P0hh" opacity="1" fill-opacity="0" stroke="#ffffff" stroke-width="1" stroke-opacity="1"></use></g></g><g><use xlink:href="#jtoN4G42k" opacity="0.79" fill="#ffffff" fill-opacity="1"></use></g><g><g><use xlink:href="#b1xJquBT0P" opacity="1" fill-opacity="0" stroke="#ffffff" stroke-width="1" stroke-opacity="1"></use></g></g><g><use xlink:href="#c5qOX8I5Q" opacity="1" fill="#ffffff" fill-opacity="1"></use></g><g><use xlink:href="#cdZBc1Qic" opacity="1" fill="#ffffff" fill-opacity="1"></use></g><g><use xlink:href="#b3xv29tXUL" opacity="1" fill="#ffffff" fill-opacity="1"></use></g><g><g><use xlink:href="#b1Kfk6RMBq" opacity="1" fill-opacity="0" stroke="#ffffff" stroke-width="2" stroke-opacity="1"></use></g></g><g><use xlink:href="#aSzThSIbK" opacity="0.48" fill="#ffffff" fill-opacity="1"></use></g><g><g><use xlink:href="#b2Zi2TisYI" opacity="1" fill-opacity="0" stroke="#ffffff" stroke-width="1" stroke-opacity="1"></use></g></g><g><use xlink:href="#bhZ7G1JFm" opacity="1" fill="#ffffff" fill-opacity="1"></use></g><g><use xlink:href="#c7Sv3Itfg" opacity="1" fill="#ffffff" fill-opacity="1"></use></g><g><use xlink:href="#a1jZBV267F" opacity="1" fill="#ffffff" fill-opacity="1"></use></g><g><use xlink:href="#c4mKbTbdJk" opacity="1" fill="#ffffff" fill-opacity="1"></use></g><g><use xlink:href="#b8vQJHVb0" opacity="1" fill="#ffffff" fill-opacity="1"></use></g><g><use xlink:href="#b1SKOFw0tK" opacity="1" fill="#ffffff" fill-opacity="1"></use></g><g><use xlink:href="#a6xJ9v5ES7" opacity="1" fill="#ffffff" fill-opacity="1"></use></g><g><use xlink:href="#e1Hx3nR6vN" opacity="1" fill="#ffffff" fill-opacity="1"></use></g><g><use xlink:href="#a82EF2IXFL" opacity="1" fill="#ffffff" fill-opacity="1"></use></g><g><use xlink:href="#d3nxXqmGKD" opacity="1" fill="#ffffff" fill-opacity="1"></use></g><g><use xlink:href="#c3Y4ZHBZ5" opacity="1" fill="#ffffff" fill-opacity="1"></use></g><g><use xlink:href="#f1nIdVdfam" opacity="1" fill="#ffffff" fill-opacity="1"></use></g><g><use xlink:href="#b9oo7dkbGZ" opacity="1" fill="#ffffff" fill-opacity="1"></use></g><g><g><use xlink:href="#n8dl29sunB" opacity="1" fill-opacity="0" stroke="#ffffff" stroke-width="1" stroke-opacity="1"></use></g></g><g><use xlink:href="#dnxk1Rhp" opacity="0.53" fill="#4d7ae6" fill-opacity="1"></use></g></g></g></svg>