<?xml version="1.0" encoding="UTF-8" standalone="no"?>
<!DOCTYPE svg PUBLIC "-//W3C//DTD SVG 1.1//EN" "http://www.w3.org/Graphics/SVG/1.1/DTD/svg11.dtd">
<svg version="1.1" xmlns="http://www.w3.org/2000/svg" xmlns:xlink="http://www.w3.org/1999/xlink" preserveAspectRatio="xMidYMid meet" viewBox="0 0 1000 600" width="1000" height="600"><defs><path d="M-197.91 -66.25L1082.09 -66.25L1082.09 693.75L-197.91 693.75L-197.91 -66.25Z" id="c7aYJ0Uaj"></path><path d="M581.89 633.64L575.09 633.78L574.09 633.76L410.08 469.72L410.06 468.74L410.19 461.94L410.28 460.55L583.27 633.56L581.89 633.64ZM561.57 633.23L554.91 632.56L552.68 632.24L411.6 491.13L411.28 488.92L410.6 482.27L410.49 480.3L563.51 633.35L561.57 633.23ZM595.27 632.56L592.7 632.82L411.02 451.12L411.28 448.56L412.18 442.28L601.53 631.66L595.27 632.56ZM535.45 628.98L529.15 627.29L528.29 627.02L416.81 515.52L416.55 514.68L414.86 508.38L413.74 503.45L540.36 630.09L535.45 628.98ZM614.73 628.98L610.07 630.03L413.81 433.74L414.86 429.1L415.69 425.99L617.82 628.15L614.73 628.98ZM627.23 625.36L625.68 625.84L418 418.13L418.48 416.6L420.43 411.1L632.72 623.41L627.23 625.36ZM510.88 620.8L505.02 618.18L499.28 615.35L494.45 612.72L431.1 549.37L428.49 544.56L425.65 538.82L423.04 532.96L422.34 531.23L512.58 621.48L510.88 620.8ZM645.17 618.18L639.98 620.5L423.35 403.84L425.65 398.67L426.54 396.87L646.95 617.31L645.17 618.18ZM656.52 612.3L653.67 613.85L430 390.15L431.54 387.31L433.53 383.97L659.85 610.32L656.52 612.3ZM667.34 605.58L666.09 606.39L437.46 377.72L438.26 376.5L441.3 372.18L671.63 602.55L667.34 605.58ZM677.58 598.07L677.43 598.18L445.67 366.38L445.77 366.26L448.95 362.4L681.42 594.9L677.58 598.07ZM691.77 585.42L687.2 589.81L686.83 590.15L453.71 356.99L454.02 356.63L458.42 352.07L458.46 352.03L691.79 585.39L691.77 585.42ZM700.38 576.12L696.76 580.19L463.67 347.06L467.71 343.45L468.66 342.68L701.15 575.2L700.38 576.12ZM708.27 566.18L705.69 569.57L474.29 338.13L477.65 335.57L480.25 333.74L710.09 563.6L708.27 566.18ZM715.39 555.65L714.18 557.52L486.34 329.65L488.19 328.45L492.37 325.96L717.86 551.49L715.39 555.65ZM724.53 538.82L721.7 544.56L721.49 544.94L498.91 322.34L499.28 322.14L505.02 319.3L505.18 319.23L724.6 538.68L724.53 538.82ZM729.55 526.98L727.7 531.6L512.26 316.13L516.86 314.29L518.75 313.62L730.21 525.11L729.55 526.98ZM733.64 514.68L732.77 517.5L526.37 311.06L529.15 310.2L533.93 308.92L734.92 509.93L733.64 514.68ZM737.97 495.5L736.83 501.67L542.19 307L548.34 305.87L550.17 305.61L738.23 493.69L737.97 495.5ZM739.99 475.54L739.58 482.27L739.34 484.63L559.23 304.49L561.57 304.25L568.29 303.84L568.56 303.84L740 475.3L739.99 475.54ZM588.62 304.25L588.8 304.27L739.57 455.06L739.58 455.22L739.99 461.94L740.06 465.19L578.68 303.78L581.89 303.84L588.62 304.25ZM608.34 307.06L612.06 307.9L735.94 431.8L736.77 435.5L737.97 441.99L738.19 443.51L600.35 305.66L601.85 305.87L608.34 307.06ZM633.33 314.29L639.31 316.68L642.69 318.2L725.65 401.17L727.15 404.53L729.55 410.51L731.71 416.6L732.07 417.76L626.11 311.78L627.23 312.13L633.33 314.29ZM672.54 335.57L677.58 339.42L682.47 343.45L687.2 347.67L691.77 352.07L696.16 356.63L700.38 361.36L704.42 366.26L708.27 371.3L711.93 376.5L713.35 378.69L665.17 330.5L667.34 331.91L672.54 335.57Z" id="i3z4160ERo"></path><path d="M580.41 137.55L840.26 408.08L1100.6 138.14L580.41 137.55Z" id="g2sxQuFMnT"></path><path d="M815.24 627.64C853.6 662.98 913.43 660.52 948.77 622.17C984.11 583.81 981.66 523.97 943.3 488.63C904.94 453.3 845.11 455.75 809.77 494.11C774.43 532.47 776.88 592.3 815.24 627.64Z" id="bpbCmfA78"></path><path d="M69.01 349.15C69.01 357.43 75.74 364.15 84.01 364.15C92.29 364.15 99.01 357.43 99.01 349.15C99.01 340.87 92.29 334.15 84.01 334.15C75.74 334.15 69.01 340.87 69.01 349.15Z" id="cm4VWCSqC"></path><path d="M853.28 290.89L850.63 290.72L848.01 290.46L847.78 290.43L791.45 234.09L791.42 233.87L791.15 231.24L790.99 228.59L790.99 228.53L853.34 290.89L853.28 290.89ZM863.91 290.46L861.29 290.72L859.07 290.86L791.02 222.79L791.15 220.58L791.42 217.96L791.45 217.72L864.14 290.43L863.91 290.46ZM871.58 289.05L869.09 289.61L792.27 212.78L792.83 210.29L793.31 208.51L873.36 288.57L871.58 289.05ZM840.34 289.05L837.86 288.38L835.42 287.62L833.07 286.79L795.08 248.79L794.25 246.46L793.49 244.02L792.83 241.53L792.74 241.14L840.73 289.14L840.34 289.05ZM881.26 285.83L878.91 286.77L877.73 287.19L794.69 204.13L795.1 202.97L796.05 200.61L796.29 200.07L881.8 285.59L881.26 285.83ZM888.04 282.48L885.83 283.68L885.71 283.74L798.14 196.16L798.2 196.04L799.4 193.83L800.1 192.66L889.21 281.79L888.04 282.48ZM819.61 279.83L817.57 278.39L815.58 276.87L813.65 275.28L811.79 273.62L809.99 271.89L808.26 270.09L806.59 268.22L805 266.3L803.49 264.31L802.05 262.26L800.69 260.16L821.7 281.18L819.61 279.83ZM894.35 278.39L892.72 279.54L802.34 189.15L803.49 187.52L804.61 186.05L895.82 277.27L894.35 278.39ZM901.93 271.89L900.13 273.62L898.96 274.66L807.22 182.9L808.26 181.74L809.99 179.94L810.01 179.93L901.94 271.88L901.93 271.89ZM906.92 266.3L905.33 268.22L904.72 268.9L812.98 177.14L813.65 176.55L815.58 174.96L815.99 174.65L907.22 265.89L906.92 266.3ZM911.24 260.16L909.87 262.26L909.66 262.57L819.31 172.21L819.61 172L821.72 170.64L822.55 170.14L911.73 259.33L911.24 260.16ZM914.84 253.52L913.8 255.64L826.25 168.07L828.35 167.03L829.02 166.73L915.14 252.86L914.84 253.52ZM917.67 246.46L916.84 248.8L833.08 165.03L835.42 164.2L837.2 163.65L918.22 244.68L917.67 246.46ZM920.14 236.46L919.66 239.01L919.42 240.12L841.77 162.46L842.86 162.21L845.42 161.74L846.24 161.62L920.25 235.64L920.14 236.46ZM920.96 224.72L920.99 225.91L920.93 228.59L920.82 230.45L851.44 161.05L853.28 160.94L855.96 160.89L857.17 160.91L920.96 224.72ZM866.5 161.74L869.06 162.21L869.92 162.4L919.47 211.96L919.66 212.82L920.14 215.37L920.5 217.96L920.57 218.56L863.32 161.31L863.91 161.37L866.5 161.74ZM881.26 166L883.57 167.03L885.83 168.15L887.81 169.23L912.65 194.07L913.72 196.04L914.84 198.3L915.87 200.61L916.82 202.97L917.13 203.86L878.02 164.74L878.91 165.06L881.26 166Z" id="h56JjIB6Jd"></path><path d="M343.5 341.08C343.5 357.64 356.95 371.08 373.5 371.08C390.06 371.08 403.5 357.64 403.5 341.08C403.5 324.53 390.06 311.08 373.5 311.08C356.95 311.08 343.5 324.53 343.5 341.08Z" id="e3bSOOLl3O"></path><path d="M147.13 430.36L148.09 429.4L419.82 701.12L418.85 702.09L147.13 430.36Z" id="e1AAFrmkyn"></path><path d="M-203.02 -43.55L-202.05 -44.51L197.94 355.48L196.98 356.45L-203.02 -43.55Z" id="d1plOLNdDJ"></path><path d="M750.75 382.01L751.71 381.04L1043.54 672.87L1042.58 673.83L750.75 382.01Z" id="d2nhOvxj0i"></path><path d="M-70.58 451.12L-75.31 451.22L-76.01 451.2L-190.3 336.9L-190.31 336.22L-190.22 331.48L-190.16 330.51L-69.62 451.06L-70.58 451.12ZM-84.74 450.84L-89.38 450.36L-90.93 450.14L-189.24 351.82L-189.46 350.28L-189.93 345.64L-190.01 344.27L-83.39 450.92L-84.74 450.84ZM-61.25 450.36L-63.05 450.55L-189.64 323.93L-189.46 322.15L-188.84 317.78L-56.89 449.74L-61.25 450.36ZM-102.94 447.87L-107.33 446.7L-107.92 446.51L-185.61 368.81L-185.79 368.23L-186.97 363.84L-187.74 360.4L-99.52 448.65L-102.94 447.87ZM-47.69 447.87L-50.94 448.61L-187.7 311.83L-186.97 308.6L-186.39 306.43L-45.54 447.3L-47.69 447.87ZM-38.98 445.35L-40.06 445.69L-184.78 300.95L-184.45 299.88L-183.08 296.05L-35.16 443.99L-38.98 445.35ZM-120.06 442.17L-124.14 440.35L-128.14 438.37L-131.51 436.55L-175.65 392.4L-177.47 389.05L-179.45 385.05L-181.27 380.96L-181.75 379.76L-118.87 442.65L-120.06 442.17ZM-26.48 440.35L-30.1 441.97L-181.05 290.99L-179.45 287.39L-178.83 286.13L-25.24 439.74L-26.48 440.35ZM-18.57 436.25L-20.56 437.33L-176.42 281.45L-175.34 279.48L-173.96 277.14L-16.25 434.87L-18.57 436.25ZM-11.03 431.57L-11.9 432.13L-171.22 272.79L-170.66 271.94L-168.54 268.93L-8.04 429.46L-11.03 431.57ZM-3.9 426.33L-4 426.41L-165.5 264.89L-165.43 264.8L-163.21 262.12L-1.23 424.13L-3.9 426.33ZM5.99 417.52L2.81 420.58L2.55 420.81L-159.9 258.34L-159.68 258.1L-156.61 254.92L-156.58 254.89L6 417.5L5.99 417.52ZM11.99 411.04L9.46 413.87L-152.96 251.43L-150.14 248.91L-149.48 248.37L12.52 410.4L11.99 411.04ZM17.49 404.12L15.69 406.47L-145.56 245.21L-143.21 243.42L-141.4 242.14L18.75 402.32L17.49 404.12ZM22.45 396.78L21.6 398.08L-137.16 239.29L-135.87 238.46L-132.96 236.73L24.17 393.88L22.45 396.78ZM28.82 385.05L26.84 389.05L26.7 389.32L-128.4 234.2L-128.14 234.06L-124.14 232.08L-124.03 232.03L28.86 384.95L28.82 385.05ZM32.31 376.8L31.02 380.02L-119.1 229.88L-115.89 228.59L-114.57 228.13L32.77 375.5L32.31 376.8ZM35.16 368.23L34.56 370.19L-109.27 226.34L-107.33 225.74L-104 224.85L36.05 364.92L35.16 368.23ZM38.18 354.86L37.39 359.16L-98.24 223.51L-93.96 222.72L-92.68 222.54L38.36 353.6L38.18 354.86ZM39.59 340.95L39.3 345.64L39.14 347.29L-86.37 221.77L-84.74 221.6L-80.05 221.31L-79.86 221.31L39.59 340.79L39.59 340.95ZM-65.89 221.6L-65.76 221.61L39.29 326.69L39.3 326.79L39.59 331.48L39.64 333.74L-72.82 221.27L-70.58 221.31L-65.89 221.6ZM-52.15 223.56L-49.55 224.14L36.77 310.47L37.35 313.05L38.18 317.57L38.33 318.63L-57.71 222.58L-56.67 222.72L-52.15 223.56ZM-34.74 228.59L-30.57 230.26L-28.21 231.31L29.6 289.13L30.64 291.47L32.31 295.64L33.82 299.88L34.07 300.69L-39.77 226.84L-38.98 227.08L-34.74 228.59ZM-7.41 243.42L-3.9 246.1L-0.49 248.91L2.81 251.85L5.99 254.92L9.05 258.1L11.99 261.39L14.8 264.8L17.49 268.32L20.04 271.94L21.03 273.47L-12.55 239.89L-11.03 240.87L-7.41 243.42Z" id="ejQn7xYez"></path><path d="M135.99 188.13L96.64 625.61L384.22 474.3L135.99 188.13Z" id="e1ZnzcRedM"></path><path d="M819.3 100.73C820.68 100.73 821.8 99.61 821.8 98.23C821.8 96.85 820.68 95.73 819.3 95.73C817.92 95.73 816.8 96.85 816.8 98.23C816.8 99.61 817.92 100.73 819.3 100.73Z" id="c3FIrNf2E5"></path><path d="M840.77 100.73C842.14 100.73 843.27 99.61 843.27 98.23C843.27 96.85 842.14 95.73 840.77 95.73C839.39 95.73 838.27 96.85 838.27 98.23C838.27 99.61 839.39 100.73 840.77 100.73Z" id="i2tCs5GnBJ"></path><path d="M412.63 -2.67C412.63 -1.29 413.75 -0.17 415.13 -0.17C416.51 -0.17 417.63 -1.29 417.63 -2.67C417.63 -4.05 416.51 -5.17 415.13 -5.17C413.75 -5.17 412.63 -4.05 412.63 -2.67Z" id="f2qnV5KzN"></path><path d="M862.23 100.73C863.61 100.73 864.73 99.61 864.73 98.23C864.73 96.85 863.61 95.73 862.23 95.73C860.85 95.73 859.73 96.85 859.73 98.23C859.73 99.61 860.85 100.73 862.23 100.73Z" id="a1oJwycpE4"></path><path d="M670.16 174.64C669.18 173.66 667.6 173.66 666.62 174.64C665.65 175.61 665.65 177.2 666.62 178.17C667.6 179.15 669.18 179.15 670.16 178.17C671.13 177.2 671.13 175.61 670.16 174.64Z" id="e97QV5mB1"></path><path d="M684.92 189.82C683.94 188.84 682.36 188.84 681.38 189.82C680.41 190.79 680.41 192.38 681.38 193.35C682.36 194.33 683.94 194.33 684.92 193.35C685.89 192.38 685.89 190.79 684.92 189.82Z" id="a23ifWLdB"></path><path d="M819.17 120.11C820.55 120.11 821.67 118.99 821.67 117.61C821.67 116.23 820.55 115.11 819.17 115.11C817.79 115.11 816.67 116.23 816.67 117.61C816.67 118.99 817.79 120.11 819.17 120.11Z" id="ddXyEtXnc"></path><path d="M840.64 120.11C842.02 120.11 843.14 118.99 843.14 117.61C843.14 116.23 842.02 115.11 840.64 115.11C839.26 115.11 838.14 116.23 838.14 117.61C838.14 118.99 839.26 120.11 840.64 120.11Z" id="amw0Q5Q5l"></path><path d="M862.11 120.11C863.49 120.11 864.61 118.99 864.61 117.61C864.61 116.23 863.49 115.11 862.11 115.11C860.73 115.11 859.61 116.23 859.61 117.61C859.61 118.99 860.73 120.11 862.11 120.11Z" id="e1gRtGJ0o7"></path><path d="M311.65 288.19C311.65 289.57 312.77 290.69 314.15 290.69C315.53 290.69 316.65 289.57 316.65 288.19C316.65 286.81 315.53 285.69 314.15 285.69C312.77 285.69 311.65 286.81 311.65 288.19Z" id="a67bctUd5Y"></path><path d="M311.65 309.66C311.65 311.04 312.77 312.16 314.15 312.16C315.53 312.16 316.65 311.04 316.65 309.66C316.65 308.28 315.53 307.16 314.15 307.16C312.77 307.16 311.65 308.28 311.65 309.66Z" id="fF3VEFOVw"></path><path d="M311.65 331.12C311.65 332.5 312.77 333.62 314.15 333.62C315.53 333.62 316.65 332.5 316.65 331.12C316.65 329.75 315.53 328.62 314.15 328.62C312.77 328.62 311.65 329.75 311.65 331.12Z" id="c53XpvAS0R"></path><path d="M739.54 263.79L741 262.32L1012.73 534.05L1011.26 535.51L739.54 263.79Z" id="a1vt7sfSmI"></path><path d="M528.73 215.98C528.73 238.05 546.65 255.98 568.73 255.98C590.8 255.98 608.73 238.05 608.73 215.98C608.73 193.9 590.8 175.98 568.73 175.98C546.65 175.98 528.73 193.9 528.73 215.98Z" id="b1fxcJhsIY"></path><path d="M-161.07 -42.95L1118.93 -42.95L1118.93 717.05L-161.07 717.05L-161.07 -42.95Z" id="d1DyeyW4xP"></path></defs><g><g><g><use xlink:href="#c7aYJ0Uaj" opacity="1" fill="#292929" fill-opacity="1"></use></g><g><use xlink:href="#i3z4160ERo" opacity="0.4" fill="#ffffff" fill-opacity="1"></use></g><g><g><use xlink:href="#g2sxQuFMnT" opacity="1" fill-opacity="0" stroke="#ffffff" stroke-width="1" stroke-opacity="1"></use></g></g><g><g><use xlink:href="#bpbCmfA78" opacity="1" fill-opacity="0" stroke="#ffffff" stroke-width="1" stroke-opacity="1"></use></g></g><g><g><use xlink:href="#cm4VWCSqC" opacity="1" fill-opacity="0" stroke="#ffffff" stroke-width="1" stroke-opacity="1"></use></g></g><g><use xlink:href="#h56JjIB6Jd" opacity="0.79" fill="#ffffff" fill-opacity="1"></use></g><g><g><use xlink:href="#e3bSOOLl3O" opacity="1" fill-opacity="0" stroke="#ffffff" stroke-width="1" stroke-opacity="1"></use></g></g><g><use xlink:href="#e1AAFrmkyn" opacity="1" fill="#ffffff" fill-opacity="1"></use></g><g><use xlink:href="#d1plOLNdDJ" opacity="1" fill="#ffffff" fill-opacity="1"></use></g><g><use xlink:href="#d2nhOvxj0i" opacity="1" fill="#ffffff" fill-opacity="1"></use></g><g><use xlink:href="#ejQn7xYez" opacity="0.48" fill="#ffffff" fill-opacity="1"></use></g><g><g><use xlink:href="#e1ZnzcRedM" opacity="1" fill-opacity="0" stroke="#ffffff" stroke-width="1" stroke-opacity="1"></use></g></g><g><use xlink:href="#c3FIrNf2E5" opacity="1" fill="#ffffff" fill-opacity="1"></use></g><g><use xlink:href="#i2tCs5GnBJ" opacity="1" fill="#ffffff" fill-opacity="1"></use></g><g><use xlink:href="#f2qnV5KzN" opacity="1" fill="#ffffff" fill-opacity="1"></use></g><g><use xlink:href="#a1oJwycpE4" opacity="1" fill="#ffffff" fill-opacity="1"></use></g><g><use xlink:href="#e97QV5mB1" opacity="1" fill="#ffffff" fill-opacity="1"></use></g><g><use xlink:href="#a23ifWLdB" opacity="1" fill="#ffffff" fill-opacity="1"></use></g><g><use xlink:href="#ddXyEtXnc" opacity="1" fill="#ffffff" fill-opacity="1"></use></g><g><use xlink:href="#amw0Q5Q5l" opacity="1" fill="#ffffff" fill-opacity="1"></use></g><g><use xlink:href="#e1gRtGJ0o7" opacity="1" fill="#ffffff" fill-opacity="1"></use></g><g><use xlink:href="#a67bctUd5Y" opacity="1" fill="#ffffff" fill-opacity="1"></use></g><g><use xlink:href="#fF3VEFOVw" opacity="1" fill="#ffffff" fill-opacity="1"></use></g><g><use xlink:href="#c53XpvAS0R" opacity="1" fill="#ffffff" fill-opacity="1"></use></g><g><use xlink:href="#a1vt7sfSmI" opacity="1" fill="#ffffff" fill-opacity="1"></use></g><g><g><use xlink:href="#b1fxcJhsIY" opacity="1" fill-opacity="0" stroke="#ffffff" stroke-width="1" stroke-opacity="1"></use></g></g><g><use xlink:href="#d1DyeyW4xP" opacity="0.96" fill="#292929" fill-opacity="1"></use></g></g></g></svg>