<?xml version="1.0" encoding="UTF-8" standalone="no"?>
<!DOCTYPE svg PUBLIC "-//W3C//DTD SVG 1.1//EN" "http://www.w3.org/Graphics/SVG/1.1/DTD/svg11.dtd">
<svg version="1.1" xmlns="http://www.w3.org/2000/svg" xmlns:xlink="http://www.w3.org/1999/xlink" preserveAspectRatio="xMidYMid meet" viewBox="0 0 1000 600" width="1000" height="600"><defs><path d="M-156.25 -62.25L1123.75 -62.25L1123.75 697.75L-156.25 697.75L-156.25 -62.25Z" id="c4v982yRf"></path><path d="M271.17 -9.21L271.15 -8.32L122.05 140.8L121.14 140.82L114.96 140.7L113.71 140.62L270.97 -16.66L271.05 -15.39L271.17 -9.21ZM270.06 9.14L269.77 11.14L141.51 139.42L139.48 139.71L133.44 140.32L131.67 140.43L270.78 1.3L270.67 3.09L270.06 9.14ZM270.29 -25.24L105.14 139.95L102.79 139.71L97.1 138.9L269.24 -33.27L270.06 -27.56L270.29 -25.24ZM265.27 32.55L265.04 33.31L163.68 134.68L162.9 134.92L157.17 136.46L152.71 137.47L267.82 22.34L266.81 26.83L265.27 32.55ZM267.76 -41.03L89.34 137.42L85.1 136.46L82.3 135.71L266.05 -48.08L266.81 -45.25L267.76 -41.03ZM263.95 -55.22L75.15 133.61L73.74 133.17L68.75 131.4L261.74 -61.62L263.52 -56.61L263.95 -55.22ZM256.99 54.49L254.41 59.71L252.04 64.08L194.45 121.68L190.06 124.06L184.84 126.64L179.51 129.02L177.96 129.64L260 47.59L259.37 49.17L256.99 54.49ZM259.09 -68.22L62.15 128.75L57.43 126.64L55.82 125.85L256.18 -74.55L256.99 -72.92L259.09 -68.22ZM253.04 -80.66L49.71 122.7L47.11 121.29L44.09 119.49L249.83 -86.28L251.64 -83.24L253.04 -80.66ZM246.26 -91.95L38.41 115.92L37.28 115.18L33.37 112.44L242.77 -96.99L245.53 -93.07L246.26 -91.95ZM238.8 -102.27L28.1 108.46L27.97 108.36L24.48 105.48L235.82 -105.88L238.71 -102.38L238.8 -102.27ZM231.2 -111.13L231.49 -110.81L19.56 101.16L19.22 100.85L15.07 96.86L15.05 96.84L227.17 -115.32L227.21 -115.28L231.2 -111.13ZM222.43 -119.83L10.53 92.1L7.24 88.41L6.55 87.57L217.9 -123.82L218.75 -123.11L222.43 -119.83ZM212.78 -127.95L2.42 82.45L0.07 79.37L-1.58 77.03L207.36 -131.94L209.72 -130.28L212.78 -127.95ZM201.83 -135.66L-5.3 71.5L-6.4 69.8L-8.65 66.02L196.34 -139.01L200.14 -136.75L201.83 -135.66ZM190.06 -142.49L190.39 -142.31L-11.95 60.06L-12.14 59.71L-14.72 54.49L-14.77 54.37L184.69 -145.13L184.84 -145.07L190.06 -142.49ZM178.26 -147.95L-17.59 47.93L-19.27 43.73L-19.88 42.03L172.36 -150.23L174.08 -149.62L178.26 -147.95ZM165.44 -152.55L-22.2 35.11L-23 32.55L-24.15 28.23L158.56 -154.51L162.9 -153.34L165.44 -152.55ZM151.05 -156.25L-25.9 20.73L-26.93 15.11L-27.16 13.47L143.79 -157.52L145.46 -157.28L151.05 -156.25ZM133.44 -158.75L135.56 -158.53L-28.18 5.23L-28.4 3.09L-28.77 -3.03L-28.77 -3.25L127.07 -159.12L127.32 -159.12L133.44 -158.75ZM-28.77 -15.39L-28.4 -21.51L-28.38 -21.65L108.68 -158.73L108.84 -158.75L114.96 -159.12L117.88 -159.18L-28.83 -12.45L-28.77 -15.39ZM-26.93 -33.53L-25.84 -39.43L-25.08 -42.8L87.53 -155.43L90.92 -156.19L96.82 -157.28L98.18 -157.47L-27.13 -32.15L-26.93 -33.53ZM-21.24 -56.61L-19.27 -62.15L-17.1 -67.59L-15.73 -70.64L59.68 -146.07L62.76 -147.45L68.2 -149.62L73.74 -151.59L74.76 -151.91L-21.57 -55.56L-21.24 -56.61ZM-3.26 -93.07L0.07 -97.79L3.57 -102.38L7.24 -106.83L11.07 -111.13L15.07 -115.28L19.22 -119.27L23.52 -123.11L27.97 -126.78L32.55 -130.28L37.28 -133.61L39.25 -134.89L-4.55 -91.08L-3.26 -93.07Z" id="dgK3t5JfY"></path><path d="M831.87 -5C831.87 39.15 796.03 75 751.88 75C707.72 75 671.88 39.15 671.88 -5C671.88 -49.15 707.72 -85 751.88 -85C796.03 -85 831.87 -49.15 831.87 -5Z" id="b14AEg1VGP"></path><path d="M182.25 390C182.25 398.28 175.53 405 167.25 405C158.97 405 152.25 398.28 152.25 390C152.25 381.72 158.97 375 167.25 375C175.53 375 182.25 381.72 182.25 390Z" id="d1EWMDNe1a"></path><path d="M945.78 569.09L945.45 572.32L945.41 572.59L876.11 641.9L875.83 641.94L872.6 642.27L869.34 642.47L869.27 642.47L945.98 565.75L945.98 565.83L945.78 569.09ZM945.78 555.98L945.94 558.69L862.21 642.43L859.49 642.27L856.26 641.94L855.98 641.9L945.41 552.46L945.45 552.75L945.78 555.98ZM944.41 546.37L849.89 640.9L846.83 640.21L844.64 639.62L943.13 541.12L943.72 543.32L944.41 546.37ZM942.9 584.8L941.96 587.81L940.94 590.68L894.2 637.43L891.32 638.45L888.31 639.39L885.26 640.21L884.78 640.31L943.83 581.26L943.72 581.75L942.9 584.8ZM940.91 534.3L941.42 535.73L839.26 637.91L837.81 637.4L834.92 636.24L834.26 635.95L939.45 530.74L939.75 531.41L940.91 534.3ZM937.11 525.78L937.18 525.92L829.45 633.67L829.29 633.6L826.57 632.12L825.14 631.27L934.77 521.62L935.63 523.06L937.11 525.78ZM930.6 609.77L928.73 612.21L926.78 614.58L924.73 616.88L922.6 619.09L920.39 621.22L918.09 623.27L915.72 625.22L913.28 627.09L910.76 628.86L908.19 630.53L934.05 604.67L932.37 607.25L930.6 609.77ZM932.01 517.3L820.82 628.5L818.81 627.09L817.01 625.72L929.22 513.49L930.6 515.3L932.01 517.3ZM924.73 508.19L926.01 509.62L813.14 622.5L811.7 621.22L809.49 619.09L809.48 619.08L922.58 505.96L922.6 505.98L924.73 508.19ZM918.09 501.8L918.92 502.53L806.05 615.42L805.31 614.58L803.35 612.21L802.98 611.72L915.22 499.46L915.72 499.84L918.09 501.8ZM910.76 496.2L911.13 496.46L799.98 607.63L799.71 607.25L798.04 604.66L797.43 603.64L907.14 493.91L908.17 494.53L910.76 496.2ZM902.6 491.37L794.89 599.1L793.6 596.5L793.24 595.69L899.19 489.72L900.01 490.09L902.6 491.37ZM894.19 487.63L791.15 590.69L790.12 587.81L789.45 585.63L889.12 485.93L891.32 486.61L894.19 487.63ZM882.16 484.16L883.5 484.46L787.98 580L787.67 578.65L787.09 575.5L786.95 574.5L878 483.44L879.01 483.58L882.16 484.16ZM871.61 482.74L786.25 568.11L786.11 565.83L786.04 562.53L786.07 561.06L864.56 482.56L866.04 482.53L869.34 482.6L871.61 482.74ZM786.64 552.75L787.09 549.56L787.67 546.42L787.91 545.37L848.87 484.4L849.93 484.16L853.07 483.58L856.26 483.13L856.98 483.05L786.56 553.49L786.64 552.75ZM791.17 534.3L792.33 531.41L793.6 528.56L794.98 525.78L796.3 523.36L826.86 492.79L829.29 491.47L832.07 490.09L834.92 488.82L837.81 487.66L838.9 487.28L790.78 535.4L791.17 534.3Z" id="bk2Z050OQ"></path><path d="M466.25 498.75C466.25 515.31 452.81 528.75 436.25 528.75C419.69 528.75 406.25 515.31 406.25 498.75C406.25 482.19 419.69 468.75 436.25 468.75C452.81 468.75 466.25 482.19 466.25 498.75Z" id="b8AYnc3aN"></path><path d="M665.22 -76.69L664.26 -77.66L392.53 194.07L393.49 195.03L665.22 -76.69Z" id="e56L4j5lmT"></path><path d="M816 399.62L815.04 398.65L543.31 670.38L544.27 671.35L816 399.62Z" id="c1eX2jXCj"></path><path d="M328.3 73.03L326.83 71.56L180.6 217.79L182.07 219.26L328.3 73.03Z" id="a1F3W8xx7w"></path><path d="M1131.32 -45.65L1020.06 300L681.18 180.12L1131.32 -45.65Z" id="b6SK2POxw"></path><path d="M358.38 560L358.36 560.68L244.07 674.99L243.38 675L238.64 674.9L237.68 674.85L358.22 554.29L358.28 555.26L358.38 560ZM357.52 574.06L357.3 575.6L258.99 673.93L257.44 674.15L252.8 674.62L251.45 674.7L358.08 568.06L357.99 569.43L357.52 574.06ZM357.7 547.72L231.11 674.33L229.31 674.15L224.95 673.53L356.9 541.56L357.52 545.94L357.7 547.72ZM353.85 592.01L353.67 592.59L275.99 670.29L275.39 670.48L271 671.66L267.58 672.43L355.81 584.19L355.03 587.62L353.85 592.01ZM355.76 535.61L219 672.39L215.75 671.66L213.6 671.08L354.45 530.21L355.03 532.38L355.76 535.61ZM352.84 524.73L208.12 669.47L207.04 669.13L203.22 667.78L351.15 519.83L352.51 523.67L352.84 524.73ZM347.51 608.83L345.53 612.83L343.71 616.18L299.57 660.33L296.21 662.16L292.21 664.13L288.12 665.96L286.93 666.43L349.81 603.54L349.33 604.75L347.51 608.83ZM349.12 514.77L198.16 665.75L194.54 664.13L193.31 663.52L346.89 509.92L347.51 511.17L349.12 514.77ZM344.48 505.23L188.62 661.11L186.63 660.03L184.32 658.65L342.02 500.93L343.41 503.26L344.48 505.23ZM339.28 496.58L179.97 655.91L179.1 655.35L176.1 653.24L336.61 492.72L338.72 495.72L339.28 496.58ZM333.56 488.67L172.06 650.2L171.96 650.12L169.29 647.91L331.28 485.9L333.49 488.58L333.56 488.67ZM327.74 481.88L327.96 482.13L165.52 644.6L165.25 644.36L162.07 641.3L162.06 641.28L324.65 478.67L324.68 478.7L327.74 481.88ZM321.02 475.21L158.6 637.66L156.07 634.82L155.54 634.18L317.54 472.15L318.2 472.7L321.02 475.21ZM313.62 468.99L152.37 630.26L150.58 627.9L149.31 626.1L309.46 465.92L311.27 467.2L313.62 468.99ZM305.22 463.08L146.46 621.86L145.61 620.56L143.89 617.66L301.02 460.51L303.93 462.24L305.22 463.08ZM296.21 457.84L296.46 457.98L141.37 613.1L141.22 612.83L139.24 608.83L139.2 608.73L292.09 455.82L292.21 455.87L296.21 457.84ZM287.16 453.66L137.04 603.8L135.75 600.58L135.29 599.28L282.64 451.91L283.95 452.38L287.16 453.66ZM277.33 450.13L133.51 593.97L132.9 592.01L132.01 588.7L272.06 448.63L275.39 449.52L277.33 450.13ZM266.3 447.3L130.67 582.95L129.88 578.64L129.7 577.38L260.74 446.32L262.02 446.51L266.3 447.3ZM252.8 445.38L254.43 445.55L128.92 571.07L128.76 569.43L128.47 564.74L128.47 564.57L247.93 445.09L248.11 445.1L252.8 445.38ZM128.47 555.26L128.76 550.57L128.77 550.47L233.83 445.39L233.95 445.38L238.64 445.1L240.88 445.05L128.43 557.52L128.47 555.26ZM129.88 541.36L130.71 536.84L131.3 534.26L217.62 447.92L220.21 447.34L224.73 446.51L225.77 446.36L129.73 542.42L129.88 541.36ZM134.24 523.67L135.75 519.42L137.42 515.25L138.47 512.91L196.27 455.1L198.63 454.04L202.8 452.38L207.04 450.87L207.83 450.62L133.99 524.47L134.24 523.67ZM148.03 495.72L150.58 492.1L153.26 488.58L156.07 485.18L159.01 481.88L162.07 478.7L165.25 475.64L168.55 472.7L171.96 469.88L175.48 467.2L179.1 464.65L180.61 463.67L147.04 497.25L148.03 495.72Z" id="dylEAKTDu"></path><path d="M106.32 216.11L26.09 477.1L-117.62 287.67L106.32 216.11Z" id="f8TzVyh4K"></path><path d="M597.81 88.38C597.81 89.75 596.69 90.88 595.31 90.88C593.93 90.88 592.81 89.75 592.81 88.38C592.81 87 593.93 85.88 595.31 85.88C596.69 85.88 597.81 87 597.81 88.38Z" id="akAWKfX5Z"></path><path d="M597.81 109.84C597.81 111.22 596.69 112.34 595.31 112.34C593.93 112.34 592.81 111.22 592.81 109.84C592.81 108.46 593.93 107.34 595.31 107.34C596.69 107.34 597.81 108.46 597.81 109.84Z" id="fo0DjAiFM"></path><path d="M368.62 112C368.62 113.38 367.49 114.5 366.12 114.5C364.74 114.5 363.62 113.38 363.62 112C363.62 110.62 364.74 109.5 366.12 109.5C367.49 109.5 368.62 110.62 368.62 112Z" id="e3l8payyd"></path><path d="M597.81 131.31C597.81 132.69 596.69 133.81 595.31 133.81C593.93 133.81 592.81 132.69 592.81 131.31C592.81 129.93 593.93 128.81 595.31 128.81C596.69 128.81 597.81 129.93 597.81 131.31Z" id="ccCjsPHHM"></path><path d="M281.12 152.71C282.09 151.74 283.68 151.74 284.65 152.71C285.63 153.69 285.63 155.27 284.65 156.25C283.68 157.22 282.09 157.22 281.12 156.25C280.14 155.27 280.14 153.69 281.12 152.71Z" id="b1BW13g3GA"></path><path d="M266.36 167.89C267.33 166.92 268.92 166.92 269.89 167.89C270.87 168.87 270.87 170.45 269.89 171.43C268.92 172.4 267.33 172.4 266.36 171.43C265.38 170.45 265.38 168.87 266.36 167.89Z" id="b3QGmxnHT"></path><path d="M617.19 88.25C617.19 89.63 616.07 90.75 614.69 90.75C613.31 90.75 612.19 89.63 612.19 88.25C612.19 86.87 613.31 85.75 614.69 85.75C616.07 85.75 617.19 86.87 617.19 88.25Z" id="b2sQIKQhYd"></path><path d="M617.19 109.72C617.19 111.1 616.07 112.22 614.69 112.22C613.31 112.22 612.19 111.1 612.19 109.72C612.19 108.34 613.31 107.22 614.69 107.22C616.07 107.22 617.19 108.34 617.19 109.72Z" id="bwCjjet9O"></path><path d="M617.19 131.19C617.19 132.57 616.07 133.69 614.69 133.69C613.31 133.69 612.19 132.57 612.19 131.19C612.19 129.81 613.31 128.69 614.69 128.69C616.07 128.69 617.19 129.81 617.19 131.19Z" id="fuxjrsgV"></path><path d="M835.94 170.19C835.94 171.57 834.82 172.69 833.44 172.69C832.06 172.69 830.94 171.57 830.94 170.19C830.94 168.81 832.06 167.69 833.44 167.69C834.82 167.69 835.94 168.81 835.94 170.19Z" id="ftwgFKp46"></path><path d="M835.94 191.66C835.94 193.04 834.82 194.16 833.44 194.16C832.06 194.16 830.94 193.04 830.94 191.66C830.94 190.28 832.06 189.16 833.44 189.16C834.82 189.16 835.94 190.28 835.94 191.66Z" id="cHbIT8MmP"></path><path d="M835.94 213.13C835.94 214.5 834.82 215.63 833.44 215.63C832.06 215.63 830.94 214.5 830.94 213.13C830.94 211.75 832.06 210.63 833.44 210.63C834.82 210.63 835.94 211.75 835.94 213.13Z" id="a1uMwb6CXx"></path></defs><g><g><g><use xlink:href="#c4v982yRf" opacity="1" fill="#f1f1f1" fill-opacity="1"></use><g><use xlink:href="#c4v982yRf" opacity="1" fill-opacity="0" stroke="#b05e5f" stroke-width="2" stroke-opacity="1"></use></g></g><g><use xlink:href="#dgK3t5JfY" opacity="0.51" fill="#ffffff" fill-opacity="1"></use></g><g><g><use xlink:href="#b14AEg1VGP" opacity="1" fill-opacity="0" stroke="#ffffff" stroke-width="1" stroke-opacity="1"></use></g></g><g><g><use xlink:href="#d1EWMDNe1a" opacity="1" fill-opacity="0" stroke="#ffffff" stroke-width="1" stroke-opacity="1"></use></g></g><g><use xlink:href="#bk2Z050OQ" opacity="0.68" fill="#ffffff" fill-opacity="1"></use></g><g><g><use xlink:href="#b8AYnc3aN" opacity="1" fill-opacity="0" stroke="#ffffff" stroke-width="1" stroke-opacity="1"></use></g></g><g><use xlink:href="#e56L4j5lmT" opacity="1" fill="#ffffff" fill-opacity="1"></use></g><g><use xlink:href="#c1eX2jXCj" opacity="1" fill="#ffffff" fill-opacity="1"></use></g><g><use xlink:href="#a1F3W8xx7w" opacity="1" fill="#ffffff" fill-opacity="1"></use></g><g><g><use xlink:href="#b6SK2POxw" opacity="1" fill-opacity="0" stroke="#ffffff" stroke-width="2" stroke-opacity="1"></use></g></g><g><use xlink:href="#dylEAKTDu" opacity="0.93" fill="#ffffff" fill-opacity="1"></use></g><g><g><use xlink:href="#f8TzVyh4K" opacity="1" fill-opacity="0" stroke="#ffffff" stroke-width="1" stroke-opacity="1"></use></g></g><g><use xlink:href="#akAWKfX5Z" opacity="1" fill="#ffffff" fill-opacity="1"></use></g><g><use xlink:href="#fo0DjAiFM" opacity="1" fill="#ffffff" fill-opacity="1"></use></g><g><use xlink:href="#e3l8payyd" opacity="1" fill="#ffffff" fill-opacity="1"></use></g><g><use xlink:href="#ccCjsPHHM" opacity="1" fill="#ffffff" fill-opacity="1"></use></g><g><use xlink:href="#b1BW13g3GA" opacity="1" fill="#ffffff" fill-opacity="1"></use></g><g><use xlink:href="#b3QGmxnHT" opacity="1" fill="#ffffff" fill-opacity="1"></use></g><g><use xlink:href="#b2sQIKQhYd" opacity="1" fill="#ffffff" fill-opacity="1"></use></g><g><use xlink:href="#bwCjjet9O" opacity="1" fill="#ffffff" fill-opacity="1"></use></g><g><use xlink:href="#fuxjrsgV" opacity="1" fill="#ffffff" fill-opacity="1"></use></g><g><use xlink:href="#ftwgFKp46" opacity="1" fill="#ffffff" fill-opacity="1"></use></g><g><use xlink:href="#cHbIT8MmP" opacity="1" fill="#ffffff" fill-opacity="1"></use></g><g><use xlink:href="#a1uMwb6CXx" opacity="1" fill="#ffffff" fill-opacity="1"></use></g></g></g></svg>