<?xml version="1.0" encoding="UTF-8" standalone="no"?>
<!DOCTYPE svg PUBLIC "-//W3C//DTD SVG 1.1//EN" "http://www.w3.org/Graphics/SVG/1.1/DTD/svg11.dtd">
<svg version="1.1" xmlns="http://www.w3.org/2000/svg" xmlns:xlink="http://www.w3.org/1999/xlink" preserveAspectRatio="xMidYMid meet" viewBox="0 0 1000 600" width="1000" height="600"><defs><path d="M-197.91 -66.25L1082.09 -66.25L1082.09 693.75L-197.91 693.75L-197.91 -66.25Z" id="a8UxSgkXo"></path><path d="M487.53 468.74L487.51 469.72L323.49 633.76L322.49 633.78L315.69 633.64L314.32 633.56L487.3 460.55L487.39 461.94L487.53 468.74ZM486.3 488.92L485.99 491.13L344.9 632.24L342.67 632.56L336.02 633.23L334.07 633.35L487.1 480.3L486.98 482.27L486.3 488.92ZM486.56 451.12L304.89 632.82L302.31 632.56L296.05 631.66L485.41 442.28L486.3 448.56L486.56 451.12ZM481.04 514.68L480.78 515.52L369.29 627.02L368.43 627.29L362.13 628.98L357.22 630.09L483.84 503.45L482.73 508.38L481.04 514.68ZM483.77 433.74L287.51 630.03L282.85 628.98L279.76 628.15L481.89 425.99L482.73 429.1L483.77 433.74ZM479.58 418.13L271.9 625.84L270.35 625.36L264.87 623.41L477.15 411.1L479.11 416.6L479.58 418.13ZM471.93 538.82L469.09 544.56L466.48 549.37L403.13 612.72L398.31 615.35L392.57 618.18L386.7 620.8L385 621.48L475.24 531.23L474.55 532.96L471.93 538.82ZM474.24 403.84L257.61 620.5L252.41 618.18L250.64 617.31L471.04 396.87L471.93 398.67L474.24 403.84ZM467.58 390.15L243.92 613.85L241.06 612.3L237.73 610.32L464.05 383.97L466.04 387.31L467.58 390.15ZM460.12 377.72L231.49 606.39L230.24 605.58L225.95 602.55L456.29 372.18L459.32 376.5L460.12 377.72ZM451.91 366.38L220.15 598.18L220 598.07L216.17 594.9L448.64 362.4L451.82 366.26L451.91 366.38ZM443.56 356.63L443.88 356.99L210.75 590.15L210.38 589.81L205.81 585.42L205.79 585.39L439.12 352.03L439.17 352.07L443.56 356.63ZM433.91 347.06L200.83 580.19L197.2 576.12L196.44 575.2L428.93 342.68L429.87 343.45L433.91 347.06ZM423.29 338.13L191.9 569.57L189.31 566.18L187.5 563.6L417.33 333.74L419.93 335.57L423.29 338.13ZM411.25 329.65L183.41 557.52L182.19 555.65L179.72 551.49L405.22 325.96L409.4 328.45L411.25 329.65ZM398.31 322.14L398.67 322.34L176.1 544.94L175.89 544.56L173.05 538.82L172.99 538.68L392.4 319.23L392.57 319.3L398.31 322.14ZM385.32 316.13L169.89 531.6L168.04 526.98L167.38 525.11L378.83 313.62L380.72 314.29L385.32 316.13ZM371.22 311.06L164.82 517.5L163.94 514.68L162.67 509.93L363.65 308.92L368.43 310.2L371.22 311.06ZM355.4 307L160.75 501.67L159.62 495.5L159.36 493.69L347.41 305.61L349.24 305.87L355.4 307ZM336.02 304.25L338.36 304.49L158.24 484.63L158 482.27L157.59 475.54L157.59 475.3L329.02 303.84L329.29 303.84L336.02 304.25ZM157.59 461.94L158 455.22L158.02 455.06L308.79 304.27L308.96 304.25L315.69 303.84L318.91 303.78L157.53 465.19L157.59 461.94ZM159.62 441.99L160.81 435.5L161.64 431.8L285.52 307.9L289.25 307.06L295.73 305.87L297.23 305.66L159.4 443.51L159.62 441.99ZM165.87 416.6L168.04 410.51L170.43 404.53L171.93 401.17L254.89 318.2L258.28 316.68L264.26 314.29L270.35 312.13L271.48 311.78L165.51 417.76L165.87 416.6ZM185.66 376.5L189.31 371.3L193.16 366.26L197.2 361.36L201.42 356.63L205.81 352.07L210.38 347.67L215.11 343.45L220 339.42L225.05 335.57L230.24 331.91L232.42 330.5L184.23 378.69L185.66 376.5Z" id="aekgsDBeJ"></path><path d="M317.17 137.55L57.33 408.08L-203.02 138.14L317.17 137.55Z" id="c22Evm6XuN"></path><path d="M82.34 627.64C43.98 662.98 -15.85 660.52 -51.19 622.17C-86.53 583.81 -84.07 523.97 -45.71 488.63C-7.36 453.3 52.48 455.75 87.82 494.11C123.15 532.47 120.7 592.3 82.34 627.64Z" id="a8Xrxy1Dho"></path><path d="M828.57 349.15C828.57 357.43 821.85 364.15 813.57 364.15C805.29 364.15 798.57 357.43 798.57 349.15C798.57 340.87 805.29 334.15 813.57 334.15C821.85 334.15 828.57 340.87 828.57 349.15Z" id="aK1H7Fq5T"></path><path d="M106.43 231.24L106.17 233.87L106.14 234.09L49.81 290.43L49.57 290.46L46.95 290.72L44.3 290.89L44.25 290.89L106.6 228.53L106.59 228.59L106.43 231.24ZM106.43 220.58L106.57 222.79L38.51 290.86L36.29 290.72L33.67 290.46L33.44 290.43L106.13 217.72L106.17 217.96L106.43 220.58ZM105.32 212.78L28.5 289.61L26 289.05L24.22 288.57L104.28 208.51L104.76 210.29L105.32 212.78ZM104.09 244.02L103.33 246.46L102.5 248.79L64.51 286.79L62.17 287.62L59.72 288.38L57.24 289.05L56.86 289.14L104.85 241.14L104.76 241.53L104.09 244.02ZM102.48 202.97L102.89 204.13L19.85 287.19L18.68 286.77L16.32 285.83L15.79 285.59L101.29 200.07L101.54 200.61L102.48 202.97ZM99.39 196.04L99.44 196.16L11.88 283.74L11.75 283.68L9.54 282.48L8.38 281.79L97.49 192.66L98.18 193.83L99.39 196.04ZM94.1 264.31L92.58 266.3L90.99 268.22L89.33 270.09L87.59 271.89L85.8 273.62L83.93 275.28L82 276.87L80.02 278.39L77.97 279.83L75.88 281.18L96.9 260.16L95.54 262.26L94.1 264.31ZM95.24 189.15L4.86 279.54L3.23 278.39L1.77 277.27L92.98 186.05L94.1 187.52L95.24 189.15ZM89.33 181.74L90.36 182.9L-1.38 274.66L-2.55 273.62L-4.35 271.89L-4.36 271.88L87.58 179.93L87.59 179.94L89.33 181.74ZM83.93 176.55L84.6 177.14L-7.14 268.9L-7.74 268.22L-9.33 266.3L-9.64 265.89L81.6 174.65L82 174.96L83.93 176.55ZM77.97 172L78.27 172.21L-12.07 262.57L-12.29 262.26L-13.66 260.16L-14.15 259.33L75.03 170.14L75.87 170.64L77.97 172ZM71.34 168.07L-16.22 255.64L-17.26 253.52L-17.55 252.86L68.56 166.73L69.23 167.03L71.34 168.07ZM64.5 165.03L-19.25 248.8L-20.09 246.46L-20.64 244.68L60.38 163.65L62.17 164.2L64.5 165.03ZM54.72 162.21L55.81 162.46L-21.83 240.12L-22.08 239.01L-22.55 236.46L-22.67 235.64L51.34 161.62L52.16 161.74L54.72 162.21ZM46.15 161.05L-23.24 230.45L-23.35 228.59L-23.4 225.91L-23.38 224.72L40.42 160.91L41.62 160.89L44.3 160.94L46.15 161.05ZM-22.92 217.96L-22.55 215.37L-22.08 212.82L-21.89 211.96L27.66 162.4L28.52 162.21L31.08 161.74L33.67 161.37L34.26 161.31L-22.98 218.56L-22.92 217.96ZM-19.23 202.97L-18.29 200.61L-17.26 198.3L-16.14 196.04L-15.07 194.07L9.77 169.23L11.75 168.15L14.01 167.03L16.32 166L18.68 165.06L19.56 164.74L-19.55 203.86L-19.23 202.97Z" id="c23ZwFCknI"></path><path d="M554.08 341.08C554.08 357.64 540.64 371.08 524.08 371.08C507.52 371.08 494.08 357.64 494.08 341.08C494.08 324.53 507.52 311.08 524.08 311.08C540.64 311.08 554.08 324.53 554.08 341.08Z" id="b1HJ7eALFF"></path><path d="M750.46 430.36L749.49 429.4L477.76 701.12L478.73 702.09L750.46 430.36Z" id="b3y04PWQp"></path><path d="M1100.6 -43.55L1099.64 -44.51L699.64 355.48L700.61 356.45L1100.6 -43.55Z" id="b25XfGpLaA"></path><path d="M146.84 382.01L145.87 381.04L-145.96 672.87L-144.99 673.83L146.84 382.01Z" id="a3JvBO8IU"></path><path d="M1087.9 336.22L1087.88 336.9L973.6 451.2L972.9 451.22L968.16 451.12L967.2 451.06L1087.74 330.51L1087.8 331.48L1087.9 336.22ZM1087.04 350.28L1086.83 351.82L988.51 450.14L986.96 450.36L982.32 450.84L980.97 450.92L1087.6 344.27L1087.51 345.64L1087.04 350.28ZM1087.22 323.93L960.63 450.55L958.83 450.36L954.48 449.74L1086.42 317.78L1087.04 322.15L1087.22 323.93ZM1083.37 368.23L1083.19 368.81L1005.51 446.51L1004.91 446.7L1000.52 447.87L997.1 448.65L1085.33 360.4L1084.55 363.84L1083.37 368.23ZM1085.28 311.83L948.52 448.61L945.27 447.87L943.12 447.3L1083.97 306.43L1084.55 308.6L1085.28 311.83ZM1082.36 300.95L937.64 445.69L936.56 445.35L932.75 443.99L1080.67 296.05L1082.03 299.88L1082.36 300.95ZM1077.03 385.05L1075.05 389.05L1073.23 392.4L1029.09 436.55L1025.73 438.37L1021.73 440.35L1017.64 442.17L1016.45 442.65L1079.34 379.76L1078.85 380.96L1077.03 385.05ZM1078.64 290.99L927.68 441.97L924.07 440.35L922.83 439.74L1076.41 286.13L1077.03 287.39L1078.64 290.99ZM1074 281.45L918.15 437.33L916.16 436.25L913.84 434.87L1071.54 277.14L1072.93 279.48L1074 281.45ZM1068.8 272.79L909.49 432.13L908.62 431.57L905.63 429.46L1066.13 268.93L1068.25 271.94L1068.8 272.79ZM1063.08 264.89L901.58 426.41L901.48 426.33L898.81 424.13L1060.8 262.12L1063.01 264.8L1063.08 264.89ZM1057.26 258.1L1057.48 258.34L895.04 420.81L894.78 420.58L891.6 417.52L891.58 417.5L1054.17 254.89L1054.2 254.92L1057.26 258.1ZM1050.54 251.43L888.12 413.87L885.59 411.04L885.06 410.4L1047.06 248.37L1047.72 248.91L1050.54 251.43ZM1043.14 245.21L881.9 406.47L880.1 404.12L878.83 402.32L1038.98 242.14L1040.8 243.42L1043.14 245.21ZM1034.74 239.29L875.98 398.08L875.14 396.78L873.41 393.88L1030.54 236.73L1033.45 238.46L1034.74 239.29ZM1025.73 234.06L1025.98 234.2L870.89 389.32L870.74 389.05L868.76 385.05L868.72 384.95L1021.61 232.03L1021.73 232.08L1025.73 234.06ZM1016.68 229.88L866.56 380.02L865.27 376.8L864.81 375.5L1012.16 228.13L1013.47 228.59L1016.68 229.88ZM1006.85 226.34L863.03 370.19L862.42 368.23L861.53 364.92L1001.58 224.85L1004.91 225.74L1006.85 226.34ZM995.83 223.51L860.2 359.16L859.4 354.86L859.22 353.6L990.26 222.54L991.54 222.72L995.83 223.51ZM982.32 221.6L983.95 221.77L858.45 347.29L858.28 345.64L857.99 340.95L857.99 340.79L977.45 221.31L977.63 221.31L982.32 221.6ZM857.99 331.48L858.28 326.79L858.29 326.69L963.35 221.61L963.47 221.6L968.16 221.31L970.4 221.27L857.95 333.74L857.99 331.48ZM859.4 317.57L860.23 313.05L860.82 310.47L947.14 224.14L949.73 223.56L954.25 222.72L955.3 222.58L859.25 318.63L859.4 317.57ZM863.76 299.88L865.27 295.64L866.94 291.47L867.99 289.13L925.79 231.31L928.15 230.26L932.32 228.59L936.56 227.08L937.35 226.84L863.51 300.69L863.76 299.88ZM877.55 271.94L880.1 268.32L882.78 264.8L885.59 261.39L888.53 258.1L891.6 254.92L894.78 251.85L898.07 248.91L901.48 246.1L905 243.42L908.62 240.87L910.13 239.89L876.56 273.47L877.55 271.94Z" id="brkMGFatG"></path><path d="M761.59 188.13L800.94 625.61L513.37 474.3L761.59 188.13Z" id="c4yee1OEA"></path><path d="M78.29 100.73C76.91 100.73 75.79 99.61 75.79 98.23C75.79 96.85 76.91 95.73 78.29 95.73C79.67 95.73 80.79 96.85 80.79 98.23C80.79 99.61 79.67 100.73 78.29 100.73Z" id="c2yScCK8am"></path><path d="M56.82 100.73C55.44 100.73 54.32 99.61 54.32 98.23C54.32 96.85 55.44 95.73 56.82 95.73C58.2 95.73 59.32 96.85 59.32 98.23C59.32 99.61 58.2 100.73 56.82 100.73Z" id="cRhm6G2Yl"></path><path d="M484.95 -2.67C484.95 -1.29 483.83 -0.17 482.45 -0.17C481.07 -0.17 479.95 -1.29 479.95 -2.67C479.95 -4.05 481.07 -5.17 482.45 -5.17C483.83 -5.17 484.95 -4.05 484.95 -2.67Z" id="a3NquPbBxl"></path><path d="M35.35 100.73C33.97 100.73 32.85 99.61 32.85 98.23C32.85 96.85 33.97 95.73 35.35 95.73C36.73 95.73 37.85 96.85 37.85 98.23C37.85 99.61 36.73 100.73 35.35 100.73Z" id="fZs14ez8n"></path><path d="M227.42 174.64C228.4 173.66 229.98 173.66 230.96 174.64C231.94 175.61 231.94 177.2 230.96 178.17C229.98 179.15 228.4 179.15 227.42 178.17C226.45 177.2 226.45 175.61 227.42 174.64Z" id="awK1MDaxp"></path><path d="M212.66 189.82C213.64 188.84 215.22 188.84 216.2 189.82C217.17 190.79 217.17 192.38 216.2 193.35C215.22 194.33 213.64 194.33 212.66 193.35C211.69 192.38 211.69 190.79 212.66 189.82Z" id="a2KEU2JgjJ"></path><path d="M78.41 120.11C77.03 120.11 75.91 118.99 75.91 117.61C75.91 116.23 77.03 115.11 78.41 115.11C79.79 115.11 80.91 116.23 80.91 117.61C80.91 118.99 79.79 120.11 78.41 120.11Z" id="d2ls3pbntC"></path><path d="M56.94 120.11C55.56 120.11 54.44 118.99 54.44 117.61C54.44 116.23 55.56 115.11 56.94 115.11C58.32 115.11 59.44 116.23 59.44 117.61C59.44 118.99 58.32 120.11 56.94 120.11Z" id="aQYYUW78d"></path><path d="M35.47 120.11C34.09 120.11 32.97 118.99 32.97 117.61C32.97 116.23 34.09 115.11 35.47 115.11C36.85 115.11 37.97 116.23 37.97 117.61C37.97 118.99 36.85 120.11 35.47 120.11Z" id="a3Glb2e67X"></path><path d="M585.94 288.19C585.94 289.57 584.82 290.69 583.44 290.69C582.06 290.69 580.94 289.57 580.94 288.19C580.94 286.81 582.06 285.69 583.44 285.69C584.82 285.69 585.94 286.81 585.94 288.19Z" id="bHziOJd5C"></path><path d="M585.94 309.66C585.94 311.04 584.82 312.16 583.44 312.16C582.06 312.16 580.94 311.04 580.94 309.66C580.94 308.28 582.06 307.16 583.44 307.16C584.82 307.16 585.94 308.28 585.94 309.66Z" id="h24dlJ299U"></path><path d="M585.94 331.13C585.94 332.5 584.82 333.63 583.44 333.63C582.06 333.63 580.94 332.5 580.94 331.13C580.94 329.75 582.06 328.63 583.44 328.63C584.82 328.63 585.94 329.75 585.94 331.13Z" id="d1jsUOrQev"></path><path d="M158.05 263.79L156.58 262.32L-115.15 534.05L-113.68 535.51L158.05 263.79Z" id="d6znrj53Sg"></path><path d="M368.86 215.98C368.86 238.05 350.93 255.98 328.86 255.98C306.78 255.98 288.86 238.05 288.86 215.98C288.86 193.9 306.78 175.98 328.86 175.98C350.93 175.98 368.86 193.9 368.86 215.98Z" id="iAY1X6h5T"></path><path d="M930.79 603.35C904.41 627.66 863.25 625.97 838.95 599.59C814.64 573.2 816.32 532.05 842.71 507.74C869.09 483.43 910.25 485.12 934.56 511.51C958.86 537.89 957.18 579.05 930.79 603.35Z" id="b3Nqk0GxM3"></path><path d="M-161.07 -42.95L1118.93 -42.95L1118.93 717.05L-161.07 717.05L-161.07 -42.95Z" id="i4D1Q4EhS"></path></defs><g><g><g><use xlink:href="#a8UxSgkXo" opacity="1" fill="#163e9c" fill-opacity="1"></use></g><g><use xlink:href="#aekgsDBeJ" opacity="0.4" fill="#ffffff" fill-opacity="1"></use></g><g><g><use xlink:href="#c22Evm6XuN" opacity="1" fill-opacity="0" stroke="#ffffff" stroke-width="1" stroke-opacity="1"></use></g></g><g><g><use xlink:href="#a8Xrxy1Dho" opacity="1" fill-opacity="0" stroke="#ffffff" stroke-width="1" stroke-opacity="1"></use></g></g><g><g><use xlink:href="#aK1H7Fq5T" opacity="1" fill-opacity="0" stroke="#ffffff" stroke-width="1" stroke-opacity="1"></use></g></g><g><use xlink:href="#c23ZwFCknI" opacity="0.79" fill="#ffffff" fill-opacity="1"></use></g><g><g><use xlink:href="#b1HJ7eALFF" opacity="1" fill-opacity="0" stroke="#ffffff" stroke-width="1" stroke-opacity="1"></use></g></g><g><use xlink:href="#b3y04PWQp" opacity="1" fill="#ffffff" fill-opacity="1"></use></g><g><use xlink:href="#b25XfGpLaA" opacity="1" fill="#ffffff" fill-opacity="1"></use></g><g><use xlink:href="#a3JvBO8IU" opacity="1" fill="#ffffff" fill-opacity="1"></use></g><g><use xlink:href="#brkMGFatG" opacity="0.48" fill="#ffffff" fill-opacity="1"></use></g><g><g><use xlink:href="#c4yee1OEA" opacity="1" fill-opacity="0" stroke="#ffffff" stroke-width="1" stroke-opacity="1"></use></g></g><g><use xlink:href="#c2yScCK8am" opacity="1" fill="#ffffff" fill-opacity="1"></use></g><g><use xlink:href="#cRhm6G2Yl" opacity="1" fill="#ffffff" fill-opacity="1"></use></g><g><use xlink:href="#a3NquPbBxl" opacity="1" fill="#ffffff" fill-opacity="1"></use></g><g><use xlink:href="#fZs14ez8n" opacity="1" fill="#ffffff" fill-opacity="1"></use></g><g><use xlink:href="#awK1MDaxp" opacity="1" fill="#ffffff" fill-opacity="1"></use></g><g><use xlink:href="#a2KEU2JgjJ" opacity="1" fill="#ffffff" fill-opacity="1"></use></g><g><use xlink:href="#d2ls3pbntC" opacity="1" fill="#ffffff" fill-opacity="1"></use></g><g><use xlink:href="#aQYYUW78d" opacity="1" fill="#ffffff" fill-opacity="1"></use></g><g><use xlink:href="#a3Glb2e67X" opacity="1" fill="#ffffff" fill-opacity="1"></use></g><g><use xlink:href="#bHziOJd5C" opacity="1" fill="#ffffff" fill-opacity="1"></use></g><g><use xlink:href="#h24dlJ299U" opacity="1" fill="#ffffff" fill-opacity="1"></use></g><g><use xlink:href="#d1jsUOrQev" opacity="1" fill="#ffffff" fill-opacity="1"></use></g><g><use xlink:href="#d6znrj53Sg" opacity="1" fill="#ffffff" fill-opacity="1"></use></g><g><g><use xlink:href="#iAY1X6h5T" opacity="1" fill-opacity="0" stroke="#ffffff" stroke-width="1" stroke-opacity="1"></use></g></g><g><g><use xlink:href="#b3Nqk0GxM3" opacity="1" fill-opacity="0" stroke="#ffffff" stroke-width="1" stroke-opacity="1"></use></g></g><g><use xlink:href="#i4D1Q4EhS" opacity="0.93" fill="#163e9c" fill-opacity="1"></use></g></g></g></svg>