<?xml version="1.0" encoding="UTF-8" standalone="no"?>
<!DOCTYPE svg PUBLIC "-//W3C//DTD SVG 1.1//EN" "http://www.w3.org/Graphics/SVG/1.1/DTD/svg11.dtd">
<svg version="1.1" xmlns="http://www.w3.org/2000/svg" xmlns:xlink="http://www.w3.org/1999/xlink" preserveAspectRatio="xMidYMid meet" viewBox="0 0 1000 600" width="1000" height="600"><defs><path d="M-197.91 -66.25L1082.09 -66.25L1082.09 693.75L-197.91 693.75L-197.91 -66.25Z" id="b6ezFoBFg"></path><path d="M1174.73 355.07L914.88 625.6L654.54 355.66L1174.73 355.07Z" id="fclRZmwiz"></path><path d="M211.03 106.59L242.22 630.07L-37.19 392.75L211.03 106.59Z" id="a80O6VU2s4"></path><path d="M725.87 322.73L724.9 321.76L1117.96 -71.3L1118.93 -70.34L725.87 322.73ZM725.87 303.76L724.9 302.79L1117.96 -90.27L1118.93 -89.3L725.87 303.76ZM725.87 284.92L724.9 283.96L1117.96 -109.11L1118.93 -108.14L725.87 284.92ZM725.87 265.5L724.9 264.53L1117.96 -128.53L1118.93 -127.57L725.87 265.5ZM725.87 245.36L724.9 244.4L1117.96 -148.66L1118.93 -147.7L725.87 245.36Z" id="d4sTdCKpm7"></path><path d="M-58.63 625.6L-59.59 624.64L333.47 231.58L334.44 232.54L-58.63 625.6ZM-58.63 606.63L-59.59 605.67L333.47 212.61L334.44 213.57L-58.63 606.63ZM-58.63 587.8L-59.59 586.83L333.47 193.77L334.44 194.73L-58.63 587.8ZM-58.63 568.37L-59.59 567.41L333.47 174.35L334.44 175.31L-58.63 568.37ZM-58.63 548.24L-59.59 547.28L333.47 154.21L334.44 155.18L-58.63 548.24Z" id="c3tBf3j518"></path><path d="M303.86 211.66C303.86 215.8 300.5 219.16 296.36 219.16C292.22 219.16 288.86 215.8 288.86 211.66C288.86 207.52 292.22 204.16 296.36 204.16C300.5 204.16 303.86 207.52 303.86 211.66Z" id="io0Ll1x7s"></path><path d="M271.82 264.58C271.82 268.72 268.45 272.08 264.32 272.08C260.18 272.08 256.82 268.72 256.82 264.58C256.82 260.44 260.18 257.08 264.32 257.08C268.45 257.08 271.82 260.44 271.82 264.58Z" id="aLgWFrvyb"></path><path d="M62.1 444.19C62.1 448.33 58.74 451.69 54.6 451.69C50.46 451.69 47.1 448.33 47.1 444.19C47.1 440.05 50.46 436.69 54.6 436.69C58.74 436.69 62.1 440.05 62.1 444.19Z" id="g1rqKqPgTN"></path><path d="M254.22 290.86C254.22 295 250.85 298.36 246.72 298.36C242.58 298.36 239.22 295 239.22 290.86C239.22 286.72 242.58 283.36 246.72 283.36C250.85 283.36 254.22 286.72 254.22 290.86Z" id="c6XrpmWcYK"></path><path d="M109.1 446.05C109.1 450.19 105.74 453.55 101.6 453.55C97.46 453.55 94.1 450.19 94.1 446.05C94.1 441.91 97.46 438.55 101.6 438.55C105.74 438.55 109.1 441.91 109.1 446.05Z" id="daZc8zwyg"></path><path d="M177.97 307.54C177.97 311.68 174.61 315.04 170.47 315.04C166.33 315.04 162.97 311.68 162.97 307.54C162.97 303.4 166.33 300.04 170.47 300.04C174.61 300.04 177.97 303.4 177.97 307.54Z" id="cu5JW8wj9"></path><path d="M616.36 456.54C616.36 544.85 544.66 616.54 456.36 616.54C368.05 616.54 296.36 544.85 296.36 456.54C296.36 368.24 368.05 296.54 456.36 296.54C544.66 296.54 616.36 368.24 616.36 456.54Z" id="bo94Mhbyk"></path><path d="M106.6 409.83C106.6 413.97 103.24 417.33 99.1 417.33C94.96 417.33 91.6 413.97 91.6 409.83C91.6 405.69 94.96 402.33 99.1 402.33C103.24 402.33 106.6 405.69 106.6 409.83Z" id="b4tBViEjd"></path><path d="M204 331.58C204 335.72 200.64 339.08 196.5 339.08C192.36 339.08 189 335.72 189 331.58C189 327.44 192.36 324.08 196.5 324.08C200.64 324.08 204 327.44 204 331.58Z" id="c2SBCH1IwP"></path><path d="M161.84 411.33C161.84 415.47 158.48 418.83 154.34 418.83C150.2 418.83 146.84 415.47 146.84 411.33C146.84 407.19 150.2 403.83 154.34 403.83C158.48 403.83 161.84 407.19 161.84 411.33Z" id="bfBtWBCl9"></path><path d="M770.55 221.98C770.55 217.84 773.91 214.48 778.05 214.48C782.19 214.48 785.55 217.84 785.55 221.98C785.55 226.12 782.19 229.48 778.05 229.48C773.91 229.48 770.55 226.12 770.55 221.98Z" id="fbi5VRXoK"></path><path d="M801.59 180.55C801.59 176.41 804.95 173.05 809.09 173.05C813.23 173.05 816.59 176.41 816.59 180.55C816.59 184.69 813.23 188.05 809.09 188.05C804.95 188.05 801.59 184.69 801.59 180.55Z" id="baj9YuVCx"></path><path d="M937.31 65.22C937.31 61.08 940.67 57.72 944.81 57.72C948.95 57.72 952.31 61.08 952.31 65.22C952.31 69.36 948.95 72.72 944.81 72.72C940.67 72.72 937.31 69.36 937.31 65.22Z" id="al6Lz0KeM"></path><path d="M820.19 152.78C820.19 148.64 823.55 145.28 827.69 145.28C831.83 145.28 835.19 148.64 835.19 152.78C835.19 156.91 831.83 160.28 827.69 160.28C823.55 160.28 820.19 156.91 820.19 152.78Z" id="dIka2vIj5"></path><path d="M423.74 331.68C424.75 332.99 424.49 334.88 423.18 335.88C421.86 336.89 419.98 336.63 418.97 335.32C417.97 334 418.22 332.12 419.54 331.11C420.85 330.11 422.74 330.36 423.74 331.68Z" id="d2AVEBxky"></path><path d="M972.92 19.42C972.92 15.28 976.28 11.92 980.42 11.92C984.56 11.92 987.92 15.28 987.92 19.42C987.92 23.56 984.56 26.92 980.42 26.92C976.28 26.92 972.92 23.56 972.92 19.42Z" id="aXey1ypfD"></path><path d="M409.41 317.91C410.41 319.22 410.16 321.11 408.84 322.11C407.52 323.12 405.64 322.86 404.64 321.55C403.63 320.23 403.88 318.35 405.2 317.34C406.52 316.34 408.4 316.59 409.41 317.91Z" id="c1GxZkZNf"></path><path d="M896.44 124.09C896.44 119.95 899.8 116.59 903.94 116.59C908.07 116.59 911.44 119.95 911.44 124.09C911.44 128.23 908.07 131.59 903.94 131.59C899.8 131.59 896.44 128.23 896.44 124.09Z" id="i40i2pvskb"></path><path d="M930.81 20.42C930.81 16.28 934.17 12.92 938.31 12.92C942.45 12.92 945.81 16.28 945.81 20.42C945.81 24.56 942.45 27.92 938.31 27.92C934.17 27.92 930.81 24.56 930.81 20.42Z" id="aATWTCipG"></path><path d="M870.41 112.05C870.41 107.91 873.77 104.55 877.91 104.55C882.05 104.55 885.41 107.91 885.41 112.05C885.41 116.19 882.05 119.55 877.91 119.55C873.77 119.55 870.41 116.19 870.41 112.05Z" id="f4Q5F49ri"></path><path d="M-222.59 484.31L-223.55 483.34L169.51 90.28L170.47 91.25L-222.59 484.31ZM-222.59 465.34L-223.55 464.37L169.51 71.31L170.47 72.28L-222.59 465.34ZM-222.59 446.5L-223.55 445.54L169.51 52.48L170.47 53.44L-222.59 446.5ZM-222.59 427.08L-223.55 426.11L169.51 33.05L170.47 34.01L-222.59 427.08ZM-222.59 406.95L-223.55 405.98L169.51 12.92L170.47 13.88L-222.59 406.95Z" id="aNgK0ddqf"></path><path d="M650.79 654.94L649.82 653.97L1042.89 260.91L1043.85 261.88L650.79 654.94ZM650.79 635.97L649.82 635.01L1042.89 241.94L1043.85 242.91L650.79 635.97ZM650.79 617.13L649.82 616.17L1042.89 223.11L1043.85 224.07L650.79 617.13ZM650.79 597.71L649.82 596.74L1042.89 203.68L1043.85 204.65L650.79 597.71ZM650.79 577.58L649.82 576.61L1042.89 183.55L1043.85 184.52L650.79 577.58Z" id="bvDAVVxM5"></path><path d="M366.82 515.56C366.82 576.27 317.53 625.56 256.82 625.56C196.1 625.56 146.82 576.27 146.82 515.56C146.82 454.85 196.1 405.56 256.82 405.56C317.53 405.56 366.82 454.85 366.82 515.56Z" id="ahrrJuH5F"></path><path d="M222.31 682.24L221.34 681.28L614.41 288.22L615.37 289.18L222.31 682.24ZM222.31 663.27L221.34 662.31L614.41 269.25L615.37 270.21L222.31 663.27ZM222.31 644.44L221.34 643.47L614.41 250.41L615.37 251.37L222.31 644.44ZM222.31 625.01L221.34 624.05L614.41 230.98L615.37 231.95L222.31 625.01ZM222.31 604.88L221.34 603.92L614.41 210.85L615.37 211.82L222.31 604.88Z" id="hYz3MOnZA"></path><path d="M1240.12 577.28C1240.12 573.14 1243.48 569.78 1247.62 569.78C1251.76 569.78 1255.12 573.14 1255.12 577.28C1255.12 581.41 1251.76 584.78 1247.62 584.78C1243.48 584.78 1240.12 581.41 1240.12 577.28Z" id="b59inDrF3k"></path><path d="M930.79 518.35C904.41 542.66 863.25 540.97 838.95 514.59C814.64 488.2 816.32 447.05 842.71 422.74C869.09 398.43 910.25 400.12 934.56 426.51C958.86 452.89 957.18 494.05 930.79 518.35Z" id="hbDH9rPc5"></path><path d="M264.32 110.97C264.32 133.04 246.39 150.97 224.32 150.97C202.24 150.97 184.32 133.04 184.32 110.97C184.32 88.89 202.24 70.97 224.32 70.97C246.39 70.97 264.32 88.89 264.32 110.97Z" id="e6AYk0GVws"></path><path d="M780.49 294.47C780.99 300.64 790.16 308.08 792.86 306.86C795.55 305.64 806.88 303.63 789.92 285.41C772.95 267.19 742.95 254.83 724.58 236.77C714.06 226.42 710.39 219.24 713.56 215.22C714.99 213.4 717.15 212.3 719.47 212.21C726.84 211.92 732.54 216.27 736.59 225.27C743.72 241.13 736.63 261.59 744.34 275.81C752.06 290.03 761.73 285.88 771.13 279.26C780.52 272.65 781.19 262.78 777.16 255.93C773.13 249.07 761.99 246.33 755 251.84C750.34 255.51 750.95 261.38 756.85 269.44" id="guyeUpquy"></path><path d="M415.34 368.15C414.01 349.89 410.72 337.71 405.49 331.61C403.07 328.8 399.92 327.76 396.04 328.49C390.22 329.59 386.45 335.27 387.69 341.06C388.97 347 390.92 349.9 393.54 349.78" id="a3odq2y7uh"></path><path d="M-161.07 -42.95L1118.93 -42.95L1118.93 717.05L-161.07 717.05L-161.07 -42.95Z" id="g15nsV1hHB"></path></defs><g><g><g><use xlink:href="#b6ezFoBFg" opacity="1" fill="#8fa6db" fill-opacity="1"></use></g><g><g><use xlink:href="#fclRZmwiz" opacity="1" fill-opacity="0" stroke="#ffffff" stroke-width="2" stroke-opacity="1"></use></g></g><g><g><use xlink:href="#a80O6VU2s4" opacity="1" fill-opacity="0" stroke="#ffffff" stroke-width="2" stroke-opacity="1"></use></g></g><g><use xlink:href="#d4sTdCKpm7" opacity="1" fill="#ffffff" fill-opacity="1"></use></g><g><use xlink:href="#c3tBf3j518" opacity="1" fill="#ffffff" fill-opacity="1"></use></g><g><g><use xlink:href="#io0Ll1x7s" opacity="1" fill-opacity="0" stroke="#ffffff" stroke-width="1" stroke-opacity="1"></use></g></g><g><g><use xlink:href="#aLgWFrvyb" opacity="1" fill-opacity="0" stroke="#ffffff" stroke-width="1" stroke-opacity="1"></use></g></g><g><g><use xlink:href="#g1rqKqPgTN" opacity="1" fill-opacity="0" stroke="#ffffff" stroke-width="1" stroke-opacity="1"></use></g></g><g><g><use xlink:href="#c6XrpmWcYK" opacity="1" fill-opacity="0" stroke="#ffffff" stroke-width="1" stroke-opacity="1"></use></g></g><g><g><use xlink:href="#daZc8zwyg" opacity="1" fill-opacity="0" stroke="#ffffff" stroke-width="1" stroke-opacity="1"></use></g></g><g><g><use xlink:href="#cu5JW8wj9" opacity="1" fill-opacity="0" stroke="#ffffff" stroke-width="1" stroke-opacity="1"></use></g></g><g><g><use xlink:href="#bo94Mhbyk" opacity="1" fill-opacity="0" stroke="#ffffff" stroke-width="2" stroke-opacity="1"></use></g></g><g><g><use xlink:href="#b4tBViEjd" opacity="1" fill-opacity="0" stroke="#ffffff" stroke-width="1" stroke-opacity="1"></use></g></g><g><g><use xlink:href="#c2SBCH1IwP" opacity="1" fill-opacity="0" stroke="#ffffff" stroke-width="1" stroke-opacity="1"></use></g></g><g><g><use xlink:href="#bfBtWBCl9" opacity="1" fill-opacity="0" stroke="#ffffff" stroke-width="1" stroke-opacity="1"></use></g></g><g><g><use xlink:href="#fbi5VRXoK" opacity="1" fill-opacity="0" stroke="#ffffff" stroke-width="1" stroke-opacity="1"></use></g></g><g><g><use xlink:href="#baj9YuVCx" opacity="1" fill-opacity="0" stroke="#ffffff" stroke-width="1" stroke-opacity="1"></use></g></g><g><g><use xlink:href="#al6Lz0KeM" opacity="1" fill-opacity="0" stroke="#ffffff" stroke-width="1" stroke-opacity="1"></use></g></g><g><g><use xlink:href="#dIka2vIj5" opacity="1" fill-opacity="0" stroke="#ffffff" stroke-width="1" stroke-opacity="1"></use></g></g><g><g><use xlink:href="#d2AVEBxky" opacity="1" fill-opacity="0" stroke="#ffffff" stroke-width="1" stroke-opacity="1"></use></g></g><g><g><use xlink:href="#aXey1ypfD" opacity="1" fill-opacity="0" stroke="#ffffff" stroke-width="1" stroke-opacity="1"></use></g></g><g><g><use xlink:href="#c1GxZkZNf" opacity="1" fill-opacity="0" stroke="#ffffff" stroke-width="1" stroke-opacity="1"></use></g></g><g><g><use xlink:href="#i40i2pvskb" opacity="1" fill-opacity="0" stroke="#ffffff" stroke-width="1" stroke-opacity="1"></use></g></g><g><g><use xlink:href="#aATWTCipG" opacity="1" fill-opacity="0" stroke="#ffffff" stroke-width="1" stroke-opacity="1"></use></g></g><g><g><use xlink:href="#f4Q5F49ri" opacity="1" fill-opacity="0" stroke="#ffffff" stroke-width="1" stroke-opacity="1"></use></g></g><g><use xlink:href="#aNgK0ddqf" opacity="1" fill="#ffffff" fill-opacity="1"></use></g><g><use xlink:href="#bvDAVVxM5" opacity="1" fill="#ffffff" fill-opacity="1"></use></g><g><g><use xlink:href="#ahrrJuH5F" opacity="1" fill-opacity="0" stroke="#ffffff" stroke-width="1" stroke-opacity="1"></use></g></g><g><use xlink:href="#hYz3MOnZA" opacity="1" fill="#ffffff" fill-opacity="1"></use></g><g><g><use xlink:href="#b59inDrF3k" opacity="1" fill-opacity="0" stroke="#ffffff" stroke-width="1" stroke-opacity="1"></use></g></g><g><g><use xlink:href="#hbDH9rPc5" opacity="1" fill-opacity="0" stroke="#ffffff" stroke-width="1" stroke-opacity="1"></use></g></g><g><g><use xlink:href="#e6AYk0GVws" opacity="1" fill-opacity="0" stroke="#ffffff" stroke-width="1" stroke-opacity="1"></use></g></g><g><g><use xlink:href="#guyeUpquy" opacity="1" fill-opacity="0" stroke="#ffffff" stroke-width="2" stroke-opacity="1"></use></g></g><g><g><use xlink:href="#a3odq2y7uh" opacity="1" fill-opacity="0" stroke="#ffffff" stroke-width="1" stroke-opacity="1"></use></g></g><g><use xlink:href="#g15nsV1hHB" opacity="0.87" fill="#8fa6db" fill-opacity="1"></use></g></g></g></svg>