<?xml version="1.0" encoding="UTF-8" standalone="no"?>
<!DOCTYPE svg PUBLIC "-//W3C//DTD SVG 1.1//EN" "http://www.w3.org/Graphics/SVG/1.1/DTD/svg11.dtd">
<svg version="1.1" xmlns="http://www.w3.org/2000/svg" xmlns:xlink="http://www.w3.org/1999/xlink" preserveAspectRatio="xMidYMid meet" viewBox="0 0 691 691" width="691" height="691"><defs><path d="M0 0L691 0L691 691L0 691L0 0Z" id="a162Aeljrb"></path><path d="M351.61 92.05L358.07 92.7L364.44 93.61L370.73 94.77L376.93 96.17L383.04 97.81L389.05 99.68L394.96 101.78L400.75 104.1L406.44 106.64L412 109.39L417.44 112.34L422.75 115.5L427.93 118.86L432.97 122.4L437.86 126.14L442.6 130.05L447.19 134.14L451.61 138.4L455.88 142.83L459.97 147.41L463.88 152.16L467.61 157.05L471.16 162.08L474.51 167.26L477.67 172.57L480.63 178.01L483.38 183.58L485.92 189.26L488.24 195.06L490.34 200.97L492.21 206.98L493.85 213.09L495.25 219.29L496.4 225.58L497.31 231.95L497.97 238.4L498.37 244.92L498.5 251.52L498.37 258.11L497.97 264.63L497.31 271.08L496.4 277.45L495.25 283.74L493.85 289.95L492.21 296.05L490.34 302.07L488.24 307.97L485.92 313.77L483.38 319.45L480.63 325.02L477.67 330.46L474.51 335.77L471.16 340.95L467.61 345.98L463.88 350.88L459.97 355.62L455.88 360.2L451.61 364.63L447.19 368.89L442.6 372.98L437.86 376.89L432.97 380.63L427.93 384.17L422.75 387.53L421.06 388.54L421.2 388.64L430.15 396.13L439.02 404.2L447.79 412.8L456.45 421.9L464.99 431.45L473.39 441.42L481.64 451.76L489.71 462.43L497.61 473.4L505.31 484.63L512.8 496.06L520.06 507.67L527.08 519.41L533.85 531.24L540.35 543.12L546.57 555.01L552.49 566.87L558.1 578.67L563.39 590.35L568.33 601.88L572.92 613.22L577.14 624.32L580.98 635.16L584.42 645.68L587.44 655.85L590.04 665.62L592.2 674.97L593.91 683.83L594.97 691L82.03 691L83.09 683.83L84.8 674.97L86.96 665.62L89.56 655.85L92.58 645.68L96.02 635.16L99.86 624.32L104.08 613.22L108.67 601.88L113.61 590.35L118.9 578.67L124.51 566.87L130.43 555.01L136.65 543.12L143.15 531.24L149.92 519.41L156.94 507.67L164.2 496.06L171.69 484.63L179.39 473.4L187.29 462.43L195.36 451.76L203.61 441.42L212.01 431.45L220.55 421.9L229.21 412.8L237.98 404.2L246.85 396.13L255.8 388.64L255.94 388.54L254.25 387.53L249.07 384.17L244.03 380.63L239.14 376.89L234.4 372.98L229.81 368.89L225.39 364.63L221.12 360.2L217.03 355.62L213.12 350.88L209.39 345.98L205.84 340.95L202.49 335.77L199.33 330.46L196.37 325.02L193.62 319.45L191.08 313.77L188.76 307.97L186.66 302.07L184.79 296.05L183.15 289.95L181.75 283.74L180.6 277.45L179.69 271.08L179.03 264.63L178.63 258.11L178.5 251.52L178.63 244.92L179.03 238.4L179.69 231.95L180.6 225.58L181.75 219.29L183.15 213.09L184.79 206.98L186.66 200.97L188.76 195.06L191.08 189.26L193.62 183.58L196.37 178.01L199.33 172.57L202.49 167.26L205.84 162.08L209.39 157.05L213.12 152.16L217.03 147.41L221.12 142.83L225.39 138.4L229.81 134.14L234.4 130.05L239.14 126.14L244.03 122.4L249.07 118.86L254.25 115.5L259.56 112.34L265 109.39L270.56 106.64L276.25 104.1L282.04 101.78L287.95 99.68L293.96 97.81L300.07 96.17L306.27 94.77L312.56 93.61L318.93 92.7L325.39 92.05L331.91 91.65L338.5 91.52L345.09 91.65L351.61 92.05Z" id="b1btggJlUo"></path><path d="M358.61 92.05L365.07 92.7L371.44 93.61L377.73 94.77L383.93 96.17L390.04 97.81L396.05 99.68L401.96 101.78L407.75 104.1L413.44 106.64L419 109.39L424.44 112.34L429.75 115.5L434.93 118.86L439.97 122.4L444.86 126.14L449.6 130.05L454.19 134.14L458.61 138.4L462.88 142.83L466.97 147.41L470.88 152.16L474.61 157.05L478.16 162.08L481.51 167.26L484.67 172.57L487.63 178.01L490.38 183.58L492.92 189.26L495.24 195.06L497.34 200.97L499.21 206.98L500.85 213.09L502.25 219.29L503.4 225.58L504.31 231.95L504.97 238.4L505.37 244.92L505.5 251.52L505.37 258.11L504.97 264.63L504.31 271.08L503.4 277.45L502.25 283.74L500.85 289.95L499.21 296.05L497.34 302.07L495.24 307.97L492.92 313.77L490.38 319.45L487.63 325.02L484.67 330.46L481.51 335.77L478.16 340.95L474.61 345.98L470.88 350.88L466.97 355.62L462.88 360.2L458.61 364.63L454.19 368.89L449.6 372.98L444.86 376.89L439.97 380.63L434.93 384.17L429.75 387.53L428.06 388.54L428.2 388.64L437.15 396.13L446.02 404.2L454.79 412.8L463.45 421.9L471.99 431.45L480.39 441.42L488.64 451.76L496.71 462.43L504.61 473.4L512.31 484.63L519.8 496.06L527.06 507.67L534.08 519.41L540.85 531.24L547.35 543.12L553.57 555.01L559.49 566.87L565.1 578.67L570.39 590.35L575.33 601.88L579.92 613.22L584.14 624.32L587.98 635.16L591.42 645.68L594.44 655.85L597.04 665.62L599.2 674.97L600.91 683.83L601.97 691L89.03 691L90.09 683.83L91.8 674.97L93.96 665.62L96.56 655.85L99.58 645.68L103.02 635.16L106.86 624.32L111.08 613.22L115.67 601.88L120.61 590.35L125.9 578.67L131.51 566.87L137.43 555.01L143.65 543.12L150.15 531.24L156.92 519.41L163.94 507.67L171.2 496.06L178.69 484.63L186.39 473.4L194.29 462.43L202.36 451.76L210.61 441.42L219.01 431.45L227.55 421.9L236.21 412.8L244.98 404.2L253.85 396.13L262.8 388.64L262.94 388.54L261.25 387.53L256.07 384.17L251.03 380.63L246.14 376.89L241.4 372.98L236.81 368.89L232.39 364.63L228.12 360.2L224.03 355.62L220.12 350.88L216.39 345.98L212.84 340.95L209.49 335.77L206.33 330.46L203.37 325.02L200.62 319.45L198.08 313.77L195.76 307.97L193.66 302.07L191.79 296.05L190.15 289.95L188.75 283.74L187.6 277.45L186.69 271.08L186.03 264.63L185.63 258.11L185.5 251.52L185.63 244.92L186.03 238.4L186.69 231.95L187.6 225.58L188.75 219.29L190.15 213.09L191.79 206.98L193.66 200.97L195.76 195.06L198.08 189.26L200.62 183.58L203.37 178.01L206.33 172.57L209.49 167.26L212.84 162.08L216.39 157.05L220.12 152.16L224.03 147.41L228.12 142.83L232.39 138.4L236.81 134.14L241.4 130.05L246.14 126.14L251.03 122.4L256.07 118.86L261.25 115.5L266.56 112.34L272 109.39L277.56 106.64L283.25 104.1L289.04 101.78L294.95 99.68L300.96 97.81L307.07 96.17L313.27 94.77L319.56 93.61L325.93 92.7L332.39 92.05L338.91 91.65L345.5 91.52L352.09 91.65L358.61 92.05Z" id="a2X0THuhtz"></path></defs><g><g><g><use xlink:href="#a162Aeljrb" opacity="1" fill="#3c3c3c" fill-opacity="1"></use></g><g><use xlink:href="#b1btggJlUo" opacity="1" fill="#a7b3ce" fill-opacity="1"></use></g><g><use xlink:href="#a2X0THuhtz" opacity="1" fill="#bccdf5" fill-opacity="1"></use></g></g></g></svg>