<?xml version="1.0" encoding="UTF-8" standalone="no"?>
<!DOCTYPE svg PUBLIC "-//W3C//DTD SVG 1.1//EN" "http://www.w3.org/Graphics/SVG/1.1/DTD/svg11.dtd">
<svg version="1.1" xmlns="http://www.w3.org/2000/svg" xmlns:xlink="http://www.w3.org/1999/xlink" preserveAspectRatio="xMidYMid meet" viewBox="0 0 640 640" width="640" height="640"><defs><path d="M235.31 577.71L235.31 62.29L260 48.16L260 591.84L235.31 577.71ZM88.84 493.88L87.17 492.9L85.53 491.87L83.93 490.81L82.36 489.7L80.82 488.56L79.32 487.38L77.86 486.16L76.43 484.91L75.04 483.63L73.68 482.31L72.36 480.95L71.08 479.57L69.83 478.15L68.63 476.71L67.46 475.23L66.34 473.73L65.25 472.19L64.21 470.63L63.2 469.05L62.24 467.44L61.32 465.8L60.44 464.14L59.61 462.46L58.82 460.76L58.07 459.03L57.37 457.29L56.71 455.53L56.1 453.74L55.54 451.94L55.02 450.13L54.55 448.29L54.12 446.45L53.75 444.58L53.42 442.71L53.14 440.82L52.91 438.92L52.73 437.01L52.6 435.09L52.53 433.16L52.5 431.22L52.5 206.98L52.52 205.13L52.6 203.28L52.72 201.44L52.89 199.61L53.11 197.79L53.38 195.99L53.69 194.19L54.05 192.41L54.46 190.64L54.91 188.89L55.41 187.15L55.95 185.43L56.53 183.72L57.16 182.03L57.83 180.36L58.55 178.71L59.3 177.08L60.1 175.47L60.94 173.88L61.82 172.32L62.74 170.78L63.7 169.26L64.71 167.77L65.74 166.3L66.82 164.86L67.94 163.45L69.09 162.06L70.28 160.71L71.51 159.38L72.77 158.09L74.07 156.83L75.4 155.59L76.77 154.4L78.17 153.23L79.61 152.1L81.08 151.01L82.58 149.95L84.11 148.93L85.68 147.95L87.28 147.01L164.69 102.71L164.69 537.29L88.84 493.88ZM362.13 360.12L360.72 360.26L359.33 360.46L357.95 360.71L356.59 361.02L355.26 361.38L353.94 361.79L352.65 362.24L351.38 362.75L350.14 363.31L348.92 363.91L347.73 364.56L346.57 365.25L345.44 365.98L344.34 366.76L343.26 367.57L342.23 368.43L341.22 369.32L340.26 370.26L339.32 371.22L338.43 372.23L337.57 373.26L336.76 374.34L335.98 375.44L335.25 376.57L334.56 377.73L333.91 378.92L333.31 380.14L332.75 381.38L332.24 382.65L331.79 383.94L331.38 385.26L331.02 386.59L330.71 387.95L330.46 389.33L330.26 390.72L330.12 392.13L330.03 393.56L330 395L330.03 396.44L330.12 397.87L330.26 399.28L330.46 400.67L330.71 402.05L331.02 403.41L331.38 404.74L331.79 406.06L332.24 407.35L332.75 408.62L333.31 409.86L333.91 411.08L334.56 412.27L335.25 413.43L335.98 414.56L336.76 415.66L337.57 416.74L338.43 417.77L339.32 418.78L340.26 419.74L341.22 420.68L342.23 421.57L343.26 422.43L344.34 423.24L345.44 424.02L346.57 424.75L347.73 425.44L348.92 426.09L350.14 426.69L351.38 427.25L352.65 427.76L353.94 428.21L355.26 428.62L356.59 428.98L357.95 429.29L359.33 429.54L360.72 429.74L362.13 429.88L363.56 429.97L365 430L366.44 429.97L367.87 429.88L369.28 429.74L370.67 429.54L372.05 429.29L373.41 428.98L374.74 428.62L376.06 428.21L377.35 427.76L378.62 427.25L379.86 426.69L381.08 426.09L382.27 425.44L383.43 424.75L384.56 424.02L385.66 423.24L386.74 422.43L387.77 421.57L388.78 420.68L389.74 419.74L390.68 418.78L391.57 417.77L392.43 416.74L393.24 415.66L394.02 414.56L394.75 413.43L395.44 412.27L396.09 411.08L396.69 409.86L397.25 408.62L397.76 407.35L398.21 406.06L398.62 404.74L398.98 403.41L399.29 402.05L399.54 400.67L399.74 399.28L399.88 397.87L399.97 396.44L400 395L399.97 393.56L399.88 392.13L399.74 390.72L399.54 389.33L399.29 387.95L398.98 386.59L398.62 385.26L398.21 383.94L397.76 382.65L397.25 381.38L396.69 380.14L396.09 378.92L395.44 377.73L394.75 376.57L394.02 375.44L393.24 374.34L392.43 373.26L391.57 372.23L390.68 371.22L389.74 370.26L388.78 369.32L387.77 368.43L386.74 367.57L385.66 366.76L384.56 365.98L383.43 365.25L382.27 364.56L381.08 363.91L379.86 363.31L378.62 362.75L377.35 362.24L376.06 361.79L374.74 361.38L373.41 361.02L372.05 360.71L370.67 360.46L369.28 360.26L367.87 360.12L366.44 360.03L365 360L363.56 360.03L362.13 360.12ZM362.13 210.12L360.72 210.26L359.33 210.46L357.95 210.71L356.59 211.02L355.26 211.38L353.94 211.79L352.65 212.24L351.38 212.75L350.14 213.31L348.92 213.91L347.73 214.56L346.57 215.25L345.44 215.98L344.34 216.76L343.26 217.57L342.23 218.43L341.22 219.32L340.26 220.26L339.32 221.22L338.43 222.23L337.57 223.26L336.76 224.34L335.98 225.44L335.25 226.57L334.56 227.73L333.91 228.92L333.31 230.14L332.75 231.38L332.24 232.65L331.79 233.94L331.38 235.26L331.02 236.59L330.71 237.95L330.46 239.33L330.26 240.72L330.12 242.13L330.03 243.56L330 245L330.03 246.44L330.12 247.87L330.26 249.28L330.46 250.67L330.71 252.05L331.02 253.41L331.38 254.74L331.79 256.06L332.24 257.35L332.75 258.62L333.31 259.86L333.91 261.08L334.56 262.27L335.25 263.43L335.98 264.56L336.76 265.66L337.57 266.74L338.43 267.77L339.32 268.78L340.26 269.74L341.22 270.68L342.23 271.57L343.26 272.43L344.34 273.24L345.44 274.02L346.57 274.75L347.73 275.44L348.92 276.09L350.14 276.69L351.38 277.25L352.65 277.76L353.94 278.21L355.26 278.62L356.59 278.98L357.95 279.29L359.33 279.54L360.72 279.74L362.13 279.88L363.56 279.97L365 280L366.44 279.97L367.87 279.88L369.28 279.74L370.67 279.54L372.05 279.29L373.41 278.98L374.74 278.62L376.06 278.21L377.35 277.76L378.62 277.25L379.86 276.69L381.08 276.09L382.27 275.44L383.43 274.75L384.56 274.02L385.66 273.24L386.74 272.43L387.77 271.57L388.78 270.68L389.74 269.74L390.68 268.78L391.57 267.77L392.43 266.74L393.24 265.66L394.02 264.56L394.75 263.43L395.44 262.27L396.09 261.08L396.69 259.86L397.25 258.62L397.76 257.35L398.21 256.06L398.62 254.74L398.98 253.41L399.29 252.05L399.54 250.67L399.74 249.28L399.88 247.87L399.97 246.44L400 245L399.97 243.56L399.88 242.13L399.74 240.72L399.54 239.33L399.29 237.95L398.98 236.59L398.62 235.26L398.21 233.94L397.76 232.65L397.25 231.38L396.69 230.14L396.09 228.92L395.44 227.73L394.75 226.57L394.02 225.44L393.24 224.34L392.43 223.26L391.57 222.23L390.68 221.22L389.74 220.26L388.78 219.32L387.77 218.43L386.74 217.57L385.66 216.76L384.56 215.98L383.43 215.25L382.27 214.56L381.08 213.91L379.86 213.31L378.62 212.75L377.35 212.24L376.06 211.79L374.74 211.38L373.41 211.02L372.05 210.71L370.67 210.46L369.28 210.26L367.87 210.12L366.44 210.03L365 210L363.56 210.03L362.13 210.12ZM288.46 32.14L290.23 31.33L292.02 30.58L293.82 29.87L295.63 29.21L297.46 28.6L299.29 28.04L301.14 27.52L303 27.06L304.87 26.65L306.74 26.28L308.62 25.96L310.51 25.69L312.4 25.47L314.3 25.3L316.2 25.18L318.1 25.11L320 25.08L321.9 25.11L323.8 25.18L325.7 25.3L327.6 25.47L329.49 25.69L331.38 25.96L333.26 26.28L335.13 26.65L337 27.06L338.86 27.52L340.71 28.04L342.54 28.6L344.37 29.21L346.18 29.87L347.98 30.58L349.77 31.33L351.54 32.14L353.29 33L355.03 33.9L356.74 34.85L550.73 145.87L552.42 146.87L554.08 147.9L555.7 148.98L557.29 150.1L558.84 151.26L560.36 152.45L561.84 153.68L563.29 154.95L564.7 156.25L566.07 157.58L567.4 158.95L568.7 160.35L569.96 161.79L571.18 163.25L572.36 164.74L573.5 166.27L574.6 167.82L575.65 169.39L576.67 171L577.64 172.63L578.57 174.28L579.46 175.96L580.31 177.66L581.11 179.39L581.86 181.13L582.57 182.9L583.24 184.68L583.86 186.49L584.43 188.31L584.95 190.15L585.43 192L585.86 193.87L586.24 195.76L586.57 197.65L586.85 199.56L587.08 201.49L587.27 203.42L587.4 205.36L587.47 207.32L587.5 209.28L587.5 431.21L587.47 433.15L587.4 435.08L587.27 437L587.09 438.91L586.86 440.81L586.58 442.7L586.25 444.57L585.88 446.44L585.45 448.29L584.98 450.12L584.46 451.94L583.9 453.74L583.29 455.52L582.63 457.28L581.93 459.03L581.18 460.76L580.39 462.46L579.55 464.14L578.68 465.8L577.76 467.44L576.79 469.05L575.79 470.63L574.74 472.19L573.66 473.73L572.53 475.23L571.36 476.71L570.16 478.16L568.92 479.57L567.63 480.96L566.31 482.31L564.96 483.63L563.56 484.92L562.13 486.17L560.67 487.39L559.17 488.57L557.63 489.71L556.06 490.81L554.46 491.88L552.82 492.9L551.15 493.89L356.74 605.15L355.03 606.1L353.29 607L351.54 607.86L349.77 608.67L347.98 609.42L346.18 610.13L344.37 610.79L342.54 611.4L340.71 611.96L338.86 612.48L337 612.94L335.13 613.35L333.26 613.72L331.38 614.04L329.49 614.31L327.6 614.53L325.7 614.7L323.8 614.82L321.9 614.89L320 614.92L318.1 614.89L316.2 614.82L314.3 614.7L312.4 614.53L310.51 614.31L308.62 614.04L306.74 613.72L304.87 613.35L303 612.94L301.14 612.48L299.29 611.96L297.46 611.4L295.63 610.79L293.82 610.13L292.02 609.42L290.23 608.67L288.46 607.86L290 608.56L290 31.44L288.46 32.14Z" id="aYMOTqYtK"></path></defs><g><g><g><use xlink:href="#aYMOTqYtK" opacity="1" fill="#000000" fill-opacity="1"></use></g></g></g></svg>