<?xml version="1.0" encoding="UTF-8" standalone="no"?>
<!DOCTYPE svg PUBLIC "-//W3C//DTD SVG 1.1//EN" "http://www.w3.org/Graphics/SVG/1.1/DTD/svg11.dtd">
<svg version="1.1" xmlns="http://www.w3.org/2000/svg" xmlns:xlink="http://www.w3.org/1999/xlink" preserveAspectRatio="xMidYMid meet" viewBox="0 0 640 640" width="640" height="640"><defs><path d="M296.19 124.28C310.29 118.74 326.27 121.09 338.18 130.46C370.98 156.27 455.89 223.07 490.13 250C498.06 256.24 504.3 264.36 508.3 273.63C514.65 288.36 524.83 311.97 530.49 325.09C536.55 339.15 536.03 355.18 529.06 368.82C513.1 400.06 476.22 472.25 460.26 503.49C453.27 517.16 440.64 527.09 425.71 530.66C380.61 541.43 267.52 568.43 222.09 579.28C209.48 582.29 196.56 575.67 191.63 563.68C180.73 537.21 156.58 478.5 145.68 452C140.07 438.36 137.48 423.67 138.09 408.93C139.95 363.7 144.79 246.6 146.69 200.43C147.14 189.7 153.87 180.25 163.86 176.32C194.88 164.12 266.43 135.98 296.19 124.28Z" id="i1ncuWUTsL"></path><path d="M301.5 122.07C315.6 116.53 331.58 118.88 343.49 128.25C376.3 154.06 461.21 220.86 495.44 247.79C503.37 254.03 509.62 262.15 513.61 271.42C519.96 286.15 530.15 309.76 535.8 322.88C541.86 336.94 541.34 352.97 534.37 366.61C518.41 397.85 481.53 470.04 465.57 501.28C458.58 514.95 445.96 524.88 431.02 528.45C385.92 539.22 272.84 566.22 227.4 577.07C214.8 580.08 201.87 573.46 196.94 561.47C186.05 535 161.9 476.29 150.99 449.79C145.38 436.15 142.79 421.46 143.4 406.72C145.27 361.49 150.1 244.39 152.01 198.22C152.45 187.49 159.18 178.04 169.17 174.11C200.19 161.91 271.75 133.77 301.5 122.07Z" id="b2wTMMp8i"></path><path d="M257.55 540.6L257.39 521.82L389.96 499.44L390.13 518.22L257.55 540.6ZM257.34 516.5L257.17 497.72L389.75 475.34L389.92 494.12L257.34 516.5ZM257.13 492.39L256.96 473.61L389.54 451.23L389.7 470.01L257.13 492.39ZM256.91 468.39L256.75 449.61L389.32 427.23L389.49 446.01L256.91 468.39ZM323.44 50.44L323.47 50.44L323.47 50.49L330.51 50.66L340.08 51.37L349.31 52.54L358.19 54.14L366.71 56.16L374.89 58.59L382.71 61.41L390.2 64.6L397.33 68.15L404.12 72.03L410.57 76.25L416.67 80.76L422.44 85.57L427.86 90.66L432.95 96L437.7 101.59L442.11 107.4L446.18 113.43L449.92 119.65L453.33 126.04L456.4 132.6L459.15 139.3L461.56 146.13L463.64 153.08L465.4 160.12L466.83 167.24L467.93 174.42L468.71 181.66L469.17 188.92L469.3 196.2L469.11 203.48L468.6 210.74L467.78 217.97L466.63 225.15L465.17 232.26L463.39 239.29L461.3 246.22L458.9 253.04L456.18 259.73L453.15 266.27L452.76 267.06L452.37 267.84L451.99 268.6L451.62 269.35L451.26 270.08L450.9 270.8L450.55 271.51L450.2 272.19L449.86 272.87L449.53 273.52L449.21 274.17L448.89 274.79L448.58 275.41L448.28 276L447.98 276.58L447.69 277.15L447.4 277.7L447.12 278.24L446.85 278.76L446.59 279.27L446.33 279.76L446.08 280.24L445.84 280.7L445.6 281.14L445.37 281.57L445.14 281.99L444.93 282.39L444.71 282.77L444.51 283.15L444.31 283.5L444.12 283.84L443.94 284.17L443.76 284.48L443.59 284.77L443.43 285.05L443.27 285.31L443.12 285.56L442.97 285.8L442.84 286.02L442.71 286.22L440.12 290.29L437.58 294.38L435.11 298.51L432.69 302.66L430.33 306.85L428.03 311.06L425.78 315.3L423.6 319.57L421.47 323.86L419.4 328.19L417.4 332.53L415.45 336.9L413.56 341.3L411.73 345.72L409.95 350.16L408.24 354.62L406.59 359.11L405 363.62L403.47 368.14L402 372.69L400.6 377.26L399.25 381.84L397.96 386.45L396.74 391.07L395.58 395.7L394.48 400.36L393.44 405.03L392.46 409.71L391.55 414.41L390.7 419.12L390.11 422.67L256.85 445.17L256.62 442.88L256.09 438.11L255.49 433.35L254.83 428.6L254.1 423.86L253.32 419.14L252.47 414.43L251.55 409.73L250.58 405.04L249.54 400.38L248.44 395.72L247.28 391.08L246.05 386.46L244.77 381.86L243.42 377.28L242.01 372.71L240.54 368.16L239.01 363.63L237.42 359.13L235.77 354.64L234.06 350.18L232.29 345.74L230.46 341.32L228.57 336.92L226.62 332.55L224.61 328.2L222.54 323.88L220.42 319.59L218.23 315.32L215.99 311.08L213.68 306.87L211.32 302.68L208.91 298.53L206.43 294.4L203.9 290.31L201.31 286.24L201.18 286.04L201.04 285.82L200.9 285.58L200.75 285.33L200.59 285.07L200.42 284.79L200.25 284.49L200.08 284.18L199.89 283.86L199.7 283.52L199.5 283.16L199.3 282.79L199.09 282.41L198.87 282.01L198.65 281.59L198.42 281.16L198.18 280.71L197.93 280.25L197.68 279.78L197.43 279.29L197.16 278.78L196.89 278.26L196.61 277.72L196.33 277.17L196.04 276.6L195.74 276.02L195.43 275.42L195.12 274.81L194.81 274.18L194.48 273.54L194.15 272.88L193.81 272.21L193.47 271.52L193.12 270.82L192.76 270.1L192.39 269.37L192.02 268.62L191.64 267.86L191.26 267.08L190.87 266.29L187.84 259.75L185.12 253.06L182.71 246.24L180.62 239.31L178.84 232.28L177.38 225.17L176.76 221.29L208.24 215.46L203.55 184.18L291.07 206.2L255.63 137.97L282.07 126.84L264.17 60.4L269.13 58.61L277.3 56.18L285.83 54.16L294.7 52.56L303.93 51.39L313.51 50.68L320.54 50.51L320.54 50.42L320.57 50.42L322.4 50.47L323.44 50.44Z" id="eFkDj31va"></path><path d="M328.78 49.93L328.78 49.98L335.82 50.15L345.4 50.86L354.63 52.03L363.5 53.63L372.02 55.65L380.2 58.08L388.03 60.9L395.51 64.09L402.65 67.64L409.44 71.52L415.88 75.73L421.99 80.25L427.75 85.06L433.18 90.15L438.26 95.49L443.01 101.08L447.42 106.89L451.49 112.92L455.24 119.13L458.64 125.53L461.72 132.09L464.46 138.79L466.87 145.62L468.96 152.56L470.71 159.6L472.14 166.73L473.25 173.91L474.03 181.14L474.48 188.41L474.61 195.69L474.43 202.97L473.92 210.23L473.09 217.46L471.95 224.64L470.48 231.75L468.71 238.78L466.62 245.71L464.21 252.53L461.49 259.22L458.46 265.76L458.07 266.55L457.69 267.33L457.31 268.09L456.94 268.84L456.57 269.57L456.21 270.29L455.86 270.99L455.52 271.68L455.18 272.35L454.85 273.01L454.52 273.65L454.21 274.28L453.89 274.89L453.59 275.49L453.29 276.07L453 276.64L452.72 277.19L452.44 277.73L452.17 278.25L451.9 278.75L451.65 279.25L451.39 279.72L451.15 280.18L450.91 280.63L450.68 281.06L450.46 281.48L450.24 281.88L450.03 282.26L449.82 282.63L449.63 282.99L449.44 283.33L449.25 283.65L449.08 283.96L448.9 284.26L448.74 284.54L448.58 284.8L448.43 285.05L448.29 285.29L448.15 285.51L448.02 285.71L445.43 289.77L442.9 293.87L440.42 298L438 302.15L435.64 306.34L433.34 310.55L431.1 314.79L428.91 319.06L426.79 323.35L424.72 327.67L422.71 332.02L420.76 336.39L418.87 340.79L417.04 345.2L415.27 349.65L413.56 354.11L411.91 358.6L410.32 363.1L408.79 367.63L407.32 372.18L405.91 376.74L404.56 381.33L403.28 385.93L402.05 390.55L400.89 395.19L399.79 399.84L398.75 404.51L397.78 409.2L396.86 413.9L396.01 418.61L395.42 422.16L262.16 444.66L261.94 442.37L261.4 437.6L260.8 432.84L260.14 428.09L259.42 423.35L258.63 418.63L257.78 413.91L256.87 409.22L255.89 404.53L254.85 399.86L253.75 395.21L252.59 390.57L251.37 385.95L250.08 381.35L248.73 376.76L247.33 372.2L245.86 367.65L244.33 363.12L242.74 358.62L241.09 354.13L239.37 349.67L237.6 345.22L235.77 340.8L233.88 336.41L231.93 332.04L229.92 327.69L227.86 323.37L225.73 319.08L223.54 314.81L221.3 310.57L219 306.35L216.64 302.17L214.22 298.01L211.75 293.89L209.21 289.79L206.62 285.73L206.49 285.52L206.35 285.31L206.21 285.07L206.06 284.82L205.9 284.56L205.74 284.28L205.57 283.98L205.39 283.67L205.21 283.35L205.02 283.01L204.82 282.65L204.61 282.28L204.4 281.9L204.19 281.49L203.96 281.08L203.73 280.65L203.49 280.2L203.25 279.74L203 279.27L202.74 278.77L202.48 278.27L202.2 277.75L201.93 277.21L201.64 276.66L201.35 276.09L201.05 275.51L200.75 274.91L200.44 274.3L200.12 273.67L199.8 273.03L199.46 272.37L199.13 271.7L198.78 271.01L198.43 270.31L198.07 269.59L197.71 268.86L197.34 268.11L196.96 267.35L196.57 266.57L196.18 265.77L193.15 259.23L190.43 252.55L188.03 245.73L185.94 238.8L184.16 231.77L182.7 224.65L182.08 220.78L213.56 214.94L208.86 183.67L296.39 205.68L260.95 137.46L287.38 126.33L269.49 59.88L274.44 58.1L282.62 55.67L291.14 53.65L300.02 52.04L309.24 50.88L318.82 50.17L325.86 50L325.86 49.91L325.89 49.91L327.71 49.95L328.75 49.93L328.75 49.93L328.78 49.93Z" id="nCqcKIkb"></path><path d="M262.7 521.31L395.28 498.93L395.44 517.71L262.87 540.09L262.87 540.09L262.7 521.31ZM262.49 497.21L395.06 474.83L395.23 493.6L262.65 515.98L262.65 515.98L262.49 497.21ZM262.27 473.1L394.85 450.72L395.02 469.5L262.44 491.88L262.44 491.88L262.27 473.1ZM262.06 449.1L394.64 426.72L394.8 445.5L262.23 467.88L262.23 467.88L262.06 449.1Z" id="dpMjHeOeB"></path><path d="M365.84 70.23L373.67 73.05L381.15 76.24L388.28 79.79L395.07 83.67L401.52 87.89L407.63 92.4L413.39 97.21L418.82 102.3L423.9 107.64L428.65 113.23L433.06 119.04L437.13 125.07L440.87 131.29L444.28 137.68L447.35 144.24L450.1 150.94L452.51 157.77L454.6 164.72L456.35 171.76L457.78 178.88L457.88 179.51L442.39 179.51L442 177.97L439.92 171.03L437.51 164.2L434.76 157.5L431.69 150.94L428.28 144.54L424.54 138.33L420.47 132.3L416.06 126.49L411.31 120.9L406.22 115.56L400.8 110.47L395.04 105.66L388.93 101.14L382.48 96.93L375.69 93.05L368.56 89.5L361.08 86.31L353.25 83.49L350.44 82.66L350.44 66.09L357.66 67.8L365.84 70.23Z" id="ahA3Ue2gY"></path><path d="M212.58 477.39C229.32 506.36 265.44 517.7 295.73 503.5C318.51 492.81 347.02 479.44 373.23 467.15C396.76 456.11 423.38 453.53 448.58 459.85C451.49 460.58 442.82 458.41 451.13 460.49C456.75 461.9 459.04 468.65 455.44 473.19C447.7 482.95 435.81 497.94 428.98 506.55C421.04 516.56 409.99 523.62 397.57 526.63C362.26 535.17 275.37 556.2 240.04 564.75C229.39 567.32 218.62 561.05 215.6 550.52C207.9 523.6 188.32 455.23 180.15 426.7C179.71 425.13 181.86 424.22 182.67 425.63C194.57 446.22 205.48 465.1 212.58 477.39Z" id="e475HWa95Q"></path></defs><g><g><g><use xlink:href="#i1ncuWUTsL" opacity="1" fill="#cbd0e3" fill-opacity="1"></use></g><g><use xlink:href="#b2wTMMp8i" opacity="1" fill="#edf1ff" fill-opacity="1"></use></g><g><use xlink:href="#eFkDj31va" opacity="1" fill="#b8bbc7" fill-opacity="1"></use></g><g><use xlink:href="#nCqcKIkb" opacity="1" fill="#d2def9" fill-opacity="1"></use></g><g><use xlink:href="#dpMjHeOeB" opacity="1" fill="#757575" fill-opacity="1"></use></g><g><use xlink:href="#ahA3Ue2gY" opacity="1" fill="#ffffff" fill-opacity="1"></use></g><g><use xlink:href="#e475HWa95Q" opacity="1" fill="#edf1ff" fill-opacity="1"></use></g></g></g></svg>