<?xml version="1.0" encoding="UTF-8" standalone="no"?>
<!DOCTYPE svg PUBLIC "-//W3C//DTD SVG 1.1//EN" "http://www.w3.org/Graphics/SVG/1.1/DTD/svg11.dtd">
<svg version="1.1" xmlns="http://www.w3.org/2000/svg" xmlns:xlink="http://www.w3.org/1999/xlink" preserveAspectRatio="xMidYMid meet" viewBox="0 0 640 640" width="640" height="640"><defs><path d="M301.5 122.07C315.6 116.53 331.58 118.88 343.49 128.25C376.3 154.06 461.21 220.86 495.44 247.79C503.37 254.03 509.62 262.15 513.61 271.42C519.96 286.15 530.15 309.76 535.8 322.88C541.86 336.94 541.34 352.97 534.37 366.61C518.41 397.85 481.53 470.04 465.57 501.28C458.58 514.95 445.96 524.88 431.02 528.45C385.92 539.22 272.84 566.22 227.4 577.07C214.8 580.08 201.87 573.46 196.94 561.47C186.05 535 161.9 476.29 150.99 449.79C145.38 436.15 142.79 421.46 143.4 406.72C145.27 361.49 150.1 244.39 152.01 198.22C152.45 187.49 159.18 178.04 169.17 174.11C200.19 161.91 271.75 133.77 301.5 122.07Z" id="b2wTMMp8i"></path><path d="M328.78 49.93L328.78 49.98L335.82 50.15L345.4 50.86L354.63 52.03L363.5 53.63L372.02 55.65L380.2 58.08L388.03 60.9L395.51 64.09L402.65 67.64L409.44 71.52L415.88 75.73L421.99 80.25L427.75 85.06L433.18 90.15L438.26 95.49L443.01 101.08L447.42 106.89L451.49 112.92L455.24 119.13L458.64 125.53L461.72 132.09L464.46 138.79L466.87 145.62L468.96 152.56L470.71 159.6L472.14 166.73L473.25 173.91L474.03 181.14L474.48 188.41L474.61 195.69L474.43 202.97L473.92 210.23L473.09 217.46L471.95 224.64L470.48 231.75L468.71 238.78L466.62 245.71L464.21 252.53L461.49 259.22L458.46 265.76L458.07 266.55L457.69 267.33L457.31 268.09L456.94 268.84L456.57 269.57L456.21 270.29L455.86 270.99L455.52 271.68L455.18 272.35L454.85 273.01L454.52 273.65L454.21 274.28L453.89 274.89L453.59 275.49L453.29 276.07L453 276.64L452.72 277.19L452.44 277.73L452.17 278.25L451.9 278.75L451.65 279.25L451.39 279.72L451.15 280.18L450.91 280.63L450.68 281.06L450.46 281.48L450.24 281.88L450.03 282.26L449.82 282.63L449.63 282.99L449.44 283.33L449.25 283.65L449.08 283.96L448.9 284.26L448.74 284.54L448.58 284.8L448.43 285.05L448.29 285.29L448.15 285.51L448.02 285.71L445.43 289.77L442.9 293.87L440.42 298L438 302.15L435.64 306.34L433.34 310.55L431.1 314.79L428.91 319.06L426.79 323.35L424.72 327.67L422.71 332.02L420.76 336.39L418.87 340.79L417.04 345.2L415.27 349.65L413.56 354.11L411.91 358.6L410.32 363.1L408.79 367.63L407.32 372.18L405.91 376.74L404.56 381.33L403.28 385.93L402.05 390.55L400.89 395.19L399.79 399.84L398.75 404.51L397.78 409.2L396.86 413.9L396.01 418.61L395.42 422.16L262.16 444.66L261.94 442.37L261.4 437.6L260.8 432.84L260.14 428.09L259.42 423.35L258.63 418.63L257.78 413.91L256.87 409.22L255.89 404.53L254.85 399.86L253.75 395.21L252.59 390.57L251.37 385.95L250.08 381.35L248.73 376.76L247.33 372.2L245.86 367.65L244.33 363.12L242.74 358.62L241.09 354.13L239.37 349.67L237.6 345.22L235.77 340.8L233.88 336.41L231.93 332.04L229.92 327.69L227.86 323.37L225.73 319.08L223.54 314.81L221.3 310.57L219 306.35L216.64 302.17L214.22 298.01L211.75 293.89L209.21 289.79L206.62 285.73L206.49 285.52L206.35 285.31L206.21 285.07L206.06 284.82L205.9 284.56L205.74 284.28L205.57 283.98L205.39 283.67L205.21 283.35L205.02 283.01L204.82 282.65L204.61 282.28L204.4 281.9L204.19 281.49L203.96 281.08L203.73 280.65L203.49 280.2L203.25 279.74L203 279.27L202.74 278.77L202.48 278.27L202.2 277.75L201.93 277.21L201.64 276.66L201.35 276.09L201.05 275.51L200.75 274.91L200.44 274.3L200.12 273.67L199.8 273.03L199.46 272.37L199.13 271.7L198.78 271.01L198.43 270.31L198.07 269.59L197.71 268.86L197.34 268.11L196.96 267.35L196.57 266.57L196.18 265.77L193.15 259.23L190.43 252.55L188.03 245.73L185.94 238.8L184.16 231.77L182.7 224.65L182.08 220.78L213.56 214.94L208.86 183.67L296.39 205.68L260.95 137.46L287.38 126.33L269.49 59.88L274.44 58.1L282.62 55.67L291.14 53.65L300.02 52.04L309.24 50.88L318.82 50.17L325.86 50L325.86 49.91L325.89 49.91L327.71 49.95L328.75 49.93L328.75 49.93L328.78 49.93Z" id="aZ6IdZJu3"></path><path d="M262.7 521.31L395.28 498.93L395.44 517.71L262.87 540.09L262.87 540.09L262.7 521.31ZM262.49 497.21L395.06 474.83L395.23 493.6L262.65 515.98L262.65 515.98L262.49 497.21ZM262.27 473.1L394.85 450.72L395.02 469.5L262.44 491.88L262.44 491.88L262.27 473.1ZM262.06 449.1L394.64 426.72L394.8 445.5L262.23 467.88L262.23 467.88L262.06 449.1Z" id="dpMjHeOeB"></path><path d="M365.84 70.23L373.67 73.05L381.15 76.24L388.28 79.79L395.07 83.67L401.52 87.89L407.63 92.4L413.39 97.21L418.82 102.3L423.9 107.64L428.65 113.23L433.06 119.04L437.13 125.07L440.87 131.29L444.28 137.68L447.35 144.24L450.1 150.94L452.51 157.77L454.6 164.72L456.35 171.76L457.78 178.88L457.88 179.51L442.39 179.51L442 177.97L439.92 171.03L437.51 164.2L434.76 157.5L431.69 150.94L428.28 144.54L424.54 138.33L420.47 132.3L416.06 126.49L411.31 120.9L406.22 115.56L400.8 110.47L395.04 105.66L388.93 101.14L382.48 96.93L375.69 93.05L368.56 89.5L361.08 86.31L353.25 83.49L350.44 82.66L350.44 66.09L357.66 67.8L365.84 70.23Z" id="ahA3Ue2gY"></path><path d="M212.58 477.39C229.32 506.36 265.44 517.7 295.73 503.5C318.51 492.81 347.02 479.44 373.23 467.15C396.76 456.11 423.38 453.53 448.58 459.85C451.49 460.58 442.82 458.41 451.13 460.49C456.75 461.9 459.04 468.65 455.44 473.19C447.7 482.95 435.81 497.94 428.98 506.55C421.04 516.56 409.99 523.62 397.57 526.63C362.26 535.17 275.37 556.2 240.04 564.75C229.39 567.32 218.62 561.05 215.6 550.52C207.9 523.6 188.32 455.23 180.15 426.7C179.71 425.13 181.86 424.22 182.67 425.63C194.57 446.22 205.48 465.1 212.58 477.39Z" id="e475HWa95Q"></path></defs><g><g><g><use xlink:href="#b2wTMMp8i" opacity="1" fill="#edf1ff" fill-opacity="1"></use></g><g><use xlink:href="#aZ6IdZJu3" opacity="1" fill="#a6bdf2" fill-opacity="1"></use></g><g><use xlink:href="#dpMjHeOeB" opacity="1" fill="#757575" fill-opacity="1"></use></g><g><use xlink:href="#ahA3Ue2gY" opacity="1" fill="#ffffff" fill-opacity="1"></use></g><g><use xlink:href="#e475HWa95Q" opacity="1" fill="#edf1ff" fill-opacity="1"></use></g></g></g></svg>