<?xml version="1.0" encoding="UTF-8" standalone="no"?>
<!DOCTYPE svg PUBLIC "-//W3C//DTD SVG 1.1//EN" "http://www.w3.org/Graphics/SVG/1.1/DTD/svg11.dtd">
<svg version="1.1" xmlns="http://www.w3.org/2000/svg" xmlns:xlink="http://www.w3.org/1999/xlink" preserveAspectRatio="xMidYMid meet" viewBox="0 0 640 640" width="640" height="640"><defs><path d="M298.19 124.28C312.29 118.74 328.27 121.09 340.18 130.46C372.98 156.27 457.89 223.07 492.13 250C500.06 256.24 506.3 264.36 510.3 273.63C516.65 288.36 526.83 311.97 532.49 325.09C538.55 339.15 538.03 355.18 531.06 368.82C515.1 400.06 478.22 472.25 462.26 503.49C455.27 517.16 442.64 527.09 427.71 530.66C382.61 541.43 269.52 568.43 224.09 579.28C211.48 582.29 198.56 575.67 193.63 563.68C182.73 537.21 158.58 478.5 147.68 452C142.07 438.36 139.48 423.67 140.09 408.93C141.95 363.7 146.79 246.6 148.69 200.43C149.14 189.7 155.87 180.25 165.86 176.32C196.88 164.12 268.43 135.98 298.19 124.28Z" id="c5HYDh8oq"></path><path d="M301.5 122.07C315.6 116.53 331.58 118.88 343.49 128.25C376.3 154.06 461.21 220.86 495.44 247.79C503.37 254.03 509.62 262.15 513.61 271.42C519.96 286.15 530.15 309.76 535.8 322.88C541.86 336.94 541.34 352.97 534.37 366.61C518.41 397.85 481.53 470.04 465.57 501.28C458.58 514.95 445.96 524.88 431.02 528.45C385.92 539.22 272.84 566.22 227.4 577.07C214.8 580.08 201.87 573.46 196.94 561.47C186.05 535 161.9 476.29 150.99 449.79C145.38 436.15 142.79 421.46 143.4 406.72C145.27 361.49 150.1 244.39 152.01 198.22C152.45 187.49 159.18 178.04 169.17 174.11C200.19 161.91 271.75 133.77 301.5 122.07Z" id="b2wTMMp8i"></path><path d="M259.55 540.6L259.39 521.82L391.96 499.44L392.13 518.22L259.55 540.6ZM259.34 516.5L259.17 497.72L391.75 475.34L391.92 494.12L259.34 516.5ZM259.13 492.39L258.96 473.61L391.54 451.23L391.7 470.01L259.13 492.39ZM258.91 468.39L258.75 449.61L391.32 427.23L391.49 446.01L258.91 468.39ZM325.44 50.44L325.47 50.44L325.47 50.49L332.51 50.66L342.08 51.37L351.31 52.54L360.19 54.14L368.71 56.16L376.89 58.59L384.71 61.41L392.2 64.6L399.33 68.15L406.12 72.03L412.57 76.25L418.67 80.76L424.44 85.57L429.86 90.66L434.95 96L439.7 101.59L444.11 107.4L448.18 113.43L451.92 119.65L455.33 126.04L458.4 132.6L461.15 139.3L463.56 146.13L465.64 153.08L467.4 160.12L468.83 167.24L469.93 174.42L470.71 181.66L471.17 188.92L471.3 196.2L471.11 203.48L470.6 210.74L469.78 217.97L468.63 225.15L467.17 232.26L465.39 239.29L463.3 246.22L460.9 253.04L458.18 259.73L455.15 266.27L454.76 267.06L454.37 267.84L453.99 268.6L453.62 269.35L453.26 270.08L452.9 270.8L452.55 271.51L452.2 272.19L451.86 272.87L451.53 273.52L451.21 274.17L450.89 274.79L450.58 275.41L450.28 276L449.98 276.58L449.69 277.15L449.4 277.7L449.12 278.24L448.85 278.76L448.59 279.27L448.33 279.76L448.08 280.24L447.84 280.7L447.6 281.14L447.37 281.57L447.14 281.99L446.93 282.39L446.71 282.77L446.51 283.15L446.31 283.5L446.12 283.84L445.94 284.17L445.76 284.48L445.59 284.77L445.43 285.05L445.27 285.31L445.12 285.56L444.97 285.8L444.84 286.02L444.71 286.22L442.12 290.29L439.58 294.38L437.11 298.51L434.69 302.66L432.33 306.85L430.03 311.06L427.78 315.3L425.6 319.57L423.47 323.86L421.4 328.19L419.4 332.53L417.45 336.9L415.56 341.3L413.73 345.72L411.95 350.16L410.24 354.62L408.59 359.11L407 363.62L405.47 368.14L404 372.69L402.6 377.26L401.25 381.84L399.96 386.45L398.74 391.07L397.58 395.7L396.48 400.36L395.44 405.03L394.46 409.71L393.55 414.41L392.7 419.12L392.11 422.67L258.85 445.17L258.62 442.88L258.09 438.11L257.49 433.35L256.83 428.6L256.1 423.86L255.32 419.14L254.47 414.43L253.55 409.73L252.58 405.04L251.54 400.38L250.44 395.72L249.28 391.08L248.05 386.46L246.77 381.86L245.42 377.28L244.01 372.71L242.54 368.16L241.01 363.63L239.42 359.13L237.77 354.64L236.06 350.18L234.29 345.74L232.46 341.32L230.57 336.92L228.62 332.55L226.61 328.2L224.54 323.88L222.42 319.59L220.23 315.32L217.99 311.08L215.68 306.87L213.32 302.68L210.91 298.53L208.43 294.4L205.9 290.31L203.31 286.24L203.18 286.04L203.04 285.82L202.9 285.58L202.75 285.33L202.59 285.07L202.42 284.79L202.25 284.49L202.08 284.18L201.89 283.86L201.7 283.52L201.5 283.16L201.3 282.79L201.09 282.41L200.87 282.01L200.65 281.59L200.42 281.16L200.18 280.71L199.93 280.25L199.68 279.78L199.43 279.29L199.16 278.78L198.89 278.26L198.61 277.72L198.33 277.17L198.04 276.6L197.74 276.02L197.43 275.42L197.12 274.81L196.81 274.18L196.48 273.54L196.15 272.88L195.81 272.21L195.47 271.52L195.12 270.82L194.76 270.1L194.39 269.37L194.02 268.62L193.64 267.86L193.26 267.08L192.87 266.29L189.84 259.75L187.12 253.06L184.71 246.24L182.62 239.31L180.84 232.28L179.38 225.17L178.76 221.29L210.24 215.46L205.55 184.18L293.07 206.2L257.63 137.97L284.07 126.84L266.17 60.4L271.13 58.61L279.3 56.18L287.83 54.16L296.7 52.56L305.93 51.39L315.51 50.68L322.54 50.51L322.54 50.42L322.57 50.42L324.4 50.47L325.44 50.44Z" id="agR0ZfOhy"></path><path d="M328.78 49.93L328.78 49.98L335.82 50.15L345.4 50.86L354.63 52.03L363.5 53.63L372.02 55.65L380.2 58.08L388.03 60.9L395.51 64.09L402.65 67.64L409.44 71.52L415.88 75.73L421.99 80.25L427.75 85.06L433.18 90.15L438.26 95.49L443.01 101.08L447.42 106.89L451.49 112.92L455.24 119.13L458.64 125.53L461.72 132.09L464.46 138.79L466.87 145.62L468.96 152.56L470.71 159.6L472.14 166.73L473.25 173.91L474.03 181.14L474.48 188.41L474.61 195.69L474.43 202.97L473.92 210.23L473.09 217.46L471.95 224.64L470.48 231.75L468.71 238.78L466.62 245.71L464.21 252.53L461.49 259.22L458.46 265.76L458.07 266.55L457.69 267.33L457.31 268.09L456.94 268.84L456.57 269.57L456.21 270.29L455.86 270.99L455.52 271.68L455.18 272.35L454.85 273.01L454.52 273.65L454.21 274.28L453.89 274.89L453.59 275.49L453.29 276.07L453 276.64L452.72 277.19L452.44 277.73L452.17 278.25L451.9 278.75L451.65 279.25L451.39 279.72L451.15 280.18L450.91 280.63L450.68 281.06L450.46 281.48L450.24 281.88L450.03 282.26L449.82 282.63L449.63 282.99L449.44 283.33L449.25 283.65L449.08 283.96L448.9 284.26L448.74 284.54L448.58 284.8L448.43 285.05L448.29 285.29L448.15 285.51L448.02 285.71L445.43 289.77L442.9 293.87L440.42 298L438 302.15L435.64 306.34L433.34 310.55L431.1 314.79L428.91 319.06L426.79 323.35L424.72 327.67L422.71 332.02L420.76 336.39L418.87 340.79L417.04 345.2L415.27 349.65L413.56 354.11L411.91 358.6L410.32 363.1L408.79 367.63L407.32 372.18L405.91 376.74L404.56 381.33L403.28 385.93L402.05 390.55L400.89 395.19L399.79 399.84L398.75 404.51L397.78 409.2L396.86 413.9L396.01 418.61L395.42 422.16L262.16 444.66L261.94 442.37L261.4 437.6L260.8 432.84L260.14 428.09L259.42 423.35L258.63 418.63L257.78 413.91L256.87 409.22L255.89 404.53L254.85 399.86L253.75 395.21L252.59 390.57L251.37 385.95L250.08 381.35L248.73 376.76L247.33 372.2L245.86 367.65L244.33 363.12L242.74 358.62L241.09 354.13L239.37 349.67L237.6 345.22L235.77 340.8L233.88 336.41L231.93 332.04L229.92 327.69L227.86 323.37L225.73 319.08L223.54 314.81L221.3 310.57L219 306.35L216.64 302.17L214.22 298.01L211.75 293.89L209.21 289.79L206.62 285.73L206.49 285.52L206.35 285.31L206.21 285.07L206.06 284.82L205.9 284.56L205.74 284.28L205.57 283.98L205.39 283.67L205.21 283.35L205.02 283.01L204.82 282.65L204.61 282.28L204.4 281.9L204.19 281.49L203.96 281.08L203.73 280.65L203.49 280.2L203.25 279.74L203 279.27L202.74 278.77L202.48 278.27L202.2 277.75L201.93 277.21L201.64 276.66L201.35 276.09L201.05 275.51L200.75 274.91L200.44 274.3L200.12 273.67L199.8 273.03L199.46 272.37L199.13 271.7L198.78 271.01L198.43 270.31L198.07 269.59L197.71 268.86L197.34 268.11L196.96 267.35L196.57 266.57L196.18 265.77L193.15 259.23L190.43 252.55L188.03 245.73L185.94 238.8L184.16 231.77L182.7 224.65L182.08 220.78L213.56 214.94L208.86 183.67L296.39 205.68L260.95 137.46L287.38 126.33L269.49 59.88L274.44 58.1L282.62 55.67L291.14 53.65L300.02 52.04L309.24 50.88L318.82 50.17L325.86 50L325.86 49.91L325.89 49.91L327.71 49.95L328.75 49.93L328.75 49.93L328.78 49.93Z" id="aZ6IdZJu3"></path><path d="M262.7 521.31L395.28 498.93L395.44 517.71L262.87 540.09L262.87 540.09L262.7 521.31ZM262.49 497.21L395.06 474.83L395.23 493.6L262.65 515.98L262.65 515.98L262.49 497.21ZM262.27 473.1L394.85 450.72L395.02 469.5L262.44 491.88L262.44 491.88L262.27 473.1ZM262.06 449.1L394.64 426.72L394.8 445.5L262.23 467.88L262.23 467.88L262.06 449.1Z" id="dpMjHeOeB"></path><path d="M365.84 70.23L373.67 73.05L381.15 76.24L388.28 79.79L395.07 83.67L401.52 87.89L407.63 92.4L413.39 97.21L418.82 102.3L423.9 107.64L428.65 113.23L433.06 119.04L437.13 125.07L440.87 131.29L444.28 137.68L447.35 144.24L450.1 150.94L452.51 157.77L454.6 164.72L456.35 171.76L457.78 178.88L457.88 179.51L442.39 179.51L442 177.97L439.92 171.03L437.51 164.2L434.76 157.5L431.69 150.94L428.28 144.54L424.54 138.33L420.47 132.3L416.06 126.49L411.31 120.9L406.22 115.56L400.8 110.47L395.04 105.66L388.93 101.14L382.48 96.93L375.69 93.05L368.56 89.5L361.08 86.31L353.25 83.49L350.44 82.66L350.44 66.09L357.66 67.8L365.84 70.23Z" id="ahA3Ue2gY"></path><path d="M212.58 477.39C229.32 506.36 265.44 517.7 295.73 503.5C318.51 492.81 347.02 479.44 373.23 467.15C396.76 456.11 423.38 453.53 448.58 459.85C451.49 460.58 442.82 458.41 451.13 460.49C456.75 461.9 459.04 468.65 455.44 473.19C447.7 482.95 435.81 497.94 428.98 506.55C421.04 516.56 409.99 523.62 397.57 526.63C362.26 535.17 275.37 556.2 240.04 564.75C229.39 567.32 218.62 561.05 215.6 550.52C207.9 523.6 188.32 455.23 180.15 426.7C179.71 425.13 181.86 424.22 182.67 425.63C194.57 446.22 205.48 465.1 212.58 477.39Z" id="e475HWa95Q"></path></defs><g><g><g><use xlink:href="#c5HYDh8oq" opacity="1" fill="#cbd0e3" fill-opacity="1"></use></g><g><use xlink:href="#b2wTMMp8i" opacity="1" fill="#edf1ff" fill-opacity="1"></use></g><g><use xlink:href="#agR0ZfOhy" opacity="1" fill="#a3a7b7" fill-opacity="1"></use></g><g><use xlink:href="#aZ6IdZJu3" opacity="1" fill="#a6bdf2" fill-opacity="1"></use></g><g><use xlink:href="#dpMjHeOeB" opacity="1" fill="#757575" fill-opacity="1"></use></g><g><use xlink:href="#ahA3Ue2gY" opacity="1" fill="#ffffff" fill-opacity="1"></use></g><g><use xlink:href="#e475HWa95Q" opacity="1" fill="#edf1ff" fill-opacity="1"></use></g></g></g></svg>