<?xml version="1.0" encoding="UTF-8" standalone="no"?>
<!DOCTYPE svg PUBLIC "-//W3C//DTD SVG 1.1//EN" "http://www.w3.org/Graphics/SVG/1.1/DTD/svg11.dtd">
<svg version="1.1" xmlns="http://www.w3.org/2000/svg" xmlns:xlink="http://www.w3.org/1999/xlink" preserveAspectRatio="xMidYMid meet" viewBox="0 0 691 691" width="691" height="691"><defs><path d="M345.5 0C154.69 0 0 154.69 0 345.5C0 536.31 154.69 691 345.5 691C536.31 691 691 536.31 691 345.5C691 154.69 536.31 0 345.5 0Z" id="g302RJW5if"></path><path d="M223.58 298.73C217.14 309.34 215.98 326.73 216.2 334.1C216.2 346 216.2 441.22 216.2 453.13C221.03 483.6 242.37 489.86 252.43 489.18C272.25 489.18 430.79 489.18 450.61 489.18C472.34 482.1 474.82 460.84 475.82 451.09C475.82 439.01 475.82 342.43 475.82 330.36C475.02 315.94 470.34 303.26 468.11 298.73C444.49 307.71 422.71 294.99 414.78 287.51C386.33 312.54 356.63 297.94 345.34 287.51C315.02 313.63 286.87 298.39 276.58 287.51C257.26 306.01 233.2 302.7 223.58 298.73Z" id="d215uFXSC3"></path><path d="M421.77 165C406.61 165 285.39 165 270.24 165C258.28 165 248.59 177.21 248.59 192.26C248.59 194.24 248.59 204.14 248.59 221.97L443.41 221.97L443.41 192.26C436.95 174.09 429.74 165 421.77 165Z" id="a1YFwdHiBi"></path><path d="M443.41 206.3L248.59 206.3C226.47 224.2 214.19 234.15 211.73 236.14C208.7 238.59 207.32 243.26 208.33 247.61C209.34 251.97 212.52 254.96 216.12 254.96C221.77 254.96 224.19 256.98 227.84 260.05C232.37 263.85 238 268.58 248.58 268.58C259.15 268.58 264.78 263.85 269.31 260.05C272.96 256.98 275.38 254.96 281.03 254.96C286.69 254.96 289.1 256.98 292.76 260.05C297.29 263.85 302.92 268.58 313.49 268.58C324.07 268.58 329.7 263.85 334.23 260.05C337.88 256.98 340.3 254.96 345.96 254.96C351.61 254.96 354.02 256.98 357.68 260.05C362.2 263.85 367.84 268.58 378.41 268.58C388.98 268.58 394.62 263.86 399.15 260.05C402.81 256.98 405.22 254.96 410.88 254.96C416.55 254.96 418.97 256.99 422.63 260.06C427.16 263.86 432.8 268.58 443.38 268.58C453.96 268.58 459.6 263.86 464.13 260.06C467.79 256.99 470.21 254.96 475.88 254.96C479.48 254.96 482.66 251.97 483.67 247.61C484.69 243.26 483.3 238.59 480.27 236.14C475.36 232.16 463.07 222.21 443.41 206.3Z" id="a1LQcSk7cA"></path></defs><g><g><g><use xlink:href="#g302RJW5if" opacity="1" fill="#4d7ae6" fill-opacity="1"></use><g><use xlink:href="#g302RJW5if" opacity="1" fill-opacity="0" stroke="#000000" stroke-width="1" stroke-opacity="0"></use></g></g><g><use xlink:href="#d215uFXSC3" opacity="1" fill="#ffffff" fill-opacity="1"></use><g><use xlink:href="#d215uFXSC3" opacity="1" fill-opacity="0" stroke="#000000" stroke-width="1" stroke-opacity="0"></use></g></g><g><use xlink:href="#a1YFwdHiBi" opacity="1" fill="#ffffff" fill-opacity="1"></use><g><use xlink:href="#a1YFwdHiBi" opacity="1" fill-opacity="0" stroke="#000000" stroke-width="1" stroke-opacity="0"></use></g></g><g><use xlink:href="#a1LQcSk7cA" opacity="1" fill="#ffffff" fill-opacity="1"></use><g><use xlink:href="#a1LQcSk7cA" opacity="1" fill-opacity="0" stroke="#000000" stroke-width="1" stroke-opacity="0"></use></g></g></g></g></svg>