<?xml version="1.0" encoding="UTF-8" standalone="no"?>
<!DOCTYPE svg PUBLIC "-//W3C//DTD SVG 1.1//EN" "http://www.w3.org/Graphics/SVG/1.1/DTD/svg11.dtd">
<svg version="1.1" xmlns="http://www.w3.org/2000/svg" xmlns:xlink="http://www.w3.org/1999/xlink" preserveAspectRatio="xMidYMid meet" viewBox="0 0 640 640" width="640" height="640"><defs><path d="M1000.18 -0.86C1032.98 24.95 1117.89 91.75 1152.13 118.68C1160.06 124.92 1166.3 133.04 1170.3 142.31C1176.65 157.04 1186.83 180.65 1192.49 193.77C1198.55 207.83 1198.03 223.86 1191.06 237.5C1175.1 268.74 1138.22 340.93 1122.26 372.17C1115.27 385.84 1102.64 395.77 1087.71 399.34C1042.61 410.11 929.52 437.11 884.09 447.96C871.48 450.97 858.56 444.35 853.63 432.36C842.73 405.89 818.58 347.18 807.68 320.68C802.07 307.04 799.48 292.35 800.09 277.61C801.95 232.38 806.79 115.28 808.69 69.11C809.14 58.38 815.87 48.93 825.86 45C856.88 32.8 928.43 4.66 958.19 -7.04C972.29 -12.58 988.27 -10.23 1000.18 -0.86Z" id="g3Ud7TngC7"></path><path d="M772.11 669.46L904.68 647.08L904.85 665.86L772.27 688.24L772.11 669.46ZM771.89 645.36L904.47 622.98L904.64 641.76L772.06 664.14L771.89 645.36ZM771.68 621.25L904.26 598.87L904.42 617.65L771.85 640.03L771.68 621.25ZM771.47 597.25L904.04 574.87L904.21 593.65L771.63 616.03L771.47 597.25ZM838.19 198.08L838.19 198.13L845.23 198.3L854.8 199.01L864.03 200.18L872.91 201.78L881.43 203.8L889.61 206.23L897.43 209.05L904.92 212.24L912.05 215.79L918.84 219.67L925.29 223.89L931.39 228.4L937.16 233.21L942.58 238.3L947.67 243.64L952.42 249.23L956.83 255.04L960.9 261.07L964.64 267.29L968.05 273.68L971.12 280.24L973.87 286.94L976.28 293.77L978.36 300.72L980.12 307.76L981.55 314.88L982.65 322.06L983.43 329.3L983.89 336.56L984.02 343.84L983.83 351.12L983.32 358.38L982.5 365.61L981.35 372.79L979.89 379.9L978.11 386.93L976.02 393.86L973.62 400.68L970.9 407.37L967.87 413.91L967.48 414.7L967.09 415.48L966.71 416.24L966.34 416.99L965.98 417.72L965.62 418.44L965.27 419.15L964.92 419.83L964.58 420.51L964.25 421.16L963.93 421.81L963.61 422.43L963.3 423.05L963 423.64L962.7 424.22L962.41 424.79L962.12 425.34L961.84 425.88L961.57 426.4L961.31 426.91L961.05 427.4L960.8 427.88L960.56 428.34L960.32 428.78L960.09 429.21L959.86 429.63L959.65 430.03L959.43 430.41L959.23 430.79L959.03 431.14L958.84 431.48L958.66 431.81L958.48 432.12L958.31 432.41L958.15 432.69L957.99 432.95L957.84 433.2L957.69 433.44L957.56 433.66L957.43 433.86L954.84 437.93L952.3 442.02L949.83 446.15L947.41 450.3L945.05 454.49L942.75 458.7L940.5 462.94L938.32 467.21L936.19 471.5L934.12 475.83L932.12 480.17L930.17 484.54L928.28 488.94L926.45 493.36L924.67 497.8L922.96 502.26L921.31 506.75L919.72 511.26L918.19 515.78L916.72 520.33L915.32 524.9L913.97 529.48L912.68 534.09L911.46 538.71L910.3 543.34L909.2 548L908.16 552.67L907.18 557.35L906.27 562.05L905.42 566.76L904.83 570.31L771.57 592.81L771.34 590.52L770.81 585.75L770.21 580.99L769.55 576.24L768.82 571.5L768.04 566.78L767.19 562.07L766.27 557.37L765.3 552.68L764.26 548.02L763.16 543.36L762 538.72L760.77 534.1L759.49 529.5L758.14 524.92L756.73 520.35L755.26 515.8L753.73 511.27L752.14 506.77L750.49 502.28L748.78 497.82L747.01 493.38L745.18 488.96L743.29 484.56L741.34 480.19L739.33 475.84L737.26 471.52L735.14 467.23L732.95 462.96L730.71 458.72L728.4 454.51L726.04 450.32L723.63 446.17L721.15 442.04L718.62 437.95L716.03 433.88L715.9 433.68L715.76 433.46L715.62 433.22L715.47 432.97L715.31 432.71L715.14 432.43L714.97 432.13L714.8 431.82L714.61 431.5L714.42 431.16L714.22 430.8L714.02 430.43L713.81 430.05L713.59 429.65L713.37 429.23L713.14 428.8L712.9 428.35L712.65 427.89L712.4 427.42L712.15 426.93L711.88 426.42L711.61 425.9L711.33 425.36L711.05 424.81L710.76 424.24L710.46 423.66L710.15 423.06L709.84 422.45L709.53 421.82L709.2 421.18L708.87 420.52L708.53 419.85L708.19 419.16L707.84 418.46L707.48 417.74L707.11 417.01L706.74 416.26L706.36 415.5L705.98 414.72L705.59 413.93L702.56 407.39L699.84 400.7L697.43 393.88L695.34 386.95L693.56 379.92L692.1 372.81L691.48 368.93L722.96 363.1L718.27 331.82L805.79 353.84L770.35 285.61L796.79 274.48L778.89 208.04L783.85 206.25L792.02 203.82L800.55 201.8L809.42 200.2L818.65 199.03L828.23 198.32L835.26 198.15L835.26 198.06L835.29 198.06L837.12 198.11L838.16 198.08L838.19 198.08Z" id="b14tOVgomh"></path><path d="M820.44 115.32L827.47 115.49L837.06 116.2L846.29 117.37L855.16 118.97L863.68 120.99L871.86 123.42L879.69 126.24L887.17 129.43L894.31 132.98L901.1 136.86L907.54 141.07L913.65 145.59L919.41 150.4L924.84 155.49L929.92 160.83L934.67 166.42L939.08 172.23L943.15 178.26L946.9 184.47L950.3 190.87L953.38 197.43L956.12 204.13L958.53 210.96L960.62 217.9L962.37 224.94L963.8 232.07L964.91 239.25L965.69 246.48L966.14 253.75L966.27 261.03L966.09 268.31L965.58 275.57L964.74 282.8L963.61 289.98L962.14 297.09L960.37 304.12L958.28 311.05L955.87 317.87L953.15 324.56L950.12 331.1L949.72 331.89L949.35 332.67L948.96 333.43L948.6 334.18L948.22 334.91L947.87 335.63L947.52 336.33L947.18 337.02L946.84 337.69L946.51 338.35L946.18 338.99L945.87 339.62L945.55 340.23L945.24 340.83L944.95 341.41L944.66 341.98L944.38 342.53L944.1 343.07L943.83 343.59L943.56 344.09L943.31 344.59L943.05 345.06L942.81 345.52L942.57 345.97L942.34 346.4L942.12 346.82L941.9 347.22L941.69 347.6L941.47 347.97L941.29 348.33L941.1 348.67L940.91 348.99L940.73 349.3L940.56 349.6L940.4 349.88L940.23 350.14L940.09 350.39L939.95 350.63L939.81 350.85L939.68 351.05L937.09 355.11L934.56 359.21L932.08 363.34L929.66 367.49L927.3 371.68L924.99 375.89L922.76 380.13L920.57 384.4L918.45 388.69L916.38 393.01L914.37 397.36L912.42 401.73L910.53 406.13L908.7 410.54L906.93 414.99L905.21 419.45L903.57 423.94L901.97 428.44L900.45 432.97L898.97 437.52L897.57 442.08L896.21 446.67L894.94 451.27L893.71 455.89L892.55 460.53L891.45 465.18L890.41 469.85L889.44 474.54L888.52 479.24L887.67 483.95L887.08 487.5L753.82 510L753.6 507.71L753.06 502.94L752.46 498.18L751.8 493.43L751.08 488.69L750.29 483.97L749.44 479.25L748.53 474.56L747.55 469.87L746.51 465.2L745.41 460.55L744.25 455.91L743.03 451.29L741.74 446.69L740.39 442.1L738.99 437.54L737.52 432.99L735.99 428.46L734.4 423.96L732.75 419.47L731.03 415.01L729.26 410.56L727.43 406.14L725.54 401.75L723.59 397.38L721.58 393.03L719.52 388.71L717.39 384.42L715.2 380.15L712.96 375.91L710.66 371.69L708.3 367.51L705.88 363.35L703.41 359.23L700.87 355.13L698.28 351.07L698.15 350.86L698.01 350.65L697.87 350.41L697.71 350.16L697.56 349.9L697.4 349.62L697.22 349.32L697.05 349.01L696.87 348.69L696.68 348.35L696.47 347.99L696.27 347.62L696.06 347.24L695.85 346.83L695.62 346.42L695.39 345.99L695.15 345.54L694.91 345.08L694.66 344.61L694.4 344.11L694.14 343.61L693.86 343.09L693.59 342.55L693.3 342L693.01 341.43L692.71 340.85L692.41 340.25L692.1 339.64L691.78 339.01L691.46 338.37L691.12 337.71L690.79 337.04L690.44 336.35L690.09 335.65L689.72 334.93L689.37 334.2L689 333.45L688.62 332.69L688.22 331.91L687.84 331.11L684.81 324.57L682.09 317.89L679.69 311.07L677.6 304.14L675.82 297.11L674.36 289.99L673.74 286.12L705.21 280.28L700.52 249.01L788.05 271.02L752.61 202.8L779.04 191.67L761.15 125.22L766.1 123.44L774.28 121.01L782.8 118.99L791.68 117.38L800.9 116.22L810.47 115.51L817.52 115.34L817.52 115.25L817.55 115.25L819.37 115.29L820.41 115.27L820.41 115.27L820.44 115.27L820.44 115.32Z" id="a4vf4X7wtG"></path><path d="M849.84 503.69L850 522.47L717.43 544.85L717.43 544.85L717.26 526.07L849.84 503.69ZM849.62 479.59L849.79 498.36L717.21 520.74L717.21 520.74L717.05 501.97L849.62 479.59ZM849.41 455.48L849.58 474.26L717 496.64L717 496.64L716.83 477.86L849.41 455.48ZM849.2 431.48L849.36 450.26L716.79 472.64L716.79 472.64L716.62 453.86L849.2 431.48Z" id="a8cZLBjNo7"></path><path d="M735.79 63.54L743.27 66.73L750.4 70.28L757.19 74.16L763.64 78.38L769.75 82.89L775.51 87.7L780.94 92.79L786.02 98.13L790.77 103.72L795.18 109.53L799.25 115.56L802.99 121.78L806.4 128.17L809.47 134.73L812.22 141.43L814.63 148.26L816.72 155.21L818.47 162.25L819.9 169.37L820 170L804.51 170L804.12 168.46L802.04 161.52L799.63 154.69L796.88 147.99L793.81 141.43L790.4 135.03L786.66 128.82L782.59 122.79L778.18 116.98L773.43 111.39L768.34 106.05L762.92 100.96L757.16 96.15L751.05 91.63L744.6 87.42L737.81 83.54L730.68 79.99L723.2 76.8L715.37 73.98L712.56 73.15L712.56 56.58L719.78 58.29L727.96 60.72L735.79 63.54Z" id="bcTsMzC4L"></path><path d="M300.11 537.61L291.67 537.44L289.67 537.32L522.18 304.78L522.3 306.81L522.47 315.22L522.47 315.22L300.11 537.61ZM324.11 536.37L318.97 536.89L312.05 537.31L522.17 327.16L521.75 334.11L521.23 339.22L521.23 339.22L324.11 536.37ZM278.85 536.5L273.69 535.98L269.65 535.4L520.26 284.76L520.84 288.83L521.36 293.96L521.36 293.96L278.85 536.5ZM352.43 531.54L345.45 533.12L337.54 534.57L519.44 352.65L517.98 360.59L516.41 367.53L516.41 367.53L352.43 531.54ZM259.65 533.76L256.15 533.12L250.46 531.83L516.69 265.57L517.98 271.29L518.62 274.76L518.62 274.76L259.65 533.76ZM241.19 529.47L239.09 528.91L232.94 526.99L511.84 248.05L513.77 254.23L514.32 256.3L514.32 256.3L241.19 529.47ZM505.67 400.65L385.54 520.8L379.02 523.41L370.84 526.31L368.6 527.01L511.88 383.7L511.17 385.98L508.27 394.16L508.27 394.16L505.67 400.65ZM224.28 524.01L222.58 523.41L216.06 520.8L505.65 231.17L508.27 237.72L508.86 239.39L508.86 239.39L224.28 524.01ZM207.96 517.25L206.67 516.67L200.55 513.65L498.5 215.66L501.54 221.81L502.1 223.08L502.1 223.08L207.96 517.25ZM484.6 439.85L479.69 446.83L474.52 453.61L469.99 459.09L443.97 485.11L438.47 489.66L431.69 494.83L424.71 499.74L417.54 504.39L410.18 508.77L408.05 509.93L494.8 423.16L493.63 425.32L489.25 432.68L489.25 432.68L484.6 439.85ZM192.96 509.6L191.42 508.77L186.12 505.61L490.46 201.23L493.63 206.56L494.45 208.07L494.45 208.07L192.96 509.6ZM178.99 501.1L176.89 499.74L172.09 496.37L481.21 187.21L484.6 192.03L485.95 194.1L485.95 194.1L178.99 501.1ZM165.42 491.4L163.13 489.66L159.25 486.45L471.29 174.37L474.52 178.27L476.24 180.53L476.24 180.53L165.42 491.4ZM153 481.06L150.21 478.57L147.44 475.9L460.73 162.55L463.43 165.35L465.9 168.12L465.9 168.12L153 481.06ZM141.6 470.09L138.17 466.53L137.55 465.84L450.67 152.67L451.39 153.31L454.93 156.72L454.93 156.72L141.6 470.09ZM132.08 459.66L127.08 453.61L127.06 453.57L438.41 142.18L438.47 142.22L444.5 147.2L444.5 147.2L132.08 459.66ZM122.02 446.97L121.91 446.83L117.58 440.68L425.51 132.7L431.69 137.05L431.81 137.14L431.81 137.14L122.02 446.97ZM112.98 433.65L112.35 432.68L108.52 426.24L411.07 123.65L417.54 127.49L418.48 128.1L418.48 128.1L112.98 433.65ZM104.39 418.73L103.87 417.78L100.68 411.32L396.15 115.81L402.64 119.02L403.56 119.52L403.56 119.52L104.39 418.73ZM97.05 403.32L96.55 402.19L93.94 395.69L380.52 109.07L387.05 111.69L388.15 112.18L388.15 112.18L97.05 403.32ZM90.84 387.15L90.42 385.98L88.36 379.34L364.17 103.49L370.84 105.57L371.98 105.97L371.98 105.97L90.84 387.15ZM85.84 370.22L85.56 369.19L83.75 361.18L346.01 98.89L354.05 100.7L355.04 100.97L355.04 100.97L85.84 370.22ZM81.94 351.35L80.76 343.05L80.64 341.92L326.75 95.78L327.91 95.9L336.18 97.08L336.18 97.08L81.94 351.35ZM79.68 331.25L79.3 325.07L79.2 320.29L305.12 94.34L309.93 94.44L316.08 94.82L316.08 94.82L79.68 331.25ZM79.85 297.77L79.94 296.9L281.72 95.08L282.63 94.99L291.67 94.44L293.42 94.41L79.26 308.59L79.3 306.81L79.3 306.81L79.85 297.77ZM83.62 271.29L83.78 270.59L255.41 98.93L256.15 98.76L264.86 97.16L268.53 96.64L81.49 283.7L82.02 280L82.02 280L83.62 271.29ZM90.42 245.9L93.31 237.78L222.6 108.46L230.76 105.57L239.09 102.97L239.96 102.74L87.59 255.14L87.83 254.23L87.83 254.23L90.42 245.9ZM107.97 206.56L112.35 199.2L117 192.03L118.67 189.66L174.49 133.83L176.89 132.14L184.06 127.49L191.42 123.11L198.96 119.02L201.84 117.59L102.44 217.01L103.87 214.1L103.87 214.1L107.97 206.56Z" id="kp7mUUXJm"></path><path d="M304.4 536.47L295.96 536.3L293.96 536.18L526.47 303.64L526.59 305.67L526.76 314.08L526.76 314.08L304.4 536.47ZM328.4 535.23L323.26 535.75L316.34 536.17L526.46 326.02L526.04 332.97L525.52 338.08L525.52 338.08L328.4 535.23ZM283.14 535.37L277.98 534.84L273.94 534.26L524.55 283.62L525.13 287.69L525.65 292.82L525.65 292.82L283.14 535.37ZM356.72 530.4L349.74 531.98L341.83 533.43L523.73 351.51L522.27 359.45L520.7 366.4L520.7 366.4L356.72 530.4ZM263.94 532.62L260.43 531.98L254.75 530.69L520.98 264.43L522.27 270.15L522.91 273.62L522.91 273.62L263.94 532.62ZM245.48 528.33L243.38 527.77L237.23 525.85L516.13 246.91L518.06 253.09L518.61 255.16L518.61 255.16L245.48 528.33ZM509.96 399.51L389.83 519.66L383.31 522.27L375.13 525.18L372.89 525.87L516.17 382.57L515.46 384.84L512.56 393.02L512.56 393.02L509.96 399.51ZM228.57 522.87L226.87 522.27L220.35 519.66L509.94 230.03L512.56 236.58L513.15 238.25L513.15 238.25L228.57 522.87ZM212.25 516.11L210.96 515.54L204.84 512.51L502.79 214.52L505.82 220.67L506.39 221.94L506.39 221.94L212.25 516.11ZM488.89 438.71L483.98 445.69L478.81 452.47L474.28 457.95L448.26 483.97L442.76 488.52L435.98 493.69L429 498.6L421.83 503.25L414.47 507.63L412.34 508.79L499.09 422.02L497.92 424.18L493.54 431.54L493.54 431.54L488.89 438.71ZM197.25 508.46L195.71 507.63L190.41 504.48L494.75 200.09L497.92 205.42L498.74 206.93L498.74 206.93L197.25 508.46ZM183.28 499.96L181.18 498.6L176.38 495.23L485.5 186.07L488.89 190.89L490.24 192.96L490.24 192.96L183.28 499.96ZM169.71 490.26L167.42 488.52L163.54 485.31L475.58 173.23L478.81 177.13L480.53 179.39L480.53 179.39L169.71 490.26ZM157.29 479.92L154.5 477.43L151.72 474.76L465.02 161.41L467.72 164.21L470.19 166.98L470.19 166.98L157.29 479.92ZM145.89 468.95L142.46 465.39L141.84 464.7L454.96 151.53L455.68 152.17L459.22 155.58L459.22 155.58L145.89 468.95ZM136.37 458.53L131.37 452.47L131.35 452.44L442.7 141.04L442.76 141.08L448.79 146.06L448.79 146.06L136.37 458.53ZM126.31 445.83L126.2 445.69L121.87 439.54L429.8 131.56L435.98 135.91L436.09 136L436.09 136L126.31 445.83ZM117.26 432.51L116.64 431.54L112.81 425.1L415.36 122.51L421.83 126.35L422.77 126.96L422.77 126.96L117.26 432.51ZM108.68 417.59L108.16 416.64L104.97 410.19L400.44 114.67L406.93 117.88L407.85 118.38L407.85 118.38L108.68 417.59ZM101.34 402.18L100.84 401.06L98.23 394.55L384.81 107.94L391.34 110.55L392.44 111.04L392.44 111.04L101.34 402.18ZM95.13 386.02L94.71 384.84L92.65 378.2L368.46 102.35L375.13 104.43L376.27 104.83L376.27 104.83L95.13 386.02ZM90.13 369.08L89.85 368.05L88.04 360.04L350.3 97.75L358.34 99.56L359.33 99.83L359.33 99.83L90.13 369.08ZM86.23 350.22L85.05 341.91L84.93 340.78L331.04 94.64L332.2 94.76L340.47 95.94L340.47 95.94L86.23 350.22ZM83.97 330.11L83.59 323.93L83.49 319.15L309.41 93.21L314.22 93.3L320.37 93.68L320.37 93.68L83.97 330.11ZM84.14 296.63L84.23 295.76L286.01 93.95L286.92 93.85L295.96 93.3L297.71 93.27L83.55 307.45L83.59 305.67L83.59 305.67L84.14 296.63ZM87.91 270.15L88.07 269.45L259.7 97.79L260.43 97.62L269.15 96.02L272.82 95.5L85.78 282.56L86.31 278.86L86.31 278.86L87.91 270.15ZM94.71 244.76L97.6 236.64L226.89 107.33L235.05 104.43L243.38 101.83L244.25 101.6L91.88 254L92.12 253.09L92.12 253.09L94.71 244.76ZM112.26 205.42L116.64 198.06L121.29 190.89L122.95 188.52L178.78 132.69L181.18 131L188.35 126.35L195.71 121.97L203.25 117.88L206.13 116.46L106.73 215.87L108.16 212.96L108.16 212.96L112.26 205.42Z" id="h1SZw3DTXV"></path><path d="M497.49 66.06L500.08 66.65L502.63 67.33L505.14 68.11L507.61 68.99L510.03 69.95L512.4 71.01L514.72 72.16L516.99 73.39L519.21 74.71L521.37 76.11L523.47 77.59L525.51 79.15L527.49 80.78L529.4 82.49L531.25 84.26L533.03 86.11L534.73 88.02L536.37 90L537.92 92.04L539.4 94.15L540.8 96.31L542.12 98.52L543.35 100.79L544.5 103.12L545.56 105.49L546.53 107.91L547.4 110.37L548.18 112.88L548.87 115.43L549.45 118.02L549.93 120.65L550.31 123.31L550.59 126L550.75 128.73L550.81 131.48L550.81 283.58L550.75 286.33L550.59 289.05L550.31 291.75L549.93 294.41L549.45 297.03L548.87 299.62L548.18 302.17L547.4 304.68L546.53 307.15L545.56 309.57L544.5 311.94L543.35 314.26L542.12 316.53L540.8 318.75L539.4 320.91L537.92 323.01L536.37 325.05L534.73 327.03L533.03 328.95L531.25 330.79L529.4 332.57L527.49 334.28L525.51 335.91L523.47 337.47L521.37 338.95L519.21 340.35L516.99 341.66L514.72 342.9L512.4 344.04L510.03 345.1L507.61 346.07L505.14 346.95L502.63 347.73L500.08 348.41L497.49 348.99L494.87 349.48L492.2 349.86L489.51 350.13L486.79 350.29L484.04 350.35L478.55 350.35L452.04 381.94L451.78 382.24L451.5 382.53L451.22 382.8L450.93 383.06L450.64 383.31L450.33 383.54L450.02 383.76L449.7 383.96L449.38 384.15L449.04 384.33L448.71 384.5L448.36 384.65L448.02 384.78L447.67 384.91L447.31 385.01L446.95 385.11L446.59 385.19L446.23 385.26L445.86 385.31L445.49 385.35L445.12 385.38L444.75 385.39L444.38 385.38L444.01 385.37L443.64 385.34L443.27 385.29L442.9 385.23L442.54 385.16L442.18 385.07L441.81 384.96L441.46 384.85L441.1 384.71L440.75 384.57L440.41 384.41L440.07 384.23L439.73 384.04L439.4 383.84L439.08 383.62L438.76 383.38L438.45 383.13L399.38 350.35L336.68 350.35L336.68 439.36L336.64 441.37L336.52 443.36L336.32 445.33L336.04 447.27L335.69 449.19L335.26 451.08L334.76 452.95L334.19 454.78L333.55 456.58L332.85 458.35L332.07 460.08L331.23 461.78L330.33 463.44L329.37 465.06L328.35 466.64L327.27 468.17L326.13 469.67L324.93 471.11L323.69 472.51L322.39 473.86L321.04 475.16L319.64 476.41L318.19 477.6L316.7 478.74L315.17 479.82L313.59 480.84L311.97 481.8L310.31 482.71L308.61 483.54L306.88 484.32L305.11 485.02L303.31 485.66L301.47 486.23L299.61 486.73L297.72 487.16L295.8 487.51L293.86 487.79L291.89 487.99L289.9 488.11L287.88 488.15L166.45 488.15L137 512.87L136.7 513.1L136.4 513.32L136.09 513.52L135.78 513.7L135.46 513.87L135.13 514.01L134.8 514.15L134.47 514.26L134.13 514.36L133.78 514.45L133.44 514.51L133.09 514.57L132.74 514.6L132.39 514.62L132.04 514.62L131.69 514.61L131.35 514.57L131 514.53L130.66 514.47L130.32 514.39L129.98 514.29L129.65 514.18L129.32 514.06L128.99 513.92L128.68 513.76L128.37 513.58L128.06 513.4L127.77 513.19L127.48 512.97L127.2 512.74L126.93 512.49L126.68 512.22L126.43 511.94L105.66 487.19L105.31 487.13L103.35 486.68L101.42 486.17L99.52 485.58L97.66 484.92L95.83 484.18L94.04 483.38L92.28 482.52L90.56 481.58L88.89 480.59L87.26 479.53L85.67 478.41L84.12 477.23L82.63 476L81.18 474.71L79.78 473.37L78.44 471.97L77.15 470.52L75.92 469.03L74.74 467.49L73.62 465.9L72.56 464.26L71.57 462.59L70.63 460.87L69.77 459.12L68.97 457.32L68.24 455.49L67.57 453.63L66.98 451.73L66.47 449.8L66.03 447.85L65.66 445.86L65.37 443.85L65.17 441.81L65.04 439.75L65 437.67L65 335.23L65.04 333.15L65.17 331.09L65.37 329.05L65.66 327.04L66.03 325.06L66.47 323.1L66.98 321.17L67.57 319.28L68.24 317.41L68.97 315.58L69.77 313.79L70.63 312.03L71.57 310.32L72.56 308.64L73.62 307.01L74.74 305.42L75.92 303.88L77.15 302.38L78.44 300.93L79.78 299.54L81.18 298.19L82.63 296.9L84.12 295.67L85.67 294.49L87.26 293.37L88.89 292.31L90.56 291.32L92.28 290.39L94.04 289.52L95.83 288.72L97.66 287.99L99.52 287.32L101.42 286.74L103.35 286.22L105.31 285.78L107.29 285.41L109.3 285.13L111.34 284.92L113.4 284.79L115.48 284.75L179.13 284.75L179.09 284.12L179.03 281.27L179.03 133.78L179.09 130.94L179.26 128.12L179.55 125.33L179.94 122.58L180.44 119.86L181.04 117.18L181.75 114.54L182.56 111.95L183.46 109.4L184.46 106.9L185.56 104.44L186.74 102.04L188.02 99.69L189.38 97.4L190.83 95.16L192.36 92.99L193.97 90.88L195.66 88.83L197.43 86.85L199.27 84.94L201.18 83.1L203.16 81.33L205.2 79.65L207.32 78.03L209.49 76.5L211.72 75.06L214.02 73.69L216.37 72.42L218.77 71.23L221.22 70.13L223.73 69.13L226.28 68.23L228.87 67.42L231.51 66.71L234.19 66.11L236.91 65.61L239.66 65.22L242.45 64.94L245.26 64.76L248.11 64.71L484.04 64.71L486.79 64.76L489.51 64.93L492.2 65.2L494.87 65.58L494.87 65.58L497.49 66.06Z" id="b1wnsJhpBv"></path><path d="M493.7 62.61L496.4 62.88L499.06 63.26L501.68 63.75L504.27 64.33L506.82 65.01L509.33 65.79L511.8 66.67L514.22 67.64L516.59 68.7L518.91 69.84L521.18 71.08L523.4 72.39L525.56 73.79L527.66 75.27L529.7 76.83L531.68 78.46L533.6 80.17L535.44 81.95L537.22 83.79L538.93 85.71L540.56 87.69L542.12 89.73L543.6 91.83L545 93.99L546.31 96.21L547.55 98.48L548.69 100.8L549.75 103.17L550.72 105.59L551.6 108.06L552.38 110.57L553.06 113.12L553.64 115.7L554.13 118.33L554.51 120.99L554.78 123.69L554.94 126.41L555 129.16L555 281.26L554.94 284.01L554.78 286.74L554.51 289.43L554.13 292.09L553.64 294.72L553.06 297.31L552.38 299.86L551.6 302.37L550.72 304.83L549.75 307.25L548.69 309.62L547.55 311.95L546.31 314.22L545 316.43L543.6 318.59L542.12 320.7L540.56 322.74L538.93 324.72L537.22 326.63L535.44 328.48L533.6 330.25L531.68 331.96L529.7 333.59L527.66 335.15L525.56 336.63L523.4 338.03L521.18 339.35L518.91 340.58L516.59 341.73L514.22 342.79L511.8 343.75L509.33 344.63L506.82 345.41L504.27 346.09L501.68 346.68L499.06 347.16L496.4 347.54L493.7 347.81L490.98 347.98L488.23 348.03L482.74 348.03L456.23 379.63L455.97 379.93L455.7 380.21L455.42 380.48L455.13 380.74L454.83 380.99L454.53 381.22L454.21 381.44L453.89 381.65L453.57 381.84L453.24 382.01L452.9 382.18L452.56 382.33L452.21 382.47L451.86 382.59L451.5 382.7L451.14 382.79L450.78 382.87L450.42 382.94L450.05 383L449.68 383.03L449.31 383.06L448.94 383.07L448.57 383.07L448.2 383.05L447.83 383.02L447.46 382.97L447.1 382.91L446.73 382.84L446.37 382.75L446.01 382.65L445.65 382.53L445.3 382.4L444.95 382.25L444.6 382.09L444.26 381.91L443.92 381.72L443.6 381.52L443.27 381.3L442.96 381.06L442.65 380.82L403.57 348.03L252.3 348.03L249.46 347.98L246.64 347.8L243.85 347.52L241.1 347.13L238.38 346.63L235.7 346.03L233.07 345.32L230.47 344.51L227.92 343.61L225.42 342.61L222.96 341.51L220.56 340.32L218.21 339.05L215.92 337.68L213.68 336.24L211.51 334.71L209.4 333.09L207.35 331.41L205.37 329.64L203.46 327.8L201.62 325.89L199.86 323.91L198.17 321.86L196.56 319.75L195.02 317.58L193.58 315.34L192.21 313.05L190.94 310.7L189.75 308.3L188.66 305.84L187.65 303.34L186.75 300.79L185.94 298.2L185.24 295.56L184.63 292.88L184.13 290.16L183.74 287.41L183.46 284.62L183.29 281.8L183.23 278.96L183.23 131.47L183.29 128.62L183.46 125.8L183.74 123.01L184.13 120.26L184.63 117.54L185.24 114.87L185.94 112.23L186.75 109.63L187.65 107.08L188.66 104.58L189.75 102.12L190.94 99.72L192.21 97.37L193.58 95.08L195.02 92.84L196.56 90.67L198.17 88.56L199.86 86.51L201.62 84.53L203.46 82.62L205.37 80.78L207.35 79.02L209.4 77.33L211.51 75.72L213.68 74.19L215.92 72.74L218.21 71.38L220.56 70.1L222.96 68.91L225.42 67.82L227.92 66.82L230.47 65.91L233.07 65.1L235.7 64.4L238.38 63.79L241.1 63.29L243.85 62.9L246.64 62.62L249.46 62.45L252.3 62.39L488.23 62.39L490.98 62.45L493.7 62.61Z" id="a1zbveZkYu"></path><path d="M296.08 282.6L298.05 282.8L299.99 283.07L301.91 283.43L303.8 283.85L305.67 284.35L307.5 284.92L309.3 285.56L311.07 286.27L312.8 287.04L314.5 287.88L316.16 288.78L317.78 289.75L319.36 290.77L320.9 291.85L322.39 292.99L323.83 294.18L325.23 295.43L326.58 296.73L327.88 298.08L329.13 299.47L330.32 300.92L331.46 302.41L332.54 303.95L333.56 305.53L334.52 307.15L335.43 308.81L336.26 310.5L337.04 312.24L337.75 314.01L338.39 315.81L338.96 317.64L339.45 319.5L339.88 321.4L340.23 323.32L340.51 325.26L340.71 327.23L340.83 329.22L340.87 331.23L340.87 437.04L340.83 439.05L340.71 441.04L340.51 443.01L340.23 444.95L339.88 446.87L339.45 448.77L338.96 450.63L338.39 452.46L337.75 454.26L337.04 456.03L336.26 457.77L335.43 459.46L334.52 461.12L333.56 462.74L332.54 464.32L331.46 465.86L330.32 467.35L329.13 468.8L327.88 470.19L326.58 471.54L325.23 472.84L323.83 474.09L322.39 475.28L320.9 476.42L319.36 477.5L317.78 478.52L316.16 479.49L314.5 480.39L312.8 481.23L311.07 482L309.3 482.71L307.5 483.35L305.67 483.92L303.8 484.42L301.91 484.84L299.99 485.2L298.05 485.47L296.08 485.67L294.09 485.79L292.08 485.84L170.64 485.84L141.19 510.55L140.9 510.78L140.6 511L140.29 511.2L139.97 511.38L139.65 511.55L139.33 511.7L138.99 511.83L138.66 511.95L138.32 512.05L137.98 512.13L137.63 512.2L137.28 512.25L136.93 512.28L136.59 512.3L136.24 512.3L135.89 512.29L135.54 512.26L135.19 512.21L134.85 512.15L134.51 512.07L134.17 511.98L133.84 511.87L133.51 511.74L133.19 511.6L132.87 511.44L132.56 511.27L132.26 511.08L131.96 510.88L131.67 510.66L131.4 510.42L131.13 510.17L130.87 509.9L130.62 509.62L109.86 484.88L109.5 484.81L107.54 484.37L105.61 483.85L103.72 483.26L101.85 482.6L100.02 481.87L98.23 481.07L96.47 480.2L94.76 479.27L93.08 478.27L91.45 477.21L89.86 476.1L88.32 474.92L86.82 473.68L85.37 472.39L83.98 471.05L82.63 469.65L81.34 468.21L80.11 466.71L78.93 465.17L77.81 463.58L76.76 461.95L75.76 460.27L74.83 458.55L73.96 456.8L73.16 455L72.43 453.18L71.77 451.31L71.18 449.41L70.66 447.49L70.22 445.53L69.85 443.54L69.57 441.53L69.36 439.5L69.24 437.44L69.19 435.36L69.19 332.91L69.24 330.83L69.36 328.77L69.57 326.74L69.85 324.73L70.22 322.74L70.66 320.78L71.18 318.86L71.77 316.96L72.43 315.09L73.16 313.27L73.96 311.47L74.83 309.72L75.76 308L76.76 306.32L77.81 304.69L78.93 303.1L80.11 301.56L81.34 300.06L82.63 298.62L83.98 297.22L85.37 295.88L86.82 294.59L88.32 293.35L89.86 292.17L91.45 291.06L93.08 290L94.76 289L96.47 288.07L98.23 287.2L100.02 286.4L101.85 285.67L103.72 285.01L105.61 284.42L107.54 283.9L109.5 283.46L111.48 283.1L113.5 282.81L115.53 282.6L117.59 282.48L119.67 282.43L292.08 282.43L294.09 282.48L296.08 282.6Z" id="bgX2QOXHB"></path><path d="M483.47 79.91L486.1 80.39L488.69 80.97L491.24 81.66L493.75 82.44L496.21 83.31L498.63 84.28L501 85.34L503.33 86.49L505.6 87.72L507.81 89.04L509.97 90.44L512.07 91.92L514.12 93.47L516.09 95.11L518.01 96.81L519.85 98.59L521.63 100.44L523.34 102.35L524.97 104.33L526.53 106.37L528.01 108.47L529.41 110.63L530.73 112.85L531.96 115.12L533.11 117.44L534.16 119.82L535.13 122.24L536.01 124.7L536.79 127.21L537.47 129.76L538.06 132.35L538.54 134.98L538.92 137.64L539.19 140.33L539.36 143.05L539.41 145.81L539.41 154.29L530.15 154.29L529.99 151.58L529.72 148.88L529.34 146.22L528.85 143.6L528.27 141.01L527.59 138.46L526.81 135.95L525.93 133.48L524.96 131.06L523.91 128.69L522.76 126.37L521.52 124.1L520.21 121.88L518.81 119.72L517.33 117.62L515.77 115.58L514.14 113.6L512.43 111.68L510.65 109.84L508.81 108.06L506.89 106.35L504.91 104.72L502.87 103.16L500.77 101.68L498.61 100.28L496.4 98.97L494.12 97.73L491.8 96.59L489.43 95.53L487.01 94.56L484.54 93.68L482.04 92.9L479.49 92.22L476.9 91.64L474.27 91.15L471.61 90.78L468.92 90.5L466.19 90.34L463.44 90.28L462.41 90.28L462.41 79.03L472.64 79.03L475.39 79.09L478.12 79.26L480.81 79.53L480.81 79.53L483.47 79.91Z" id="c7h970bno"></path><path d="M292.68 298.93L294.34 299.23L295.98 299.6L297.59 300.03L299.17 300.53L300.73 301.08L302.25 301.69L303.75 302.36L305.22 303.08L306.65 303.86L308.05 304.69L309.42 305.58L310.74 306.51L312.03 307.5L313.28 308.53L314.49 309.6L315.66 310.73L316.78 311.89L317.86 313.1L318.89 314.35L319.87 315.64L320.8 316.97L321.69 318.33L322.52 319.73L323.3 321.16L324.02 322.63L324.69 324.13L325.3 325.65L325.85 327.21L326.35 328.8L326.78 330.41L327.15 332.04L327.45 333.7L327.69 335.38L327.86 337.08L327.97 338.8L328 340.54L328 345.89L322.16 345.89L322.05 344.18L321.88 342.48L321.64 340.8L321.34 339.14L320.97 337.51L320.54 335.9L320.04 334.31L319.49 332.76L318.88 331.23L318.21 329.73L317.49 328.26L316.71 326.83L315.88 325.43L314.99 324.07L314.06 322.74L313.08 321.45L312.05 320.2L310.97 318.99L309.85 317.83L308.68 316.7L307.47 315.63L306.22 314.6L304.93 313.61L303.61 312.68L302.24 311.8L300.84 310.96L299.41 310.18L297.94 309.46L296.45 308.79L294.92 308.18L293.36 307.63L291.78 307.14L290.17 306.7L288.53 306.34L286.87 306.03L285.19 305.79L283.49 305.62L281.77 305.51L280.03 305.48L279.39 305.48L279.39 298.38L285.84 298.38L287.58 298.41L289.3 298.52L291 298.69L291 298.69L292.68 298.93Z" id="dmrVA9bHO"></path></defs><g><g><g><use xlink:href="#g3Ud7TngC7" opacity="1" fill="#cbd0e3" fill-opacity="1"></use><g><use xlink:href="#g3Ud7TngC7" opacity="1" fill-opacity="0" stroke="#000000" stroke-width="1" stroke-opacity="0"></use></g></g><g><use xlink:href="#b14tOVgomh" opacity="1" fill="#a3a7b7" fill-opacity="1"></use><g><use xlink:href="#b14tOVgomh" opacity="1" fill-opacity="0" stroke="#000000" stroke-width="1" stroke-opacity="0"></use></g></g><g><use xlink:href="#a4vf4X7wtG" opacity="1" fill="#a6bdf2" fill-opacity="1"></use><g><use xlink:href="#a4vf4X7wtG" opacity="1" fill-opacity="0" stroke="#000000" stroke-width="1" stroke-opacity="0"></use></g></g><g><use xlink:href="#a8cZLBjNo7" opacity="1" fill="#757575" fill-opacity="1"></use><g><use xlink:href="#a8cZLBjNo7" opacity="1" fill-opacity="0" stroke="#000000" stroke-width="1" stroke-opacity="0"></use></g></g><g><use xlink:href="#bcTsMzC4L" opacity="1" fill="#ffffff" fill-opacity="1"></use><g><use xlink:href="#bcTsMzC4L" opacity="1" fill-opacity="0" stroke="#000000" stroke-width="1" stroke-opacity="0"></use></g></g><g><use xlink:href="#kp7mUUXJm" opacity="1" fill="#cbd0e3" fill-opacity="1"></use></g><g><use xlink:href="#h1SZw3DTXV" opacity="1" fill="#edf1ff" fill-opacity="1"></use></g><g><use xlink:href="#b1wnsJhpBv" opacity="1" fill="#a3a7b7" fill-opacity="1"></use></g><g><use xlink:href="#a1zbveZkYu" opacity="1" fill="#a6bdf2" fill-opacity="1"></use></g><g><use xlink:href="#bgX2QOXHB" opacity="1" fill="#757575" fill-opacity="1"></use></g><g><use xlink:href="#c7h970bno" opacity="1" fill="#ffffff" fill-opacity="1"></use></g><g><use xlink:href="#dmrVA9bHO" opacity="1" fill="#ffffff" fill-opacity="1"></use></g></g></g></svg>