<?xml version="1.0" encoding="UTF-8" standalone="no"?>
<!DOCTYPE svg PUBLIC "-//W3C//DTD SVG 1.1//EN" "http://www.w3.org/Graphics/SVG/1.1/DTD/svg11.dtd">
<svg version="1.1" xmlns="http://www.w3.org/2000/svg" xmlns:xlink="http://www.w3.org/1999/xlink" preserveAspectRatio="xMidYMid meet" viewBox="0 0 640 640" width="640" height="640"><defs><path d="M329.67 128.49C342.16 121.34 357.93 123.73 367.74 134.26C392.01 160.27 455.12 227.93 481.15 255.84C486.34 261.41 490.08 268.17 492.03 275.53C500.9 308.96 522.6 390.76 530.99 422.38C534.23 434.6 529.52 447.54 519.18 454.82C490.55 474.96 424.02 521.77 395.93 541.54C383.55 550.25 367.59 552.03 353.59 546.27C311.57 528.96 202.54 484.07 159.16 466.21C149.05 462.05 140.83 454.3 136.08 444.45C125.4 422.34 101.6 373.07 91.14 351.4C85.77 340.29 85.65 327.37 90.79 316.16C97.16 302.3 109.5 275.42 116.21 260.81C120.38 251.73 127.29 244.18 135.96 239.22C178.97 214.63 288.26 152.16 329.67 128.49Z" id="g1yhl6d95m"></path><path d="M335.71 129.17C348.21 122.03 363.98 124.42 373.79 134.95C398.05 160.96 461.17 228.62 487.2 256.53C492.39 262.1 496.13 268.86 498.08 276.21C506.95 309.65 528.65 391.45 537.04 423.06C540.28 435.28 535.57 448.23 525.23 455.5C496.6 475.64 430.07 522.46 401.98 542.22C389.6 550.93 373.63 552.72 359.64 546.95C317.62 529.65 208.59 484.76 165.21 466.9C155.1 462.73 146.88 454.99 142.13 445.14C131.45 423.02 107.65 373.75 97.19 352.08C91.82 340.98 91.7 328.06 96.84 316.85C103.21 302.98 115.55 276.11 122.26 261.5C126.43 252.41 133.34 244.86 142.01 239.9C185.02 215.32 294.31 152.84 335.71 129.17Z" id="d16qQxzCyf"></path><path d="M167.92 483.27L169.57 483.42L171.21 483.64L172.84 483.92L174.47 484.26L176.09 484.67L177.7 485.15L179.29 485.69L180.87 486.29L182.43 486.97L183.98 487.7L185.5 488.51L187 489.38L188.47 490.32L189.92 491.33L191.32 492.39L192.67 493.5L193.96 494.66L195.2 495.86L196.38 497.1L197.5 498.37L198.56 499.69L199.57 501.04L200.52 502.42L201.41 503.83L202.24 505.28L203.01 506.75L203.72 508.24L204.37 509.76L204.97 511.3L205.5 512.86L205.97 514.43L206.38 516.03L206.73 517.63L207.02 519.25L207.24 520.88L207.41 522.51L207.51 524.15L207.55 525.8L207.52 527.44L207.44 529.09L207.28 530.74L207.07 532.38L206.79 534.02L206.45 535.64L206.04 537.26L205.56 538.87L205.02 540.46L204.42 542.04L203.74 543.61L203.01 545.15L202.2 546.67L201.33 548.17L200.39 549.64L199.38 551.09L198.32 552.49L197.21 553.84L196.05 555.14L194.85 556.37L193.61 557.55L192.34 558.67L191.02 559.74L189.67 560.74L188.29 561.69L186.88 562.58L185.43 563.41L183.96 564.18L182.47 564.89L180.95 565.55L179.41 566.14L177.85 566.67L176.28 567.14L174.68 567.55L173.08 567.9L171.46 568.19L169.83 568.42L168.2 568.58L166.56 568.68L164.91 568.72L163.26 568.7L161.62 568.61L159.97 568.46L158.33 568.24L156.69 567.96L155.07 567.62L153.45 567.21L151.84 566.73L150.24 566.19L148.67 565.59L147.1 564.92L145.56 564.18L144.04 563.37L142.54 562.5L141.07 561.56L139.62 560.55L138.22 559.49L136.87 558.38L135.57 557.22L134.34 556.02L133.16 554.79L132.04 553.51L130.97 552.19L129.97 550.84L129.02 549.46L128.13 548.05L127.3 546.61L126.53 545.14L125.82 543.64L125.16 542.12L124.57 540.58L124.04 539.02L123.57 537.45L123.16 535.86L122.81 534.25L122.52 532.63L122.29 531.01L122.13 529.37L122.03 527.73L121.99 526.08L122.01 524.44L122.1 522.79L122.25 521.14L122.47 519.5L122.75 517.87L123.09 516.24L123.5 514.62L123.98 513.01L124.52 511.42L125.12 509.84L125.79 508.28L126.53 506.73L127.34 505.21L128.21 503.71L129.15 502.24L130.15 500.79L131.22 499.39L132.33 498.04L133.49 496.75L134.69 495.51L135.92 494.33L137.2 493.21L138.52 492.15L139.87 491.14L141.25 490.19L142.66 489.3L144.1 488.47L145.57 487.7L147.07 486.99L148.59 486.34L150.13 485.74L151.69 485.21L153.26 484.74L154.85 484.33L156.46 483.98L158.08 483.69L159.7 483.47L161.34 483.3L162.98 483.2L164.63 483.16L166.27 483.19L167.92 483.27ZM149.14 547.42L175.59 550.2L191.21 528.72L180.39 504.46L153.95 501.68L138.32 523.16L149.14 547.42ZM376.2 188.9L377.65 191.2L379.19 193.45L380.83 195.64L382.55 197.77L384.38 199.85L386.29 201.86L388.3 203.81L390.4 205.69L392.59 207.5L394.88 209.23L397.23 210.86L399.62 212.39L402.06 213.81L404.53 215.11L407.04 216.31L409.57 217.41L412.14 218.39L414.73 219.27L417.34 220.04L419.97 220.7L422.62 221.26L424.54 221.59L209.74 517.29L209.53 515.79L209.25 514.17L208.9 512.56L208.49 510.97L208.01 509.4L207.48 507.84L206.89 506.3L206.24 504.78L205.52 503.28L204.75 501.82L203.92 500.37L203.03 498.96L202.08 497.58L201.08 496.23L200.01 494.91L198.89 493.64L197.71 492.4L196.48 491.2L195.19 490.04L193.84 488.93L192.43 487.87L190.98 486.86L189.51 485.92L188.01 485.05L186.49 484.24L184.95 483.5L183.39 482.83L181.81 482.23L180.21 481.69L178.61 481.21L176.99 480.8L175.36 480.46L173.72 480.18L172.08 479.96L170.43 479.81L168.79 479.72L167.14 479.7L165.5 479.74L163.85 479.84L162.22 480L160.59 480.23L159.15 480.49L373.93 184.8L374.85 186.56L376.2 188.9ZM443.38 80.18L443.66 80.21L407.75 129.63L432.84 186.08L493 192.37L492.77 192.67L490.97 194.86L489.09 196.96L487.14 198.97L485.13 200.88L483.05 202.7L480.92 204.43L478.72 206.07L476.48 207.61L474.18 209.05L471.84 210.4L469.45 211.66L467.02 212.82L464.55 213.88L462.05 214.84L459.52 215.7L456.96 216.47L454.37 217.14L451.76 217.71L449.13 218.17L446.49 218.54L443.83 218.81L441.16 218.97L438.49 219.03L435.81 218.99L433.14 218.85L430.46 218.61L427.79 218.26L425.14 217.8L422.49 217.24L419.86 216.58L417.25 215.81L414.66 214.93L412.09 213.94L409.55 212.85L407.04 211.65L404.57 210.34L402.14 208.93L399.74 207.4L397.39 205.76L395.11 204.03L392.92 202.23L390.82 200.35L388.81 198.4L386.89 196.39L385.07 194.31L383.34 192.18L381.71 189.98L380.16 187.74L378.72 185.44L377.37 183.1L376.12 180.71L374.96 178.28L373.9 175.81L372.93 173.31L372.07 170.78L371.3 168.22L370.64 165.63L370.07 163.02L369.6 160.39L369.23 157.75L368.97 155.09L368.8 152.42L368.74 149.75L368.78 147.07L368.92 144.4L369.17 141.72L369.52 139.06L369.97 136.4L370.53 133.75L371.2 131.12L371.97 128.51L372.85 125.92L373.83 123.35L374.92 120.81L376.12 118.3L377.43 115.83L378.85 113.4L380.37 111L382.01 108.65L383.74 106.37L385.55 104.18L387.42 102.08L389.37 100.07L391.38 98.15L393.46 96.33L395.6 94.6L397.79 92.97L400.04 91.43L402.33 89.98L404.68 88.63L407.07 87.38L409.49 86.22L411.96 85.16L414.46 84.2L417 83.33L419.56 82.56L422.15 81.9L424.75 81.33L427.38 80.86L430.03 80.49L432.68 80.23L435.35 80.06L438.02 80L440.7 80.04L443.38 80.18Z" id="aHcoHm032"></path><path d="M174.92 483.27L176.57 483.42L178.21 483.64L179.84 483.92L181.47 484.26L183.09 484.67L184.7 485.15L186.29 485.69L187.87 486.29L189.43 486.97L190.98 487.7L192.5 488.51L194 489.38L195.47 490.32L196.92 491.33L198.32 492.39L199.67 493.5L200.96 494.66L202.2 495.86L203.38 497.1L204.5 498.37L205.56 499.69L206.57 501.04L207.52 502.42L208.41 503.83L209.24 505.28L210.01 506.75L210.72 508.24L211.37 509.76L211.97 511.3L212.5 512.86L212.97 514.43L213.38 516.03L213.73 517.63L214.02 519.25L214.24 520.88L214.41 522.51L214.51 524.15L214.55 525.8L214.52 527.44L214.44 529.09L214.28 530.74L214.07 532.38L213.79 534.02L213.45 535.64L213.04 537.26L212.56 538.87L212.02 540.46L211.42 542.04L210.74 543.61L210.01 545.15L209.2 546.67L208.33 548.17L207.39 549.64L206.38 551.09L205.32 552.49L204.21 553.84L203.05 555.14L201.85 556.37L200.61 557.55L199.34 558.67L198.02 559.74L196.67 560.74L195.29 561.69L193.88 562.58L192.43 563.41L190.96 564.18L189.47 564.89L187.95 565.55L186.41 566.14L184.85 566.67L183.28 567.14L181.68 567.55L180.08 567.9L178.46 568.19L176.83 568.42L175.2 568.58L173.56 568.68L171.91 568.72L170.26 568.7L168.62 568.61L166.97 568.46L165.33 568.24L163.69 567.96L162.07 567.62L160.45 567.21L158.84 566.73L157.24 566.19L155.67 565.59L154.1 564.92L152.56 564.18L151.04 563.37L149.54 562.5L148.07 561.56L146.62 560.55L145.22 559.49L143.87 558.38L142.57 557.22L141.34 556.02L140.16 554.79L139.04 553.51L137.97 552.19L136.97 550.84L136.02 549.46L135.13 548.05L134.3 546.61L133.53 545.14L132.82 543.64L132.16 542.12L131.57 540.58L131.04 539.02L130.57 537.45L130.16 535.86L129.81 534.25L129.52 532.63L129.29 531.01L129.13 529.37L129.03 527.73L128.99 526.08L129.01 524.44L129.1 522.79L129.25 521.14L129.47 519.5L129.75 517.87L130.09 516.24L130.5 514.62L130.98 513.01L131.52 511.42L132.12 509.84L132.79 508.28L133.53 506.73L134.34 505.21L135.21 503.71L136.15 502.24L137.15 500.79L138.22 499.39L139.33 498.04L140.49 496.75L141.69 495.51L142.92 494.33L144.2 493.21L145.52 492.15L146.87 491.14L148.25 490.19L149.66 489.3L151.1 488.47L152.57 487.7L154.07 486.99L155.59 486.34L157.13 485.74L158.69 485.21L160.26 484.74L161.85 484.33L163.46 483.98L165.08 483.69L166.7 483.47L168.34 483.3L169.98 483.2L171.63 483.16L173.27 483.19L174.92 483.27ZM156.14 547.42L182.59 550.2L198.21 528.72L187.39 504.46L160.95 501.68L145.32 523.16L156.14 547.42ZM383.2 188.9L384.65 191.2L386.19 193.45L387.83 195.64L389.55 197.77L391.38 199.85L393.29 201.86L395.3 203.81L397.4 205.69L399.59 207.5L401.88 209.23L404.23 210.86L406.62 212.39L409.06 213.81L411.53 215.11L414.04 216.31L416.57 217.41L419.14 218.39L421.73 219.27L424.34 220.04L426.97 220.7L429.62 221.26L431.54 221.59L216.74 517.29L216.53 515.79L216.25 514.17L215.9 512.56L215.49 510.97L215.01 509.4L214.48 507.84L213.89 506.3L213.24 504.78L212.52 503.28L211.75 501.82L210.92 500.37L210.03 498.96L209.08 497.58L208.08 496.23L207.01 494.91L205.89 493.64L204.71 492.4L203.48 491.2L202.19 490.04L200.84 488.93L199.43 487.87L197.98 486.86L196.51 485.92L195.01 485.05L193.49 484.24L191.95 483.5L190.39 482.83L188.81 482.23L187.21 481.69L185.61 481.21L183.99 480.8L182.36 480.46L180.72 480.18L179.08 479.96L177.43 479.81L175.79 479.72L174.14 479.7L172.5 479.74L170.85 479.84L169.22 480L167.59 480.23L166.15 480.49L380.93 184.8L381.85 186.56L383.2 188.9ZM450.38 80.18L450.66 80.21L414.75 129.63L439.84 186.08L500 192.37L499.77 192.67L497.97 194.86L496.09 196.96L494.14 198.97L492.13 200.88L490.05 202.7L487.92 204.43L485.72 206.07L483.48 207.61L481.18 209.05L478.84 210.4L476.45 211.66L474.02 212.82L471.55 213.88L469.05 214.84L466.52 215.7L463.96 216.47L461.37 217.14L458.76 217.71L456.13 218.17L453.49 218.54L450.83 218.81L448.16 218.97L445.49 219.03L442.81 218.99L440.14 218.85L437.46 218.61L434.79 218.26L432.14 217.8L429.49 217.24L426.86 216.58L424.25 215.81L421.66 214.93L419.09 213.94L416.55 212.85L414.04 211.65L411.57 210.34L409.14 208.93L406.74 207.4L404.39 205.76L402.11 204.03L399.92 202.23L397.82 200.35L395.81 198.4L393.89 196.39L392.07 194.31L390.34 192.18L388.71 189.98L387.16 187.74L385.72 185.44L384.37 183.1L383.12 180.71L381.96 178.28L380.9 175.81L379.93 173.31L379.07 170.78L378.3 168.22L377.64 165.63L377.07 163.02L376.6 160.39L376.23 157.75L375.97 155.09L375.8 152.42L375.74 149.75L375.78 147.07L375.92 144.4L376.17 141.72L376.52 139.06L376.97 136.4L377.53 133.75L378.2 131.12L378.97 128.51L379.85 125.92L380.83 123.35L381.92 120.81L383.12 118.3L384.43 115.83L385.85 113.4L387.37 111L389.01 108.65L390.74 106.37L392.55 104.18L394.42 102.08L396.37 100.07L398.38 98.15L400.46 96.33L402.6 94.6L404.79 92.97L407.04 91.43L409.33 89.98L411.68 88.63L414.07 87.38L416.49 86.22L418.96 85.16L421.46 84.2L424 83.33L426.56 82.56L429.15 81.9L431.75 81.33L434.38 80.86L437.03 80.49L439.68 80.23L442.35 80.06L445.02 80L447.7 80.04L450.38 80.18Z" id="aRxyvsYi"></path></defs><g><g><g><use xlink:href="#g1yhl6d95m" opacity="1" fill="#cbd0e3" fill-opacity="1"></use></g><g><use xlink:href="#d16qQxzCyf" opacity="1" fill="#edf1ff" fill-opacity="1"></use></g><g><use xlink:href="#aHcoHm032" opacity="1" fill="#a3a7b7" fill-opacity="1"></use></g><g><use xlink:href="#aRxyvsYi" opacity="1" fill="#a6bdf2" fill-opacity="1"></use></g></g></g></svg>